<?xml version="1.0" encoding="utf-8"?>
<!-- Generator: Adobe Illustrator 25.2.3, SVG Export Plug-In . SVG Version: 6.00 Build 0)  -->
<svg version="1.1" id="Calque_1" xmlns="http://www.w3.org/2000/svg" xmlns:xlink="http://www.w3.org/1999/xlink" x="0px" y="0px"
	 viewBox="0 0 2480 3508" style="enable-background:new 0 0 2480 3508;" xml:space="preserve">
<path style="fill:#AE9591;" d="M502,3508c0-20-0.1-40,0-60c0.1-41-0.3-82,0.6-123c2.1-91.3,0.3-182.6,2.1-273.9
	c1.6-81.6,0.3-163.3,1.9-244.9c1.7-89.6,0.4-179.3,2.2-268.9c1.3-69,0.4-137.9,1.9-206.9c0.6-26.3,0.8-52.6,1.4-78.9
	c0-2.3,0.6-4.6,0.9-6.9c6.9,1.5,13.9,1,20.9,1c170.6,0.1,341.2,0.2,511.8,0.3c4,0,8.2-0.5,11.9,0.6c11.3,3.4,23,3.6,34.6,4.7
	c38.4,3.8,76.9,7,115.4,10.5c7.2,0.6,7.3,0.7,7,7.7c-0.7,14.3-1.2,28.6-1.4,42.9c-1.1,93.6-1.5,187.2-2.3,280.9
	c-1.1,129.6-0.1,259.2-1.8,388.8c-1.6,119.3-0.3,238.6-2,357.8c-0.8,56-0.6,112-0.9,167.9C971.3,3508,736.7,3508,502,3508z"/>
<path style="fill:#070954;" d="M1772,1289.8c14.4,2.9,28.1,8,42,12.5c16.5,5.3,32.7,11.3,49.2,16.7c25.8,8.5,49.3,21.5,71.9,36.4
	c32,21,48.8,50.5,55,87.7c5.9,35.9,8.9,72,11.9,108.2c2.5,30.3,8.1,60,13.1,89.9c5.7,33.8,10.1,67.8,13.1,102
	c3.1,35.8,7.4,71.6,8.3,107.6c0.5,19,0.6,38.1-4.5,56.6c-2.6,9.3-5,18.6-6.9,28.1c-5.2,25.3-17.7,46.5-36.1,64.3
	c-4.8,4.6-6.4,9.2-6.2,15.8c2.2,74.3,3.1,148.6,0.8,222.9c-0.7,22.3-2.8,44.6-3.3,66.9c-0.5,20.7-8.9,35.5-27.7,44.7
	c-6.1,3-14.5,4.8-17.2,11c-2.5,5.7-0.8,13.1-1.1,19.8c-2.2,55.3-2.9,110.6-7,165.8c-8.1,110.1-10.8,220.3-8.9,330.6
	c1.3,73.6,4.4,147.2,9,220.7c3.4,53.5,7.7,107,13,160.4c7.8,78.9,17,157.6,29,236c0.7,4.4,2.6,9,0.6,13.6c-99.3,0-198.7,0-298,0
	c-0.1-3.7-0.3-7.3-0.3-11c0.6-59.6,0.4-119.3,1.6-178.9c1.4-72.3,0.6-144.6,2-216.9c1.4-73.3,0.7-146.6,2-219.9
	c1.4-81.3,0.9-162.6,2.1-243.9c1.1-71.6,0.9-143.3,1.3-215c0-9,1.7-18,0.4-26.9c-1.3-9.3-1.5-18.7-0.5-27.9
	c2.2-21.6,0.9-43.2,0.9-64.9c0.5-2.9,0.9-5.9,1.4-8.8c39.9,0.2,79.9,0.4,119.8,0.5c14,0,15.1-0.9,15.1-14.4
	c0-42.9,0.5-85.8-1.3-128.6c-0.2-4.9-2-7.6-6.2-10.2c-14.4-8.9-28.5-18.4-42.6-27.7c2.2-0.8,4.3-1.9,6.5-2.4
	c23.8-6.1,47.1-13.9,70-22.9c36.6-14.3,71.7-31.6,104.5-53.5c5.9-3.9,11.8-7.9,16.6-13.8c-3.6-1.6-5.7,0.7-8,1.7
	c-9.9,4.8-19.7,9.6-29.5,14.6c-27.5,14.1-55.4,27.4-84,39.2c-24.3,10-49.2,18.2-73.8,27.4c-3.4,1.3-7.3,1.8-8.2,6.3
	c-23,5.2-46,10.5-69,15.6c-3.6,0.8-7.3,1.2-10.3-1.8c1-29.9-3.9-59-13.2-87.3c-4.3-12.9-8.8-25.7-13.2-38.6
	c3.7,0.3,7.3,0.3,10.7-1.4c12.7-6.4,26.8-10.3,38.4-18.9c2.5-1.9,4-1.3,5.6,1.1c3.9,5.9,7,12.1,9.6,18.6c8.4,21.5,12.6,44,16,66.7
	c1.9,12.5,3.2,25.1,8,36.9c0.8,2,1.2,4.8,4.4,3.8c2-73.8-18.6-138.8-75-190.4c30.6-18.3,59.8-36.1,89.5-53.2
	c29.6-17,61.1-30,91.2-45.9c-23.1,4.8-44.5,14.8-66.3,22.3c-2.7-3.3-1.8-6.5-1.8-9.3c-0.1-11.3-2-22.5-3.6-33.6
	c-3.2-22.7-6.5-45.4-6.7-68.4c-0.1-21.6,0-43.3,0.1-65c0-3.7-0.1-7.4,0.4-11c2.5-19,1.3-38.3,5-57.3c-3.7-0.1-4,2.3-4.5,4
	c-1.8,6-3.5,12.1-4.9,18.3c-6.1,27.4-8.3,55.2-8.3,83.2c0,22.3-0.3,44.6,2.7,66.8c3.2,23.7,6.6,47.4,10.3,71
	c0.7,4.6-0.4,6.7-4.3,8.5c-28.7,13.3-55.3,30.6-82.6,46.5c-25.6,14.9-49.8,31.9-73.4,49.9c-3.5,2.7-4.7,6-4.8,10.3
	c-0.1,5.8,1.8,11.1,3,16.6c-5.7,0.3-11.3-0.4-16.9-1.3c-21.1-3-42-7.5-63.3-8.4c-8.8-0.4-17.1-1.2-24.5-6.4c-1-0.8-2-1.7-3-2.4
	c-12.8-8.7-26.6-15.9-38.9-25.3c9.6-10.3,16.2-22.7,23.1-34.8c23.3-41.1,47.8-81.5,72.8-121.6c27.3-43.8,53.2-88.4,73.9-135.8
	c6.7-15.2,13-30.6,15.4-47.3c2.9-20.2-1.2-38.4-15.2-53.8c-5.1-5.7-5.2-5.6,1.3-10c22.9-15.5,45.5-31.3,67.4-48.2
	c27.7-21.4,48.6-48.1,63.3-79.7c5.8-12.3,10.9-25.1,11.9-38.9C1783.5,1332.1,1781.4,1310.4,1772,1289.8z M1909.7,2368.2
	c-3,0-6-0.4-8.9,0.1c-17.4,2.8-34.8,5.4-52,8.7c-47,9-94.4,14.7-141.7,21c-6.2,0.8-12.5,1.4-18.8,2.4c-2,0.3-3.9,1.5-3.5,4
	c0.3,1.8,1.9,2.7,3.6,3c2,0.3,4,0.2,6,0.4c6.7,0.5,13.2-1.4,19.8-1.7c20.9-1,41.7-4.1,62.4-6.7c32.9-4.2,65.6-10.2,97.9-17.8
	C1886.7,2378.8,1898.8,2375.5,1909.7,2368.2z"/>
<path style="fill:#AE9591;" d="M1681.5,2302.6c0,21.6,1.2,43.2-0.9,64.9c-0.9,9.2-0.8,18.6,0.5,27.9c1.3,8.9-0.3,18-0.4,26.9
	c-0.3,71.7-0.2,143.3-1.3,215c-1.2,81.3-0.7,162.6-2.1,243.9c-1.3,73.3-0.5,146.6-2,219.9c-1.4,72.3-0.6,144.6-2,216.9
	c-1.2,59.6-1,119.3-1.6,178.9c0,3.7,0.2,7.3,0.3,11c-151.3,0-302.7,0-454,0c0.3-38.3,0.5-76.6,0.9-114.9
	c1.5-130.9,0.4-261.8,2.1-392.8c1.5-117.3,0.8-234.5,1.9-351.8c1.2-127.9,1.8-255.7,0.4-384.9
	C1376,2276.7,1528.7,2289.6,1681.5,2302.6z"/>
<path style="fill:#262BD5;" d="M1681.5,2302.6c-152.7-13-305.5-26-458.2-38.9c1.5,129.1,0.8,257-0.4,384.9
	c-1.1,117.3-0.4,234.5-1.9,351.8c-1.7,130.9-0.6,261.9-2.1,392.8c-0.4,38.3-0.7,76.6-0.9,114.9c-4,0-8,0-12,0
	c0.3-56,0.1-112,0.9-167.9c1.7-119.3,0.4-238.6,2-357.8c1.7-129.6,0.8-259.2,1.8-388.8c0.8-93.6,1.2-187.2,2.3-280.9
	c0.2-14.3,0.7-28.6,1.4-42.9c0.3-7,0.2-7.1-7-7.7c-38.5-3.4-76.9-6.6-115.4-10.5c-11.5-1.2-23.3-1.3-34.6-4.7
	c-3.7-1.1-7.9-0.6-11.9-0.6c-170.6-0.1-341.2-0.2-511.8-0.3c-7,0-14,0.5-20.9-1c-0.3-1.6-0.6-3.1-1-4.7c9.5-3.8,19.6-3.2,29.5-3.3
	c109.6-0.4,219.2-0.6,328.7-0.7c58.6-0.1,117.2,0,175.9,0c9.9,0,9.9,0,9.9-9.7c0-1.7,0-3.3,0-5c-0.6-54.6-0.2-109.2-0.9-163.8
	c-0.8-73.3-0.3-146.5-0.2-219.8c0-10,1.2-19.9,1.8-29.9c1.8-1.4,3.6-1,5.3,0.1c0.7,3.9,1.9,7.7,1.9,11.8c0.3,21.3,1.1,42.6,1.2,63.9
	c0.4,112,0.7,223.9,1,335.9c0,3,0,6,0,9c0.1,10.8,0.1,10.8,11.3,11.4c6,0.3,12,0.4,18,0.9c27.9,2.4,55.7,4.9,83.5,7.2
	c27.2,2.3,54.4,4.4,81.6,6.8c33.5,2.9,66.9,6.2,100.4,9.1c26.9,2.4,53.7,4.4,80.6,6.7c40.8,3.6,81.5,7.6,122.3,11.2
	c33.1,3,66.3,5.6,99.4,8.8c6.5,0.6,13.3,0.1,19.5,3C1682.4,2296.7,1681.9,2299.7,1681.5,2302.6z"/>
<path style="fill:#AE9591;" d="M1056.7,1807.9c-0.6,10-1.8,19.9-1.8,29.9c-0.1,73.3-0.7,146.6,0.2,219.8
	c0.6,54.6,0.3,109.2,0.9,163.8c0,1.7,0,3.3,0,5c-0.1,9.7-0.1,9.7-9.9,9.7c-58.6,0-117.2-0.1-175.9,0c-109.6,0.2-219.2,0.4-328.7,0.7
	c-9.9,0-20-0.5-29.5,3.3c-2.7-0.1-5.3-0.2-8-0.2c-50.9-0.7-101.9-1.3-152.8-1.9c-2.3,0-4.7,0-7-0.2c-5.1-0.4-7.9-3.2-8.1-8.4
	c-0.1-1.7,0-3.3,0-5c0-130.2,0.1-260.5,0.2-390.7c0-6.6-0.4-13.3,1-19.9c1.8-8.8,2.2-9.3,10.9-9.6c6.7-0.2,13.3-0.2,20-0.2
	c70.6,0.1,141.2,0.2,211.9,0.2c4.3,0,8.7-0.2,13-0.3c11.8,0.1,23.6,2.1,35.4,0c11.6,0.5,23.3,1.3,34.9,1.3
	c83.2,0.3,166.4,0.4,249.7,0.6c4.3,0.1,8.6,0.4,12.9,0.4C969.3,1806.4,1013,1805.5,1056.7,1807.9z"/>
<path style="fill:#140830;" d="M1280,1000c-15,24-21.9,49.9-18.7,78.4c2,17.9,5.2,35.3,12.7,51.7c-0.6,0.6-1.1,1.3-1.7,1.9
	c-10.2-13-13.5-28.6-16.4-44.4c-5.6-30.7,0-59.4,15-86.7c10.8-19.6,23-38.2,35.9-56.4c24.5-34.5,46.9-70.3,66.5-107.9
	c5.4-10.3,10.8-20.6,13.7-32c1.3-5.2,2.1-10.4,0.9-15.8c-7.7-34.7-1.7-67.7,14-98.8c24.8-49.1,63.2-82.7,117-96.9
	c26.8-7.1,53.5-5.7,79.1,5.6c9.2,4,17.6,9.5,25,16.3c2.3,2.1,4.2,4.1,7.8,2.4c34.1-15.6,67.9-9.5,100.9,3.2
	c44.8,17.2,80.2,46.9,107.5,86.2c14.6,21.1,23.4,44.8,28.9,69.6c12.7,57,30.8,112.2,52.8,166.3c11.4,28,23.6,55.8,32.1,84.9
	c7,24.1,9.1,48.4,4.7,73.1c-4.2,23.8-17.1,43.1-33.6,60.1c-31,32-69.4,51.2-111.9,62.7c-33.1,9-66.8,11.4-101,6.8
	c-12.5-1.7-25.2-1.8-37.2-6.2c-8.6-6.2-18.3-10.8-25.8-18.7c-9.4-9.8-14.7-20.9-14.5-34.9c0.3-18.5,3.2-36.4,8.2-54.1
	c0.5-2.8,3-5,2.1-8.1c1.9-4.2,3.7-8.5,5.7-12.6c9.6-19.4,20.8-37.7,35.8-53.5c-0.3,3.3-1,6.6-0.7,9.8c1.8,17.4,4.8,34.5,12.1,50.6
	c2,4.5,4.2,9,9.1,11.2c0.2,0.1,0.4,0.3,0.6,0.4c-0.2-0.1-0.5-0.2-0.7-0.3c-0.7-7-4.6-13-6.3-19.8c-4.7-19.1-7.4-38.4-8.4-58
	c8.9-2.8,18.1-4.4,26.8-7.8c24.5-9.8,44.9-24.6,58.3-47.8c14-24.1,12-50.4-5.1-69.6c-8.2-9.1-18.5-15-29.9-19.2
	c-9.4-3.5-19.3-4.8-29.2-6.4c0.4-3-0.1-5.9-1.2-8.8c-5.8-14.6-9.7-29.7-11.4-45.3c-0.2-1.6-0.4-3.4-3.2-3.5
	c-0.9,20.4,2.5,39.7,12.7,57.5c-2.6,0.5-5.1,0.5-7.6-0.3c-0.3-0.9-0.4-2.1-0.9-2.8c-15.7-18.5-22.9-40.8-28.1-63.9
	c-0.7-3,0.5-6.4-3.2-11.1c-1,7.8-0.9,13.4,0,19.2c3.3,20.3,11.5,38.7,22.3,56c-6.7,0-12.2-4.5-18.6-5.7
	c-3.5,12.6-7.3,15.6-19.9,15.4c-3.6,0-7.3-0.4-10.9-1.1c-10.8-2.2-21.5-4.5-32.2-7.2c-19.7-4.9-39.6-9.1-58.9-15.5
	c-5.4-1.8-10.7-3.8-15.3-7.3c-8.2-6.2-8.3-14.6-0.2-20.8c3.7-2.9,8-4.8,12.5-6.1c14.6-4.4,29.5-5.1,44.5-3.2
	c3.1,0.4,6.2,1.4,9.1,0.4c0-1.2,0.1-1.6,0-1.8c-1-1.7-2.1-3.4-3-5.2c-11.3-20-17.6-41.7-20.3-64.4c-2.2-19.1-0.2-37.9,9.7-55.4
	c-48.7-1.1-120.6,54.5-148.9,109.8c4.5,1.2,9,2.3,13.4,3.6c12.9,3.8,25.1,9,35.4,17.8c5.4,4.7,10.7,9.9,8.2,17.9
	c-2.4,7.4-9.4,9.1-16,10c-10.2,1.5-20.5,2.3-30.9,1c-9.6-1.2-19.3-0.6-28.9-2.3c-3-0.5-6.3-0.7-7.5,3.1c-2.2,7.2-6.2,13.9-6.6,21.8
	c1.4,0.2,2.3,0.5,3.3,0.4c28.2-0.7,48.7,13.1,65.2,34.6c3.5,4.5,5.6,9.8,6.8,15.4c0.9,4-0.3,6.6-5.1,6c-1.7-10.3-6-19-14.9-26.1
	c-3.9,14.8-12.2,22.9-27,23.1c-7.6-1.1-13-5.8-18.3-10.8c-0.9-2.3-1.5-4.9-4.1-6.1l0.1,0.1c-1.3-10-2.1-19.9,3.7-29.4
	c-13.9,0.4-16.9,3.2-17,14.4c-4.6,11.1-6.4,22.9-7.9,34.8c-0.9,2.5-2.1,4.9-2.5,7.5c-3.3,20.7-2.3,41.5-2,62.4
	c0,2.9,1.4,5.8,2.1,8.6c2.1,24.9,6.9,49.3,16.2,72.6c6,15.1,15.1,28,27.7,38.4c3.1,2.5,6.2,5,9.2,7.6c14.5,12.8,13.7,33.6-1.7,45.4
	c-9.4,2.8-18.2,7.2-28,8.8c-17.1,2.9-34.1,4.1-50.7-2.6c0.6-1.9,0.8-3.9,0.2-5.9c-5.6-17.5-7.7-35.5-8.1-53.7c0-1.5,0.2-3.4-2.7-3.3
	c-2.4,21,0.3,41.5,6.1,61.7c-35.2-13.8-60.9-38.3-79.6-70.7c-3.5-6.1-5.2-12.8-5.8-19.9c-0.8-8.9-2.7-17.8-3.1-26.7
	c-0.9-20.9,3.9-40.9,10.8-60.4c1.5-4.4,3.1-8.7,4.7-13.1c3.8-7.5,7.7-15,11.5-22.6c3.2-3.2,4.8-7.2,5.9-11.5
	c-3.6,2.7-6.4,5.9-7.4,10.4C1288.4,984.1,1283.4,991.6,1280,1000z M1306,958c-0.6,1.4-1.3,2.7-1.9,4.1c-0.6,0.3-2.1,0.1-0.8,1.4
	c0.2-0.5,0.5-1.1,0.7-1.6C1305.6,961.1,1305.3,959.3,1306,958l0.2-0.2C1306.2,957.8,1306,958,1306,958z M1647.9,1125.8
	c6.7-18.1,16.7-34.8,24-53.7c-3.5,1.6-4.2,4-5.5,5.9c-9.1,14-15.3,29.3-20.5,45.1c-2.5,3.6-2.3,7.8-2.4,12
	C1646.4,1132.5,1647.5,1129.3,1647.9,1125.8z M1626,838l0.4,0.4l-0.5-0.2c0.4-2.3-1.2-3.7-2.3-5.3c-19.9-27.6-31.5-58.3-34.5-92.2
	c-0.5-5.9-1-11.9-1.6-19.7c-4.8,13.9-4.7,26.3-3.1,38.4c3.1,24.2,9.4,47.6,23.6,68.1C1612.4,833.7,1617.9,837.8,1626,838z
	 M1604.1,611.6c2.1,1.1,4,2.9,6.8,1.4c-1.6-1.7-2.9-3.6-5.5-3.4c-6.3-4.5-13.4-7.4-20.7-9.7c-26.8-8.3-53.6-6.9-79.3,3.2
	c-60.5,23.7-98.1,67.7-112.7,131.2c-2.3,8-3.1,16.2-1.8,25.4c1.6-9.2,3.1-17.5,4.5-25.9c1-3.5,1.8-7.1,2.9-10.6
	C1427.3,631.6,1519.6,584,1604.1,611.6z M1626.2,635c-5.4,0.6-7.3,3.6-9.4,6c-12.8,13.9-21.5,30.3-27.6,48.1
	c-0.8,2.5-1.1,5.2-1.3,7.8c-0.1,1.9-0.4,4.4,2.2,4.8c2.6,0.4,3.1-1.8,3.6-3.8c4.1-15.6,11.4-29.8,19.8-43.4
	C1617.4,648.3,1621.5,642.3,1626.2,635z M1744.9,1134.9c0.1-0.7,0.6-1.4,0.3-1.8c-7.6-12.4-14.4-25.2-18.3-39.4
	c-0.2-0.6-0.6-1.2-0.9-1.7c-0.6-0.9-1.3-1.3-2.4-1.2c-1.3,0.2-1.6,1.2-1.6,2.1c0,2.6-0.3,5.4,0.4,7.9c3.2,11.6,8.5,22.2,17,30.9
	C1740.8,1133.1,1742.1,1135.4,1744.9,1134.9z M1381.2,1134.6c-4.4,17.1-4.1,34.4-1.5,51.8c0.2,1,0.4,2,0.6,2.9
	c0.4,1.4,1.3,2.5,2.7,2.4c2.1-0.2,2.4-1.9,2.1-3.7C1382,1170.4,1381.3,1152.6,1381.2,1134.6z M1672.9,1069.6l0.3-0.6l-0.5-0.1
	L1672.9,1069.6z"/>
<path style="fill:#070955;" d="M1056.7,1807.9c-43.7-2.4-87.4-1.5-131-1.6c-4.3,0-8.6-0.2-12.9-0.4c-2.4-9.3-4.1-18.9-7.2-28
	c-15.7-47-28.3-94.9-36.6-143.8c-3.8-22.6-7-45.3-8.7-68.2c12.9,0.6,25.7,0.3,38.5-3.1c29.9-8,58.8-18.4,87-30.9
	c31.5-14,61.3-30.4,82.8-58.5c1.9,1.3,1.1,4.7,4.7,5.3c1.5-2.5,3.2-5.3,4.9-8c25.2-41.5,51.2-82.5,81.8-120.3
	c15.7-19.4,32.7-37.7,52.7-52.8c14.9-11.3,30.9-20.7,48.3-27.6c21.3-8.4,42.9-16.2,65.4-20.8c3.3-0.7,6.5-1.6,9.8-1
	c-7.9,32.3-14.9,64.7-18.7,97.8c-3,26.6-4.8,53,0.5,79.4c5.8,29.2,17.4,55.1,42.9,72.9c8.3,5.8,15.9,12.6,24.6,19.5
	c-13.9,6.1-20.3,17.7-25.2,30.2c-6.1,15.6-8.9,32.1-10.1,48.7c-1.7,24.7,0.7,49.2,5,73.5c5.2,29.9,12.5,59.2,21,88.3
	c11.4,39.3,21,79.1,34.1,117.9c1.6,4.7,3.8,9.3,4,14.4c-5.4-3.2-10.9-6.3-16.3-9.6c-37.1-23.3-74.2-46.6-111.3-70.1
	c-3.9-2.4-7.6-3.1-12.1-3.1c-23.6,0.1-47.2,1.2-70.8-0.9c1.4-1.9,2.9-3.7,4.2-5.6c12.8-18.7,24.3-38.2,35.3-58
	c16.8-30.3,33.4-60.7,47-92.6c5.9-14,10.9-28.4,13.5-43.8c-3.6,0.5-4,3.1-4.9,5c-14.1,28.7-29.3,56.8-44.3,85
	c-18.6,35-37.6,69.7-59.7,102.7c-1.5,2.2-3.4,4.2-2.7,7.2c-4.3,0.2-8.6,0.5-12.9,0.5c-39.1,0.1-78.2,0.2-117.3,0.3
	C1060.3,1806.9,1058.5,1806.5,1056.7,1807.9z M1072.9,1483.7c-0.6,5.9,1,8.9,2.1,11.9c12.4,33,24.7,66,37.4,98.8
	c8.4,21.7,18.1,42.9,28.8,63.6c1.2,2.4,2.4,4.8,3.7,7c1.1,1.8,2.5,3.2,4.9,2.3c1.9-0.7,1.9-2.5,2-4.2c0.1-2.8-1.1-5.2-2.1-7.6
	c-6.6-15.6-13.3-31.2-19.8-46.8c-12.8-30.3-22.2-62-36-91.9C1088.6,1505.4,1082.6,1494.5,1072.9,1483.7z"/>
<path style="fill:#080A55;" d="M1674.3,1230.1c3.8-0.8,7.2,0.6,10.6,2c18.7,7.7,36.6,17.1,53.5,28.3c10.6,7,19.9,15.5,26.4,26.6
	c-2.5,6.1-0.1,11.8,1.7,17.5c5.4,16.4,7.4,33.3,4.1,50.2c-7.4,38.7-28.3,70.1-56,97c-13.1,12.7-28.3,23.1-42.7,34.5
	c-14.6,11.6-30.1,21.9-45.3,32.6c-7.8,5.5-7.5,6.4-0.5,12.7c1,0.9,2,1.8,2.7,2.9c11.8,16.6,16.2,34.7,11.7,54.8
	c-4.7,21-13.9,40.2-23.1,59.4c-25.4,52.9-56.7,102.5-87.4,152.4c-24.1,39.1-45.6,79.7-68.4,119.6c-12.4-6.5-23.9-14.6-35.8-21.9
	c0.5-3.8-0.7-7.2-1.8-10.7c-20.6-65.3-39.5-131-53.9-198c-5.3-24.7-9-49.7-9.8-74.9c-0.6-19.2,1.5-38.5,7.4-57
	c4.4-13.8,8.9-27.4,24.7-32.7c3.4-1.1,4.6-4.5,1.9-7.2c-6.6-6.6-11.5-14.5-18.9-20.5c-10.8-8.8-22.3-16.8-30.4-28.6
	c-13.9-20.1-18.9-43.1-20.8-66.8c-2-24.9,1.2-49.8,4.7-74.4c3.2-22.3,8-44.4,12.3-66.5c1-4.9,3-10.5-1.6-15.1
	c5.7-11.2,15.3-17.4,27.2-19.8c16.6-3.4,33.6-4.4,50.5-4.1c3.2,0,5.8,1,8.2,3c1.5,4.3-0.3,7.6-2.8,11c-4,5.6-8.9,10.7-11.3,17.4
	c-17,25.1-17.2,50-0.1,74.1c11.5,16.3,19.5,34.1,23.8,53.5c3.1,14,4.1,28.4,4.2,42.7c0.2,30.3-2.1,60.5,0.2,90.9
	c1.6,20.9-1.7,41.9-2.8,62.9c-2.4,45.3-2.8,90.6,0.3,135.8c1.9,28.3,5.3,56.4,9,84.4c2,14.8,3.1,29.8,6.6,46.1
	c1.1-3.1,1.9-4.6,2.2-6.2c14.6-59.5,34.3-117.5,52.8-175.9c11.6-36.5,26.4-71.8,39-107.9c12.1-34.5,21.8-69.9,34.7-104.2
	c12.5-33.1,29.9-63.1,53.4-89.6c9.1-10.2,17.3-21.1,25.2-32.3c5.9-8.5,11.2-17.3,14.7-27.2c3.3-9.4,6-19,3.6-29.2
	c0.4-7-0.3-13.8-1.6-20.7C1675.7,1243.9,1673.4,1237.2,1674.3,1230.1z"/>
<path style="fill:#D28A6C;" d="M1674.3,1230.1c-0.9,7.1,1.4,13.8,2.6,20.6c1.2,6.9,1.9,13.7,1.6,20.7c-29.2,18.8-62,24.7-95.9,26.4
	c-25,1.3-49.8-1-74.3-5.8c-34.6-6.8-67.3-18.1-96.5-38.4c2.3-6.7,7.3-11.8,11.3-17.4c2.4-3.4,4.3-6.7,2.8-11
	c5.9-5.8,7.4-13.6,9.9-21c2-5.8,3.7-11.8,4.2-18c15.4-11.8,16.2-32.6,1.7-45.4c-3-2.6-6.2-5.1-9.2-7.6
	c-12.6-10.4-21.7-23.3-27.7-38.4c-9.3-23.3-14.1-47.7-16.2-72.6c4.6-0.1,9.2,0.2,13.8-1.3c17.9-5.8,30.1-25,27.4-43.6
	c-2.8-19-18.7-32.7-38.7-33.5c1.5-11.8,3.4-23.6,7.9-34.8c3.7,1.2,4,5,6,7.5c2.2,2.7,2.8,7,7.3,7.4c0,0-0.1-0.1-0.1-0.1
	c-0.2,3.1,2,4.6,4.1,6.1c5.3,5,10.7,9.7,18.3,10.8c13.5,7.6,27.5,6.8,41.8,3.1c4.8,0.7,6-2,5.1-6c-1.2-5.6-3.3-10.9-6.8-15.4
	c-16.4-21.4-37-35.2-65.2-34.6c-1,0-1.9-0.3-3.3-0.4c0.4-7.9,4.4-14.6,6.6-21.8c1.2-3.8,4.5-3.6,7.5-3.1c9.6,1.7,19.3,1.2,28.9,2.3
	c10.4,1.3,20.7,0.4,30.9-1c6.6-0.9,13.7-2.6,16-10c2.6-8-2.7-13.2-8.2-17.9c-10.3-8.9-22.5-14.1-35.4-17.8
	c-4.4-1.3-8.9-2.4-13.4-3.6c28.3-55.3,100.2-110.9,148.9-109.8c-9.9,17.5-11.9,36.2-9.7,55.4c2.6,22.7,9,44.3,20.3,64.4
	c1,1.7,2.1,3.4,3,5.2c0.1,0.2,0,0.6,0,1.8c-2.9,1-6,0-9.1-0.4c-15-1.9-29.9-1.2-44.5,3.2c-4.5,1.3-8.8,3.2-12.5,6.1
	c-8,6.2-7.9,14.6,0.2,20.8c4.6,3.5,9.9,5.5,15.3,7.3c19.3,6.4,39.2,10.6,58.9,15.5c10.7,2.6,21.4,5,32.2,7.2c3.6,0.7,7.3,1,10.9,1.1
	c12.6,0.2,16.4-2.8,19.9-15.4c6.4,1.2,11.9,5.7,18.6,5.7c3.2,1.4,5.8,5,10,2.7c2.5,0.7,5.1,0.8,7.6,0.3c1,0,2.1,0.1,3.1,0.1
	c9.8,1.6,19.7,2.9,29.2,6.4c11.4,4.2,21.8,10.1,29.9,19.2c17.1,19.1,19.1,45.5,5.1,69.6c-13.4,23.2-33.8,38-58.3,47.8
	c-8.7,3.5-17.9,5-26.8,7.8c-4.3-0.2-4.9,3.1-5.7,6.2c-15,15.8-26.2,34.1-35.8,53.5c-2.1,4.1-3.8,8.4-5.7,12.6
	c-6.1,5.2-12.4,10.1-18.3,15.5c-11.8,10.8-24.4,20.7-38.6,28.2c-39.7,21.1-79.8,23.5-120.5,2.8c-2.4-1.2-4.7-2.5-7.1-3.6
	c-1.7-0.7-3.6-2.2-5.2,0.6c0.4,0.8,0.6,1.8,1.3,2.4c2.1,1.7,4.2,3.3,6.5,4.6c27.7,16,57.3,20.9,88.6,14
	c32.6-7.2,59.2-24.9,82.2-48.6c2.8-2.9,5.2-6.1,9-7.8c-4.9,17.7-7.9,35.6-8.2,54.1c-0.2,14,5.1,25,14.5,34.9
	c7.5,7.9,17.2,12.5,25.8,18.7C1674.1,1226.1,1674.2,1228.1,1674.3,1230.1z M1574,1073.8c5.5-4.6,5.5-10.6,3.2-16.3
	c-2.2-5.5-7.6-5.7-12.8-5.7c-10.5,0-20.4,2.5-30.1,6.2c-8.2,3.1-16.5,4.3-25.4,4.1c-12.5-0.3-24.3-3.7-36.2-6.7
	c-6.3-1.6-12.5-2-18.8-1.4c-6.1,0.6-9.5,4.9-9.6,10.8c-0.1,6.2,2.9,9.7,9.7,11.2c-1.1,4.8,2.8,6.3,5.7,8.3
	c32.5,22.3,75.2,20.9,106.6-0.7C1569.9,1081.2,1573.4,1078.7,1574,1073.8z M1640.1,935.4c5-2.2,4.1-5.2,1.2-8.5
	c-9.6-11-22.1-16.2-36.2-16.5c-30.3-0.7-54.4,12.7-74.5,34.5c-0.7,0.7-1.3,1.5-1.7,2.4c-2.3,5,0.9,4.8,4.3,4.4
	c2.8,4.6,7.3,6.6,12.2,8.1c8.4,2.7,17,2.6,25.7,2.1c6.3,0.2,12.5-1.1,18.7-2c11.7-1.2,22.4-5.3,32.7-10.5
	C1629.2,946,1635.7,942,1640.1,935.4z M1595.7,1003.5c-2.2,22,18.9,40.8,39,40.6c25.9-0.3,41.9-20.8,41.4-40.8
	c-0.5-22.2-18.2-41.2-40.6-40.8C1610.4,962.9,1595,982.1,1595.7,1003.5z M1492.9,1014.7c-5.7-0.9-10.3-2.5-14.7-5.1
	c-8.6-5.1-10.6-10.9-6.5-20.1c3.8-8.5,8.3-16.7,12.3-25.1c7.5-15.6,14.8-31.3,16.2-48.9c0.3-3.5,4-8.9-1.7-9.9
	c-4-0.7-4.1,5.2-4.7,8.6c-2.7,15.2-7.9,29.5-14.8,43.3c-5,10.1-10.2,20.2-14.5,30.7c-5.9,14.4,3.3,28.9,18.7,30.4
	C1486.6,1018.9,1489.9,1019.1,1492.9,1014.7z M1735.1,927c-0.6,2.1,0.7,3.2,1.9,4.3c12.1,10.6,13.4,23.7,8.8,38.1
	c-3.5,10.9-10.3,20-16.9,29.1c-2,2.8-3.9,5.6-6.6,9.4c2.5-0.6,3.6-0.5,4.3-1c16-12.2,26.3-28,28.7-48.1c1.4-11.2-2.9-20.9-10.9-28.7
	C1742.1,927.7,1739.3,924.7,1735.1,927z"/>
<path style="fill:#0C0D57;" d="M628.2,1804c-11.8,2.1-23.6,0.1-35.4,0c8.6-32.8,17.1-65.6,25.8-98.4c22.9-86.5,46-172.9,68.6-259.4
	c2.4-9.2,6.9-15.3,14.9-20c31.6-18.5,63-37.4,94.5-55.9c4.1-2.4,7.4-6.8,12.9-6.7c-2.3,14.1-1.8,28.1,0.4,42.2c-0.7,0.1-1.4,0-2,0.3
	c-25.1,15.6-50.9,30-76.9,44.1c-6.5,3.5-9.5,8.1-11.3,14.9C689,1578,659.8,1691.3,628.2,1804z"/>
<path style="fill:#D28A6C;" d="M809.9,1405.8c-2.2-14-2.6-28.1-0.4-42.2c0.2-3,0.9-6,0.5-8.9c-3.2-22.7,7.7-40,22.3-55.2
	c20-20.9,44.3-34.9,72.8-40.5c13.1-2.5,26.4-2.6,39,3.4c6.3,3,10.5,7.9,13.8,13.8c0.4,1.5,0.7,2.9,1.1,4.4c-1.9,3.5,0.5,6.5,1.6,9.5
	c5.6,16.4,10.6,33,14.6,49.8c1.5,6.5,3.2,12.9,2.9,19.7c-0.4,9-5,12.1-13.1,8.4c-7.4-3.3-13.5-8.6-18.5-15
	c-13.8-17.6-23.8-36.8-26.9-59.3c-0.8-6-1.2-12.3-4.8-17.7c-1.7,7.6-1.2,15-0.1,22.5c2.7,18,9.3,34.6,17.7,50.7
	c5.9,11.2,11.1,22.8,11.6,35.8c0.6,15.1-6.8,19.7-19.9,12.6c-1.8-0.9-3.4-2.1-5.1-3.2c-8.4-5.8-14.6-13.5-19.1-22.7
	c-11.5-23.5-18.5-48.5-22.1-74.3c-0.2-1.7,0.5-4.4-3.1-3.9c-0.9,5.6-0.7,11.2,0,16.8c1.9,13.9,5.5,27.4,10,40.7
	c4.6,13.9,9.9,27.6,12.4,42.1c0.8,5,1.4,10-0.1,14.9c-2.9,9.7-10.7,12.9-19.5,7.9c-5-2.9-8.7-7.2-11.9-11.9
	c-6.8-9.7-10.4-20.8-13.4-32.1c-4.9-18.3-8.6-36.9-10.6-55.8c-0.3-3.2,0.2-7.1-4.1-9.5c-2,4.5-1.4,8.5-1,12.4
	c1.9,16.2,4.2,32.4,8.3,48.2c1.2,4.7,1.4,9-0.3,13.6c-2.6,7.2-4.7,14.6-7.3,21.8c-1.2,3.2-2,6.3-1.3,9.7c-1.1,1.2-2.2,2.5-3.5,3.5
	c-7.6,6.5-13.2,5.7-18.8-2.8C812.2,1410.5,811.1,1408.1,809.9,1405.8z"/>
<path style="fill:#D28A6C;" d="M1025.2,1281c5.6,22.2,5.6,44.6,3.6,67.4c-2.1,24.5-5.6,48.9-4.8,73.6c-3.6,2.8-7.2,5.5-4.6,11.1
	c0.6,1.2-0.2,3.1-0.4,4.7c-2,0.1-3.5,1.3-4.8,2.7c-2.4,1.2-4.8,2.2-7.1,3.5c-30.2,17.1-62.2,30.3-95.2,40.8
	c-11.5,3.7-23.1,6.3-35.3,5.4c-8-17.7-14.7-36-25.5-52.4c-5.2-8-10-16.3-13.3-25.4c6.6-6.6,7.7-16.2,12.5-25.1
	c1.3,2.7,2,4.2,2.6,5.7c3.8,9,8.5,17.4,15.9,24c6.9,6,14.8,9.7,23.8,5.5c8.6-4,10.9-12,11.3-20.7c0.1-3.5,0-7,0-12.2
	c3.4,3.1,5.5,5,7.7,6.9c5.1,4.3,10.5,8.2,17.1,10c11.3,3.3,20-2.5,21.2-14.2c0.7-6.3,0.4-12.6-1.3-18.8c-0.6-2.4-1.9-5,0.6-7.8
	c4.2,2.5,8.3,5.3,12.7,7.5c13.1,6.5,23.5-0.4,22.8-15.1c-0.2-5.3-1.1-10.6-2.3-15.8c-2.5-11-5.4-21.9-8.1-32.9
	c6.6-3.7,13.1-7.5,19.7-11.1C1004.5,1292.4,1014.1,1285.4,1025.2,1281z"/>
<path style="fill:#080A55;" d="M1074.7,1207.2c0.4-13.1,6.3-23.8,15.3-32.6c23.7-23.2,52.1-32.2,84.9-26.5c0.7,0.1,1.3,0.3,1.9,0.4
	c33.5,8.6,44.5,39.5,23.5,67c-14.2,18.6-33.9,28.3-56.5,32.6c-16.4,3.1-32.4,1.8-47.7-5.6c-1.2-0.6-2.6-0.6-3.8-0.9
	C1087.6,1229.5,1080.2,1218.8,1074.7,1207.2z"/>
<path style="fill:#1B23D1;" d="M1461.8,1920.5c22.8-39.9,44.3-80.5,68.4-119.6c30.7-49.9,62-99.4,87.4-152.4
	c9.2-19.2,18.4-38.4,23.1-59.4c4.5-20.1,0-38.2-11.7-54.8c-0.8-1.1-1.7-2-2.7-2.9c-7-6.3-7.4-7.2,0.5-12.7
	c15.2-10.8,30.7-21.1,45.3-32.6c14.3-11.3,29.6-21.8,42.7-34.5c27.7-26.9,48.5-58.3,56-97c3.3-16.9,1.3-33.8-4.1-50.2
	c-1.9-5.7-4.2-11.3-1.7-17.5c2.5,0.8,5.3,0.8,7.2,2.9c9.4,20.5,11.5,42.2,9.9,64.4c-1,13.8-6.1,26.6-11.9,38.9
	c-14.8,31.5-35.7,58.2-63.3,79.7c-21.9,16.9-44.5,32.7-67.4,48.2c-6.5,4.4-6.4,4.3-1.3,10c14,15.4,18.1,33.6,15.2,53.8
	c-2.4,16.6-8.8,32-15.4,47.3c-20.7,47.4-46.6,92-73.9,135.8c-25,40.1-49.5,80.5-72.8,121.6c-6.9,12.1-13.5,24.5-23.1,34.8
	C1465.4,1923.8,1463.3,1922.7,1461.8,1920.5z"/>
<path style="fill:#1B23D1;" d="M1339.8,1246.2c4.6,4.6,2.5,10.2,1.6,15.1c-4.4,22.1-9.1,44.2-12.3,66.5c-3.6,24.7-6.7,49.5-4.7,74.4
	c1.9,23.6,6.9,46.6,20.8,66.8c8.1,11.8,19.7,19.8,30.4,28.6c7.4,6,12.3,13.9,18.9,20.5c2.7,2.7,1.5,6.1-1.9,7.2
	c-15.8,5.3-20.3,18.9-24.7,32.7c-5.9,18.6-8,37.8-7.4,57c0.8,25.2,4.4,50.2,9.8,74.9c14.4,67,33.3,132.7,53.9,198
	c1.1,3.5,2.3,6.9,1.8,10.7c-4.1-2.3-8.4-4.3-11.6-7.9c-0.2-5.1-2.4-9.7-4-14.4c-13.1-38.8-22.7-78.6-34.1-117.9
	c-8.4-29.1-15.8-58.4-21-88.3c-4.2-24.3-6.6-48.8-5-73.5c1.1-16.6,4-33.1,10.1-48.7c4.9-12.5,11.3-24.2,25.2-30.2
	c-8.6-6.9-16.2-13.7-24.6-19.5c-25.5-17.8-37-43.7-42.9-72.9c-5.3-26.4-3.5-52.8-0.5-79.4c3.7-33.1,10.8-65.5,18.7-97.8
	C1337.4,1247.5,1338.6,1246.8,1339.8,1246.2z"/>
<path style="fill:#0C0D57;" d="M1025.2,1281c-11,4.4-20.7,11.4-31,17.1c-6.6,3.6-13.2,7.4-19.7,11.1c-5.3-9.5-7.9-20.4-15.4-28.7
	c-0.4-1.5-0.7-2.9-1.1-4.4c34.1-19.8,68.3-39.7,102.5-59.5c3.1-1.8,6.4-3.4,9.7-5c-0.7,6.1,1.5,11.4,4,16.8
	c3.2,6.9,9.2,10.7,14.6,15.3C1067.5,1256.2,1046.3,1268.6,1025.2,1281z"/>
<path style="fill:#1B23D1;" d="M1014.2,1440.4c1.3-1.4,2.8-2.5,4.8-2.7c9.9,7.8,14.7,18.5,17.2,30.5c0.9,4.2,1.8,8.4,2.2,12.7
	c0.7,7.6,2.1,8.2,8.2,3.9c7-4.9,13.2-11.1,21-15c0.9,1,1.2,2.1,1.1,3.5c-21.5,28.1-51.3,44.6-82.8,58.5c-28.2,12.5-57.2,23-87,30.9
	c-12.8,3.4-25.5,3.7-38.5,3.1c-0.9-1.8-1.1-3.6-0.4-5.5c16.7-1.3,32.7-5.1,48.7-10.1c28-8.7,55.2-19.3,81.8-31.6
	c13-6,25.5-12.9,37.6-20.6c3.2-2,5.1-4.3,3.7-8.2c-5.1-14-6.7-29.3-15.4-41.9C1014.7,1445.8,1013.9,1443.2,1014.2,1440.4z"/>
<path style="fill:#0C0D57;" d="M1067.5,1469.9c-7.8,3.9-13.9,10.1-21,15c-6.1,4.3-7.5,3.7-8.2-3.9c-0.4-4.3-1.3-8.5-2.2-12.7
	c-2.5-12-7.2-22.7-17.2-30.5c0.2-1.6,1-3.4,0.4-4.7c-2.6-5.6,1-8.3,4.6-11.1c2.8-1,5.5-2,8.3-3c10-3.6,14.6-2.1,19,7.6
	C1057.8,1440.6,1062.4,1455.3,1067.5,1469.9z M1057.9,1456.9c0.2-6.4-4.8-12.9-10-13c-4.7-0.1-8,3.7-8.1,9.4
	c-0.2,6,4.4,12.2,9.2,12.4C1053.6,1465.9,1057.8,1461.7,1057.9,1456.9z"/>
<path style="fill:#1B23D1;" d="M1088.7,1243.7c-5.4-4.6-11.4-8.4-14.6-15.3c-2.5-5.4-4.7-10.7-4-16.8c1.6-1.5,3.1-2.9,4.7-4.4
	c5.5,11.7,12.9,22.3,17.5,34.4C1091.3,1242.7,1090.3,1243.8,1088.7,1243.7z"/>
<path style="fill:#1B23D1;" d="M1356.7,1191.3c-5.8-20.2-8.5-40.7-6.1-61.7c2.9-0.2,2.6,1.8,2.7,3.3c0.4,18.3,2.6,36.2,8.1,53.7
	c0.6,1.9,0.4,3.9-0.2,5.9C1359.5,1192.7,1358,1192.4,1356.7,1191.3z"/>
<path style="fill:#F8F1E2;" d="M1295.2,978c-3.8,7.5-7.7,15-11.5,22.6c-1.2-0.2-2.4-0.4-3.7-0.6c3.4-8.4,8.4-15.8,13.7-23.1
	C1293.9,977.8,1294.4,978.1,1295.2,978z"/>
<path style="fill:#0C0D57;" d="M1272.4,1132c0.6-0.6,1.1-1.3,1.7-1.9c1.9,1.6,3.4,3.5,4,6.8
	C1274.7,1136.2,1273.3,1134.4,1272.4,1132z"/>
<path style="fill:#0C0D57;" d="M1282.1,1140.1c-0.3,0.4-0.6,0.8-0.9,1.2c-0.9-0.8-1.9-1.7-2.7-2.6c-0.1-0.1,0.6-1.1,0.9-1.1
	C1280.7,1137.8,1281.6,1138.8,1282.1,1140.1z"/>
<path style="fill:#AE9591;" d="M1414.3,1890.8c3.2,3.6,7.5,5.6,11.6,7.9c11.9,7.3,23.4,15.4,35.8,21.9c1.5,2.2,3.7,3.3,6.2,3.9
	c12.4,9.4,26.1,16.6,38.9,25.3c1.1,0.7,2,1.6,3,2.4c-5.5-0.3-10.5,1.3-15.2,3.7c-9.4,4.7-11.5,13.7-5.3,22.3c1.2,1.6,2.6,3,4.1,4.4
	c15.8,15.6,34.9,25.8,55.2,34.1c-0.4,1.2-0.7,2.4-1.1,3.6c-1.7,0.1-3.4-0.2-5,0.2c-22.8,6-46.3,7.2-69.6,9.9
	c-11.5,1.3-22.8,4.2-33.8,7.8c-5,1.6-8.6,4.8-9.3,10.5c-0.6,5.7,2,9.4,6.9,12c3.5,1.9,6.7,4.5,10,6.8c-1.5,2.4-3.3,2.3-4.8,3
	c-6.2,3.3-7.6,7.6-4.8,14c1.5,3.5,4,5.9,7.3,7.9c8.6,5.4,18,8.2,27.8,9.9c0,1.1,0.1,2.3,0.1,3.4c-6.4,0.4-10.7,3.6-12.2,9.7
	c-1.5,6.4,1.9,10.4,7.4,13.6c6.7,3.9,14,5.7,21.4,7.6c6.8,1.8,6.7,2,5.4,9.4c-1.7,9.9,1.5,15.8,11,19.4c3.4,1.3,6.9,2.1,10.5,2.7
	c12.5,2.3,24.9,2.5,37.4-0.1c21.4-4.4,42.6-9.4,63.3-16.4c14.1-4.8,27.4-11.6,41.7-16.2c8.4-2.7,16.9-5.9,24.1-11.6
	c3,2.9,6.8,2.6,10.3,1.8c23-5.1,46-10.4,69-15.6c1.4,2,3.8,2.5,5.9,3.4c14.2,9.3,28.2,18.8,42.6,27.7c4.2,2.6,6,5.2,6.2,10.2
	c1.8,42.9,1.3,85.8,1.3,128.6c0,13.5-1.1,14.4-15.1,14.4c-39.9-0.1-79.9-0.3-119.8-0.5c-6.2-3-13-2.4-19.5-3
	c-33.1-3.2-66.3-5.8-99.4-8.8c-40.8-3.7-81.5-7.6-122.3-11.2c-26.9-2.4-53.7-4.4-80.6-6.7c-33.5-3-66.9-6.2-100.4-9.1
	c-27.2-2.4-54.4-4.5-81.6-6.8c-27.9-2.4-55.7-4.9-83.5-7.2c-6-0.5-12-0.6-18-0.9c-11.2-0.6-11.2-0.6-11.3-11.4c0-3,0-6,0-9
	c-0.3-112-0.6-223.9-1-335.9c-0.1-21.3-0.9-42.6-1.2-63.9c-0.1-4.1-1.2-7.9-1.9-11.8c39.1-0.1,78.2-0.2,117.3-0.3
	c4.3,0,8.6-0.3,12.9-0.5c3.9,0.8,7.8,0.8,11.7,0c23.6,2.1,47.2,1,70.8,0.9c4.5,0,8.2,0.6,12.1,3.1c37,23.5,74.1,46.8,111.3,70.1
	C1403.4,1884.5,1408.9,1887.6,1414.3,1890.8z"/>
<path style="fill:#D28A6C;" d="M1682.3,2123.9c-7.2,5.6-15.7,8.8-24.1,11.6c-14.2,4.6-27.6,11.4-41.7,16.2
	c-20.7,7-41.9,12-63.3,16.4c-12.5,2.6-24.9,2.3-37.4,0.1c-3.6-0.7-7.2-1.5-10.5-2.7c-9.5-3.5-12.8-9.5-11-19.4
	c1.3-7.4,1.4-7.6-5.4-9.4c-7.3-2-14.7-3.7-21.4-7.6c-5.5-3.2-8.9-7.2-7.4-13.6c1.5-6.1,5.8-9.4,12.2-9.7c4.2,1.5,8.5,1.3,12.8,0.9
	c27.7-2.3,54.2-9.9,80.7-17.4c0.9-0.3,1.9-0.7,2-2c-1.6-1.8-3.6-0.7-5.3-0.4c-30,5.8-59.8,12.3-90.3,15.5
	c-9.8-1.8-19.2-4.5-27.8-9.9c-3.2-2-5.7-4.4-7.3-7.9c-2.8-6.4-1.4-10.8,4.8-14c1.4-0.7,3.3-0.7,4.8-3c-3.3-2.2-6.4-4.8-10-6.8
	c-4.9-2.7-7.5-6.3-6.9-12c0.6-5.7,4.3-8.9,9.3-10.5c11-3.6,22.3-6.5,33.8-7.8c23.3-2.7,46.8-3.9,69.6-9.9c1.6-0.4,3.3-0.2,5-0.2
	c3.6,2.4,7.7,0.1,11.5,1c1.2,0.5,2.1,0.2,2.9-0.8c7.1-1.7,14.6-1.9,20.7-6.9c-11.5-0.2-22.8,0.6-34,3.1
	c-20.3-8.2-39.5-18.4-55.2-34.1c-1.4-1.4-2.9-2.8-4.1-4.4c-6.2-8.5-4.1-17.5,5.3-22.3c4.7-2.4,9.8-4.1,15.2-3.7
	c7.4,5.2,15.7,6,24.5,6.4c21.3,0.9,42.2,5.4,63.3,8.4c5.6,0.8,11.2,1.6,16.9,1.3c0,0,0.6,0.3,0.6,0.3l0.7-0.1
	c3.3,1.9,7.1,1.9,10.6,1.4c9.8-1.5,15.2,3.8,19.9,11.3c3.5,5.6,5.3,12.1,9.6,17.2c0,0-0.1-0.1-0.1-0.1c4.4,12.9,8.9,25.7,13.2,38.6
	C1678.5,2064.9,1683.3,2094,1682.3,2123.9z M1565.9,2054.2c-6.5,1.2-12.9,2.6-19.4,3.7c-6.2,1-12.5,1.7-18.8,2.5
	c-6.6,0.8-13.2,1.6-19.8,2.3c-6.6,0.7-13.2,1.3-19.9,1.9c-6.3,0.5-12.6,0.8-18.9,1.5c-6.2,0.7-12.9-1.9-19.3,2.1
	C1465.5,2076.7,1544.3,2067.9,1565.9,2054.2z M1585.9,2130.8c-3.1-1.9-4.7-1-6.3-0.7c-15.4,2.6-30.9,4.7-46.4,6.9
	c-9.6,1.3-19.3,0.9-28.9,1.8c-1.6,0.2-3.8,0.3-4,2.2c-0.2,2.7,2.3,2.8,4.2,2.9c12.7,1,25.3,0.1,37.8-1.9
	C1556.8,2139.6,1571,2136.6,1585.9,2130.8z"/>
<path style="fill:#1B23D1;" d="M1615.9,1968.3l-0.7,0.1c0,0-0.7-0.3-0.6-0.3c-1.2-5.5-3.1-10.8-3-16.6c0.1-4.3,1.3-7.6,4.8-10.3
	c23.6-17.9,47.8-34.9,73.4-49.9c27.3-15.9,53.9-33.2,82.6-46.5c3.9-1.8,5-3.9,4.3-8.5c-3.8-23.6-7.1-47.3-10.3-71
	c-3-22.2-2.7-44.5-2.7-66.8c0-28,2.2-55.8,8.3-83.2c1.4-6.2,3.1-12.2,4.9-18.3c0.5-1.7,0.8-4.1,4.5-4c-3.7,19-2.5,38.3-5,57.3
	c-0.5,3.6-0.4,7.3-0.4,11c-0.1,21.7-0.2,43.3-0.1,65c0.1,23,3.4,45.7,6.7,68.4c1.6,11.2,3.6,22.3,3.6,33.6c0,2.9-0.8,6,1.8,9.3
	c21.9-7.6,43.2-17.5,66.3-22.3c-30.1,15.9-61.6,29-91.2,45.9c-29.7,17-58.9,34.8-89.5,53.2c56.4,51.7,76.9,116.7,75,190.4
	c-3.2,1-3.6-1.7-4.4-3.8c-4.8-11.8-6.1-24.5-8-36.9c-3.5-22.7-7.6-45.2-16-66.7c-2.6-6.5-5.7-12.8-9.6-18.6c-1.6-2.5-3.1-3-5.6-1.1
	c-11.6,8.6-25.6,12.5-38.4,18.9c-3.5,1.7-7.1,1.7-10.7,1.4c0,0,0.1,0.1,0.1,0.1c-0.8-4.4,0.4-7.3,4.7-9.7
	c12.3-6.7,24.8-12.7,38.3-16.6c5.5-1.6,5.8-2.5,2.5-7.5c-4.2-6.3-8.5-12.7-13.2-18.7c-5.8-7.3-10.6-15.3-17.4-21.8
	c-3.7-3.6-6.6-4.3-11.1-1c-10.4,7.6-21.3,14.7-32,22c-8.8,5.9-8.9,5.9-6.4,15.9C1622.6,1965.6,1621.9,1968.7,1615.9,1968.3z"/>
<path style="fill:#1B23D1;" d="M1767.5,2113.5c-2.1-0.9-4.4-1.3-5.9-3.4c0.9-4.5,4.8-5,8.2-6.3c24.5-9.3,49.5-17.4,73.8-27.4
	c28.6-11.8,56.5-25.1,84-39.2c9.8-5,19.6-9.9,29.5-14.6c2.2-1.1,4.3-3.3,8-1.7c-4.7,5.9-10.7,9.8-16.6,13.8
	c-32.7,21.9-67.8,39.2-104.5,53.5c-22.9,9-46.2,16.7-70,22.9C1771.8,2111.6,1769.7,2112.6,1767.5,2113.5z"/>
<path style="fill:#1B23D1;" d="M1909.7,2368.2c-10.9,7.3-23.1,10.6-35.2,13.4c-32.3,7.5-65,13.6-97.9,17.8
	c-20.7,2.7-41.4,5.7-62.4,6.7c-6.6,0.3-13.1,2.2-19.8,1.7c-2-0.2-4,0-6-0.4c-1.7-0.3-3.3-1.2-3.6-3c-0.4-2.5,1.6-3.7,3.5-4
	c6.2-1,12.5-1.6,18.8-2.4c47.3-6.3,94.8-12.1,141.7-21c17.3-3.3,34.7-5.9,52-8.7C1903.7,2367.8,1906.7,2368.2,1909.7,2368.2z"/>
<path style="fill:#FEFEFE;" d="M859.9,1560.4c-0.7,1.9-0.5,3.7,0.4,5.5c1.7,22.9,4.9,45.6,8.7,68.2c8.2,48.9,20.9,96.7,36.6,143.8
	c3,9.1,4.8,18.6,7.2,28c-83.2-0.2-166.4-0.3-249.7-0.6c-11.6,0-23.3-0.9-34.9-1.3c31.5-112.7,60.8-226,91.5-338.9
	c1.9-6.8,4.8-11.4,11.3-14.9c26-14.1,51.8-28.4,76.9-44.1c0.5-0.3,1.3-0.2,2-0.3c1.3,2.3,2.4,4.8,3.8,7c5.6,8.6,11.1,9.4,18.8,2.8
	c1.2-1.1,2.3-2.4,3.5-3.5c0.6,0.2,1.2,0.3,1.9,0.4c3.3,9,8.1,17.4,13.3,25.4c10.8,16.4,17.5,34.7,25.5,52.4
	c-11.5,5.9-20,14.2-20.3,28C855.9,1532.4,857.4,1546.5,859.9,1560.4z"/>
<path style="fill:#F54A09;" d="M1391,943.8c20,0.8,35.9,14.6,38.7,33.5c2.7,18.6-9.4,37.8-27.4,43.6c-4.6,1.5-9.2,1.2-13.8,1.3
	c-0.7-2.9-2-5.7-2.1-8.6c-0.4-20.8-1.3-41.7,2-62.4C1388.8,948.7,1390.1,946.2,1391,943.8z"/>
<path style="fill:#F8F1E2;" d="M1392.7,734.3c14.6-63.5,52.2-107.5,112.7-131.2c25.7-10.1,52.5-11.5,79.3-3.2
	c7.3,2.3,14.4,5.2,20.7,9.7c-0.4,0.7-0.9,1.3-1.3,2c-84.5-27.5-176.8,20-205.8,111.6c-1.1,3.5-1.9,7.1-2.9,10.6
	C1394.5,734,1393.6,734.1,1392.7,734.3z"/>
<path style="fill:#3430C7;" d="M1641.9,1116.5c-3.8,1.6-6.2,4.9-9,7.8c-22.9,23.8-49.5,41.4-82.2,48.6c-31.2,6.9-60.9,2-88.6-14
	c-2.3-1.3-4.4-2.9-6.5-4.6c-0.7-0.5-0.9-1.6-1.3-2.4c1.6-2.9,3.5-1.4,5.2-0.6c2.4,1.1,4.8,2.4,7.1,3.6
	c40.7,20.7,80.8,18.4,120.5-2.8c14.2-7.6,26.8-17.4,38.6-28.2c5.9-5.4,12.2-10.3,18.3-15.5
	C1644.9,1111.6,1642.3,1113.8,1641.9,1116.5z"/>
<path style="fill:#D28A6C;" d="M1626,838c-8-0.1-13.6-4.2-18-10.6c-14.2-20.5-20.5-43.9-23.6-68.1c-1.6-12.1-1.7-24.5,3.1-38.4
	c0.6,7.9,1.1,13.8,1.6,19.7c3,33.9,14.7,64.6,34.5,92.2c1.1,1.6,2.8,3,2.3,5.3L1626,838z"/>
<path style="fill:#F8F1E2;" d="M1476.3,943.8c-14.3,3.8-28.4,4.5-41.8-3.1c14.8-0.1,23.1-8.3,27-23.1
	C1470.2,924.8,1474.6,933.5,1476.3,943.8z"/>
<path style="fill:#1B23D1;" d="M1685.5,1042.4c0.9-3,1.4-6.4,5.7-6.2c1,19.6,3.7,38.9,8.4,58c1.7,6.8,5.6,12.8,6.3,19.8l0.1-0.1
	c-4.9-2.2-7.1-6.7-9.1-11.2c-7.4-16.1-10.4-33.2-12.1-50.6C1684.5,1049,1685.2,1045.7,1685.5,1042.4z"/>
<path style="fill:#1B23D1;" d="M1626.2,635c-4.7,7.3-8.8,13.4-12.6,19.5c-8.5,13.6-15.7,27.8-19.8,43.4c-0.5,2-1,4.2-3.6,3.8
	c-2.6-0.4-2.4-2.9-2.2-4.8c0.2-2.6,0.5-5.4,1.3-7.8c6.1-17.8,14.8-34.1,27.6-48.1C1618.9,638.6,1620.8,635.6,1626.2,635z"/>
<path style="fill:#1B23D1;" d="M1701.3,885.1c-4.2,2.4-6.8-1.3-10-2.7c-10.8-17.3-19-35.6-22.3-56c-0.9-5.7-1.1-11.4,0-19.2
	c3.7,4.7,2.5,8.2,3.2,11.1c5.3,23.1,12.4,45.4,28.1,63.9C1700.9,883.1,1701,884.2,1701.3,885.1z"/>
<path style="fill:#1B23D1;" d="M1712,885.5c-1.1,0-2.1-0.1-3.1-0.1c-10.2-17.9-13.6-37.2-12.7-57.5c2.8,0.2,3,1.9,3.2,3.5
	c1.8,15.6,5.6,30.7,11.4,45.3C1711.9,879.6,1712.4,882.5,1712,885.5z"/>
<path style="fill:#1B23D1;" d="M1744.9,1134.9c-2.8,0.6-4.1-1.7-5.5-3.2c-8.4-8.7-13.8-19.3-17-30.9c-0.7-2.5-0.4-5.2-0.4-7.9
	c0-0.9,0.4-1.9,1.6-2.1c1.1-0.2,1.9,0.3,2.4,1.2c0.4,0.6,0.7,1.1,0.9,1.7c3.9,14.1,10.6,27,18.3,39.4
	C1745.5,1133.4,1745,1134.2,1744.9,1134.9z"/>
<path style="fill:#F8F1E2;" d="M1412.2,924c-4.5-0.5-5.1-4.7-7.3-7.4c-2-2.5-2.3-6.3-6-7.5c0.1-11.3,3.2-14.1,17-14.4
	C1410.1,904,1410.9,914,1412.2,924z"/>
<path style="fill:#1B23D1;" d="M1381.2,1134.6c0.1,18,0.8,35.8,4,53.4c0.3,1.8,0,3.5-2.1,3.7c-1.4,0.1-2.3-1.1-2.7-2.4
	c-0.3-1-0.5-1.9-0.6-2.9C1377,1169.1,1376.8,1151.8,1381.2,1134.6z"/>
<path style="fill:#D28A6C;" d="M1646,1123c5.2-15.8,11.5-31.1,20.5-45.1c1.2-1.9,2-4.3,5.5-5.9c-7.3,18.9-17.3,35.6-24,53.7
	C1647.7,1124.5,1647.1,1123.6,1646,1123z"/>
<path style="fill:#AE9591;" d="M1392.7,734.3c0.9-0.2,1.8-0.3,2.7-0.5c-1.5,8.3-2.9,16.6-4.5,25.9
	C1389.6,750.5,1390.4,742.3,1392.7,734.3z"/>
<path style="fill:#0C0D57;" d="M1647.9,1125.8c-0.4,3.5-1.6,6.7-4.4,9.3c0.1-4.2-0.1-8.4,2.4-12
	C1647.1,1123.6,1647.7,1124.5,1647.9,1125.8z"/>
<path style="fill:#AE9591;" d="M1293.7,976.9c1-4.5,3.8-7.7,7.4-10.4c-1.1,4.3-2.8,8.2-5.9,11.5
	C1294.4,978.1,1293.9,977.8,1293.7,976.9z"/>
<path style="fill:#AE9591;" d="M1605.4,609.6c2.6-0.2,3.9,1.7,5.5,3.4c-2.8,1.6-4.7-0.3-6.8-1.4
	C1604.5,610.9,1605,610.3,1605.4,609.6z"/>
<path style="fill:#F8F1E2;" d="M1416.2,930c-2.1-1.6-4.3-3-4.1-6.1C1414.6,925.1,1415.2,927.6,1416.2,930z"/>
<path style="fill:#AE9591;" d="M1305.9,958c-0.7,1.3-0.4,3.1-2,3.9l0.1,0.1C1304.7,960.7,1305.4,959.4,1305.9,958
	C1306,958,1305.9,958,1305.9,958z"/>
<polygon style="fill:#D28A6C;" points="1625.9,838.1 1626.3,838.3 1626,838 "/>
<polygon style="fill:#AE9591;" points="1306,958 1306.2,957.8 1305.9,958 "/>
<path style="fill:#AE9591;" d="M1304,961.9c-0.2,0.5-0.5,1.1-0.7,1.6c-1.3-1.4,0.2-1.2,0.8-1.4C1304.1,962.1,1304,961.9,1304,961.9z
	"/>
<polygon style="fill:#D28A6C;" points="1672.9,1069.6 1672.8,1068.9 1673.2,1069 "/>
<path style="fill:#1B23D1;" d="M1705.9,1114c0.2,0.1,0.5,0.2,0.7,0.3c-0.2-0.1-0.4-0.3-0.6-0.4C1706,1113.9,1705.9,1114,1705.9,1114
	z"/>
<path style="fill:#1B23D1;" d="M1203.9,1807.2c-3.9,0.7-7.8,0.8-11.7,0c-0.7-3,1.2-5,2.7-7.2c22-33,41.1-67.7,59.7-102.7
	c15-28.2,30.2-56.4,44.3-85c0.9-1.9,1.3-4.5,4.9-5c-2.6,15.4-7.5,29.8-13.5,43.8c-13.5,31.9-30.1,62.3-47,92.6
	c-11,19.8-22.5,39.3-35.3,58C1206.8,1803.5,1205.3,1805.3,1203.9,1807.2z"/>
<path style="fill:#1B23D1;" d="M1072.9,1483.7c9.8,10.8,15.7,21.8,21,33.2c13.8,29.9,23.2,61.6,36,91.9
	c6.6,15.6,13.2,31.2,19.8,46.8c1,2.4,2.2,4.9,2.1,7.6c-0.1,1.7-0.1,3.4-2,4.2c-2.3,0.9-3.8-0.6-4.9-2.3c-1.4-2.3-2.5-4.7-3.7-7
	c-10.7-20.7-20.4-41.9-28.8-63.6c-12.8-32.8-25-65.9-37.4-98.8C1073.9,1492.6,1072.2,1489.5,1072.9,1483.7z"/>
<path style="fill:#F8F1E2;" d="M1411.7,1253.6c29.2,20.3,62,31.6,96.5,38.4c24.5,4.8,49.3,7.1,74.3,5.8c33.9-1.7,66.7-7.6,95.9-26.4
	c2.4,10.2-0.3,19.8-3.6,29.2c-3.5,9.8-8.8,18.7-14.7,27.2c-7.8,11.2-16.1,22.1-25.2,32.3c-23.4,26.5-40.9,56.5-53.4,89.6
	c-12.9,34.3-22.6,69.6-34.7,104.2c-12.6,36.1-27.4,71.4-39,107.9c-18.5,58.3-38.2,116.3-52.8,175.9c-0.4,1.6-1.1,3.1-2.2,6.2
	c-3.5-16.3-4.6-31.2-6.6-46.1c-3.7-28.1-7.1-56.2-9-84.4c-3.1-45.3-2.7-90.6-0.3-135.8c1.1-21,4.3-42,2.8-62.9
	c-2.3-30.3,0-60.6-0.2-90.9c-0.1-14.3-1.1-28.7-4.2-42.7c-4.3-19.4-12.2-37.2-23.8-53.5C1394.6,1303.6,1394.7,1278.7,1411.7,1253.6z
	"/>
<path style="fill:#F54A09;" d="M1595.7,1003.5c-0.7-21.4,14.7-40.6,39.8-41c22.4-0.4,40.1,18.6,40.6,40.8
	c0.5,20-15.5,40.5-41.4,40.8C1614.7,1044.3,1593.5,1025.5,1595.7,1003.5z"/>
<path style="fill:#140830;" d="M1589.7,959.9c-6.2,1-12.4,2.2-18.7,2c-4.9-2.7-10.2-4.7-14.2-9c-4.1-4.4-5.2-10.3-7.9-16.3
	c-6,5.2-11.6,9.4-15.8,15c-3.4,0.5-6.5,0.7-4.3-4.4c0.4-0.9,1.1-1.7,1.7-2.4c20-21.8,44.2-35.2,74.5-34.5
	c14.1,0.3,26.6,5.5,36.2,16.5c2.9,3.3,3.8,6.3-1.2,8.5c-8.1-9.2-17.3-16.2-30.2-17.1c-1.2,3,0.3,5.5,0.4,8.1
	c0.9,12.4-4.3,21.9-14,29.2C1594.2,957.2,1591.9,958.5,1589.7,959.9z"/>
<path style="fill:#F8F1E2;" d="M1454,1076.1c-6.8-1.5-9.8-5-9.7-11.2c0.1-5.9,3.5-10.2,9.6-10.8c6.3-0.7,12.5-0.2,18.8,1.4
	c11.9,3,23.7,6.4,36.2,6.7c8.8,0.2,17.2-1,25.4-4.1c9.7-3.7,19.7-6.1,30.1-6.2c5.2,0,10.6,0.2,12.8,5.7c2.3,5.8,2.4,11.8-3.2,16.3
	c-6.5-0.6-12.3,1.9-18.2,4c-15,5.5-30.1,7.2-45.5,1.3c-4.6-1.8-9.5-3-14.3-4.1C1482,1072.1,1467.9,1071.2,1454,1076.1z"/>
<path style="fill:#F54A09;" d="M1454,1076.1c13.9-4.8,28-4,42-1c4.8,1,9.7,2.3,14.3,4.1c15.4,5.9,30.5,4.2,45.5-1.3
	c5.9-2.2,11.7-4.6,18.2-4c-0.5,4.9-4.1,7.4-7.7,9.9c-31.5,21.6-74.2,23-106.6,0.7C1456.8,1082.4,1452.9,1080.9,1454,1076.1z"/>
<path style="fill:#3430C7;" d="M1492.9,1014.7c-3,4.4-6.3,4.1-9.7,3.8c-15.4-1.5-24.6-16-18.7-30.4c4.3-10.5,9.5-20.5,14.5-30.7
	c6.9-13.8,12.1-28,14.8-43.3c0.6-3.4,0.7-9.3,4.7-8.6c5.7,1,2,6.4,1.7,9.9c-1.4,17.6-8.6,33.3-16.2,48.9
	c-4.1,8.4-8.5,16.6-12.3,25.1c-4.2,9.2-2.1,15,6.5,20.1C1482.6,1012.2,1487.2,1013.8,1492.9,1014.7z"/>
<path style="fill:#F8F1E2;" d="M1589.7,959.9c2.2-1.4,4.5-2.8,6.6-4.3c9.7-7.3,14.8-16.8,14-29.2c-0.2-2.5-1.6-5-0.4-8.1
	c12.9,0.9,22.1,8,30.2,17.1c-4.3,6.6-10.8,10.6-17.6,14C1612.1,954.7,1601.4,958.8,1589.7,959.9z"/>
<path style="fill:#3430C7;" d="M1735.1,927c4.2-2.3,6.9,0.7,9.4,3.1c8,7.9,12.3,17.5,10.9,28.7c-2.4,20.2-12.8,35.9-28.7,48.1
	c-0.7,0.5-1.8,0.4-4.3,1c2.7-3.9,4.6-6.7,6.6-9.4c6.6-9.1,13.4-18.2,16.9-29.1c4.6-14.4,3.2-27.5-8.8-38.1
	C1735.8,930.2,1734.6,929.1,1735.1,927z"/>
<path style="fill:#F8F1E2;" d="M1533.1,951.7c4.2-5.6,9.8-9.8,15.8-15c2.7,6,3.8,11.9,7.9,16.3c4,4.3,9.3,6.2,14.2,9
	c-8.7,0.4-17.3,0.5-25.7-2.1C1540.5,958.3,1535.9,956.3,1533.1,951.7z"/>
<path style="fill:#3430C7;" d="M837.8,1412.4c-0.6-0.1-1.2-0.2-1.9-0.4c-0.7-3.4,0.1-6.5,1.3-9.7c2.6-7.2,4.6-14.6,7.3-21.8
	c1.7-4.6,1.6-8.9,0.3-13.6c-4.2-15.8-6.4-32-8.3-48.2c-0.5-3.8-1-7.8,1-12.4c4.3,2.3,3.8,6.2,4.1,9.5c2,18.9,5.7,37.5,10.6,55.8
	c3,11.3,6.6,22.4,13.4,32.1c3.3,4.7,6.9,9,11.9,11.9c8.8,5,16.6,1.9,19.5-7.9c1.5-4.9,0.9-9.9,0.1-14.9
	c-2.5-14.5-7.7-28.2-12.4-42.1c-4.4-13.3-8.1-26.7-10-40.7c-0.8-5.6-0.9-11.2,0-16.8c3.6-0.4,2.9,2.2,3.1,3.9
	c3.6,25.9,10.6,50.8,22.1,74.3c4.5,9.1,10.7,16.9,19.1,22.7c1.6,1.1,3.3,2.2,5.1,3.2c13.1,7.1,20.5,2.5,19.9-12.6
	c-0.5-13-5.7-24.6-11.6-35.8c-8.4-16.1-15-32.7-17.7-50.7c-1.1-7.5-1.6-14.9,0.1-22.5c3.6,5.4,4,11.7,4.8,17.7
	c3.1,22.5,13.1,41.7,26.9,59.3c5,6.4,11,11.6,18.5,15c8.2,3.7,12.7,0.6,13.1-8.4c0.3-6.8-1.4-13.2-2.9-19.7
	c-4-16.9-9-33.4-14.6-49.8c-1-3-3.5-5.9-1.6-9.5c7.4,8.4,10.1,19.3,15.4,28.8c2.7,11,5.6,21.9,8.1,32.9c1.2,5.2,2.1,10.5,2.3,15.8
	c0.7,14.7-9.7,21.6-22.8,15.1c-4.4-2.2-8.5-5-12.7-7.5c-2.5,2.9-1.2,5.5-0.6,7.8c1.7,6.2,1.9,12.5,1.3,18.8
	c-1.2,11.7-10,17.5-21.2,14.2c-6.6-1.9-12-5.7-17.1-10c-2.2-1.9-4.3-3.8-7.7-6.9c0,5.2,0.1,8.7,0,12.2c-0.3,8.8-2.7,16.8-11.3,20.7
	c-9,4.2-17,0.6-23.8-5.5c-7.4-6.5-12.1-15-15.9-24c-0.6-1.5-1.4-3-2.6-5.7C845.5,1396.2,844.4,1405.8,837.8,1412.4z M947.5,1363.3
	c-0.1-0.2-0.3-0.4-0.4-0.6c-0.2,0.2-0.5,0.3-0.5,0.5c0,0.2,0.2,0.4,0.4,0.6C947.1,1363.6,947.3,1363.5,947.5,1363.3z"/>
<path style="fill:#080A55;" d="M859.9,1560.4c-2.5-14-4-28-3.6-42.2c0.4-13.8,8.8-22.1,20.3-28c12.2,0.9,23.8-1.8,35.3-5.4
	c33.1-10.5,65-23.7,95.2-40.8c2.3-1.3,4.7-2.4,7.1-3.5c-0.3,2.8,0.5,5.3,2.1,7.6c8.7,12.7,10.3,28,15.4,41.9
	c1.4,3.8-0.5,6.2-3.7,8.2c-12.1,7.7-24.6,14.6-37.6,20.6c-26.6,12.3-53.8,22.9-81.8,31.6C892.6,1555.3,876.5,1559.1,859.9,1560.4z"
	/>
<path style="fill:#1B23D1;" d="M1057.9,1456.9c-0.1,4.8-4.3,9-8.9,8.8c-4.8-0.2-9.4-6.4-9.2-12.4c0.2-5.7,3.4-9.5,8.1-9.4
	C1053.1,1444,1058.1,1450.5,1057.9,1456.9z"/>
<path style="fill:#3430C7;" d="M1472.3,2102.2c30.4-3.2,60.3-9.8,90.3-15.5c1.7-0.3,3.7-1.4,5.3,0.4c-0.1,1.3-1.1,1.8-2,2
	c-26.5,7.5-53,15.1-80.7,17.4c-4.3,0.4-8.6,0.6-12.8-0.9C1472.3,2104.5,1472.3,2103.4,1472.3,2102.2z"/>
<path style="fill:#3430C7;" d="M1559,2021.1c-3.8-1-7.8,1.4-11.5-1c0.3-1.2,0.7-2.4,1-3.6c11.2-2.4,22.5-3.2,34-3.1
	c-6.1,4.9-13.7,5.1-20.7,6.9C1561,2020.5,1560,2020.8,1559,2021.1z"/>
<path style="fill:#080A55;" d="M1615.9,1968.3c5.9,0.5,6.6-2.6,5.4-7.5c-2.5-10-2.4-9.9,6.4-15.9c10.7-7.2,21.6-14.3,32-22
	c4.5-3.3,7.4-2.6,11.1,1c6.7,6.5,11.6,14.5,17.4,21.8c4.7,6,9,12.3,13.2,18.7c3.3,5,3,5.9-2.5,7.5c-13.5,3.9-26,9.9-38.3,16.6
	c-4.3,2.4-5.5,5.3-4.7,9.7c-4.3-5.1-6.1-11.6-9.6-17.2c-4.6-7.5-10.1-12.8-19.9-11.3C1623.1,1970.2,1619.3,1970.2,1615.9,1968.3z
	 M1676.2,1954.7c-0.1-7.1-5-12.9-11.1-12.9c-5.5,0-9.5,5.1-9.2,11.8c0.3,6.5,5.2,12.2,10.7,12.3
	C1672.6,1966.1,1676.3,1961.8,1676.2,1954.7z"/>
<path style="fill:#3430C7;" d="M1565.9,2054.2c-21.6,13.6-100.4,22.5-116.2,14c6.4-3.9,13.1-1.4,19.3-2.1c6.3-0.7,12.6-0.9,18.9-1.5
	c6.6-0.6,13.3-1.2,19.9-1.9c6.6-0.7,13.2-1.5,19.8-2.3c6.3-0.8,12.6-1.5,18.8-2.5C1553,2056.9,1559.5,2055.5,1565.9,2054.2z"/>
<path style="fill:#3430C7;" d="M1585.9,2130.8c-14.9,5.9-29.1,8.8-43.5,11.1c-12.6,2-25.1,2.9-37.8,1.9c-2-0.2-4.4-0.3-4.2-2.9
	c0.1-1.9,2.3-2,4-2.2c9.6-0.9,19.3-0.5,28.9-1.8c15.5-2.1,31-4.2,46.4-6.9C1581.2,2129.8,1582.8,2128.9,1585.9,2130.8z"/>
<path style="fill:#AE9591;" d="M1559,2021.1c1-0.3,1.9-0.6,2.9-0.8C1561.2,2021.2,1560.2,2021.5,1559,2021.1z"/>
<path style="fill:#D28A6C;" d="M947.5,1363.3c-0.2,0.2-0.4,0.3-0.6,0.5c-0.1-0.2-0.4-0.4-0.4-0.6c0-0.2,0.3-0.3,0.5-0.5
	C947.2,1362.9,947.4,1363.1,947.5,1363.3z"/>
<path style="fill:#1B23D1;" d="M1676.2,1954.7c0.1,7.1-3.6,11.4-9.6,11.3c-5.5-0.1-10.4-5.8-10.7-12.3c-0.3-6.7,3.7-11.8,9.2-11.8
	C1671.2,1941.9,1676.1,1947.6,1676.2,1954.7z"/>
</svg>
