<svg width="524" height="102" viewBox="0 0 524 102" fill="none" xmlns="http://www.w3.org/2000/svg">
<path d="M44.6002 0H524L489.97 93.4976H10.5699L44.6002 0Z" fill="#4E9BFF"/>
<rect width="481.714" height="101.423" transform="matrix(1 0 -0.34202 0.939693 34.689 5.93555)" fill="#F3F0E0"/>
<rect width="479.4" height="99.4981" transform="matrix(1 0 -0.34202 0.939693 34.0304 7.74463)" fill="#E50000"/>
<path d="M41.9641 73.8296L55.1319 37.6514H73.6669C77.2602 37.6514 80.1579 38.2027 82.3599 39.3053C84.5986 40.4079 86.0568 41.9928 86.7343 44.0601C87.4244 46.093 87.2616 48.5049 86.2458 51.2958C85.23 54.0866 83.6371 56.4985 81.4672 58.5314C79.3098 60.5298 76.7168 62.0631 73.688 63.1312C70.6959 64.1993 67.4032 64.7334 63.8099 64.7334H52.4799L60.0795 59.7201L54.9441 73.8296H41.9641ZM65.0091 73.8296L60.3459 60.6504H74.0959L78.8691 73.8296H65.0091ZM59.5905 61.0639L55.8282 55.5338H66.3332C68.1299 55.5338 69.5879 55.1548 70.7071 54.3967C71.863 53.6387 72.6792 52.6051 73.1558 51.2958C73.6323 49.9865 73.5685 48.9528 72.9644 48.1948C72.397 47.4368 71.2149 47.0577 69.4183 47.0577H58.9133L66.7011 41.5277L59.5905 61.0639ZM103.102 51.089H120.262L117.065 59.8752H99.9046L103.102 51.089ZM99.0539 64.63H118.304L114.956 73.8296H82.9456L96.1133 37.6514H127.408L124.06 46.851H105.525L99.0539 64.63ZM119.952 73.8296L133.12 37.6514H151.655C155.249 37.6514 158.146 38.2027 160.348 39.3053C162.587 40.4079 164.045 41.9928 164.723 44.0601C165.413 46.093 165.25 48.5049 164.234 51.2958C163.218 54.0866 161.625 56.4985 159.455 58.5314C157.286 60.5643 154.674 62.1492 151.62 63.2862C148.615 64.3888 145.316 64.9401 141.723 64.9401H130.393L138.068 59.7201L132.932 73.8296H119.952ZM137.579 61.0639L133.817 55.5338H144.322C146.118 55.5338 147.576 55.1548 148.695 54.3967C149.851 53.6387 150.667 52.6051 151.144 51.2958C151.621 49.9865 151.557 48.9528 150.953 48.1948C150.385 47.4368 149.203 47.0577 147.407 47.0577H136.902L144.689 41.5277L137.579 61.0639ZM196.925 74.6565C193.845 74.6565 191.148 74.2086 188.834 73.3128C186.569 72.3825 184.772 71.0732 183.443 69.3848C182.151 67.6965 181.394 65.6981 181.171 63.3896C180.947 61.0811 181.344 58.5314 182.36 55.7405C183.375 52.9496 184.835 50.3999 186.739 48.0914C188.642 45.7829 190.855 43.7845 193.376 42.0962C195.934 40.4079 198.677 39.1158 201.607 38.2199C204.585 37.2896 207.614 36.8245 210.694 36.8245C214.471 36.8245 217.582 37.4447 220.027 38.6851C222.509 39.9255 224.277 41.7172 225.331 44.0601L214.634 50.934C213.986 49.5902 213.098 48.5566 211.968 47.833C210.887 47.075 209.485 46.696 207.762 46.696C206.405 46.696 205.101 46.9027 203.851 47.3162C202.6 47.7296 201.427 48.3326 200.332 49.1251C199.274 49.9175 198.318 50.8823 197.464 52.0193C196.623 53.1219 195.951 54.3623 195.45 55.7405C194.948 57.1187 194.71 58.3763 194.736 59.5134C194.775 60.6159 195.035 61.5635 195.517 62.3559C196.035 63.1484 196.769 63.7514 197.718 64.1648C198.668 64.5783 199.821 64.785 201.178 64.785C202.901 64.785 204.573 64.4233 206.193 63.6997C207.862 62.9417 209.509 61.8908 211.135 60.547L216.828 67.4209C214.081 69.7294 211.009 71.5211 207.612 72.7959C204.264 74.0363 200.701 74.6565 196.925 74.6565ZM237.322 74.6565C234.205 74.6565 231.478 74.1914 229.14 73.2611C226.838 72.3308 225.023 71.0215 223.694 69.3332C222.378 67.6104 221.59 65.5947 221.33 63.2862C221.107 60.9777 221.491 58.4625 222.482 55.7405C223.485 52.9841 224.932 50.4688 226.823 48.1948C228.763 45.8863 231.012 43.8878 233.57 42.1995C236.141 40.4768 238.915 39.1502 241.894 38.2199C244.909 37.2896 247.975 36.8245 251.091 36.8245C254.245 36.8245 256.972 37.2896 259.274 38.2199C261.575 39.1502 263.384 40.4768 264.7 42.1995C266.029 43.8878 266.805 45.8863 267.028 48.1948C267.3 50.4688 266.935 52.9841 265.932 55.7405C264.941 58.4625 263.475 60.9777 261.535 63.2862C259.632 65.5947 257.395 67.6104 254.824 69.3332C252.266 71.0215 249.498 72.3308 246.52 73.2611C243.541 74.1914 240.475 74.6565 237.322 74.6565ZM240.915 64.785C242.125 64.785 243.318 64.5783 244.495 64.1648C245.709 63.7514 246.839 63.1656 247.885 62.4076C248.98 61.6151 249.948 60.6676 250.79 59.5651C251.643 58.428 252.327 57.1532 252.842 55.7405C253.356 54.3278 253.594 53.0702 253.555 51.9676C253.529 50.8306 253.25 49.8831 252.719 49.1251C252.238 48.3326 251.541 47.7296 250.628 47.3162C249.752 46.9027 248.709 46.696 247.499 46.696C246.289 46.696 245.077 46.9027 243.863 47.3162C242.686 47.7296 241.55 48.3326 240.454 49.1251C239.409 49.8831 238.459 50.8306 237.605 51.9676C236.764 53.0702 236.086 54.3278 235.572 55.7405C235.057 57.1532 234.813 58.428 234.84 59.5651C234.878 60.6676 235.138 61.6151 235.62 62.4076C236.151 63.1656 236.854 63.7514 237.73 64.1648C238.643 64.5783 239.705 64.785 240.915 64.785ZM264.059 73.8296L277.227 37.6514H287.897L299.463 59.6684H294.513L302.527 37.6514H315.177L302.009 73.8296H291.339L279.772 51.8126H284.722L276.709 73.8296H264.059ZM308.263 73.8296L321.431 37.6514H332.101L343.667 59.6684H338.717L346.731 37.6514H359.381L346.213 73.8296H335.543L323.976 51.8126H328.926L320.913 73.8296H308.263ZM372.624 51.089H389.784L386.586 59.8752H369.426L372.624 51.089ZM368.575 64.63H387.825L384.477 73.8296H352.467L365.635 37.6514H396.93L393.581 46.851H375.046L368.575 64.63ZM409.083 74.6565C406.003 74.6565 403.306 74.2086 400.992 73.3128C398.727 72.3825 396.93 71.0732 395.602 69.3848C394.309 67.6965 393.552 65.6981 393.329 63.3896C393.106 61.0811 393.502 58.5314 394.518 55.7405C395.534 52.9496 396.993 50.3999 398.897 48.0914C400.8 45.7829 403.013 43.7845 405.534 42.0962C408.092 40.4079 410.835 39.1158 413.765 38.2199C416.743 37.2896 419.773 36.8245 422.853 36.8245C426.629 36.8245 429.74 37.4447 432.185 38.6851C434.667 39.9255 436.435 41.7172 437.489 44.0601L426.792 50.934C426.145 49.5902 425.256 48.5566 424.126 47.833C423.045 47.075 421.643 46.696 419.92 46.696C418.563 46.696 417.259 46.9027 416.009 47.3162C414.758 47.7296 413.586 48.3326 412.491 49.1251C411.432 49.9175 410.476 50.8823 409.622 52.0193C408.781 53.1219 408.109 54.3623 407.608 55.7405C407.106 57.1187 406.868 58.3763 406.895 59.5134C406.933 60.6159 407.193 61.5635 407.675 62.3559C408.193 63.1484 408.927 63.7514 409.877 64.1648C410.826 64.5783 411.979 64.785 413.336 64.785C415.059 64.785 416.731 64.4233 418.351 63.6997C420.02 62.9417 421.668 61.8908 423.293 60.547L428.986 67.4209C426.24 69.7294 423.167 71.5211 419.77 72.7959C416.422 74.0363 412.86 74.6565 409.083 74.6565ZM438.493 73.8296L448.218 47.1094H436.943L440.386 37.6514H475.916L472.473 47.1094H461.198L451.473 73.8296H438.493Z" fill="#4E9BFF"/>
<path d="M40.1552 74.7344L53.3229 38.5562H71.8579C75.4513 38.5562 78.3489 39.1075 80.551 40.2101C82.7897 41.3126 84.2478 42.8976 84.9253 44.9649C85.6154 46.9978 85.4526 49.4097 84.4368 52.2005C83.421 54.9914 81.8281 57.4033 79.6582 59.4362C77.5009 61.4346 74.9078 62.9679 71.8791 64.036C68.887 65.1041 65.5942 65.6381 62.0009 65.6381H50.6709L58.2706 60.6249L53.1352 74.7344H40.1552ZM63.2002 74.7344L58.537 61.5552H72.287L77.0602 74.7344H63.2002ZM57.7815 61.9686L54.0193 56.4386H64.5243C66.321 56.4386 67.7789 56.0595 68.8981 55.3015C70.054 54.5435 70.8702 53.5098 71.3468 52.2005C71.8233 50.8912 71.7596 49.8576 71.1555 49.0996C70.588 48.3415 69.406 47.9625 67.6093 47.9625H57.1043L64.8921 42.4324L57.7815 61.9686ZM101.293 51.9938H118.453L115.256 60.7799H98.0956L101.293 51.9938ZM97.245 65.5348H116.495L113.147 74.7344H81.1366L94.3044 38.5562H125.599L122.251 47.7558H103.716L97.245 65.5348ZM118.143 74.7344L131.311 38.5562H149.846C153.44 38.5562 156.337 39.1075 158.539 40.2101C160.778 41.3126 162.236 42.8976 162.914 44.9649C163.604 46.9978 163.441 49.4097 162.425 52.2005C161.409 54.9914 159.816 57.4033 157.647 59.4362C155.477 61.469 152.865 63.054 149.811 64.191C146.806 65.2936 143.507 65.8449 139.914 65.8449H128.584L136.259 60.6249L131.123 74.7344H118.143ZM135.77 61.9686L132.008 56.4386H142.513C144.309 56.4386 145.767 56.0595 146.886 55.3015C148.042 54.5435 148.859 53.5098 149.335 52.2005C149.812 50.8912 149.748 49.8576 149.144 49.0996C148.576 48.3415 147.394 47.9625 145.598 47.9625H135.093L142.88 42.4324L135.77 61.9686ZM195.116 75.5613C192.036 75.5613 189.339 75.1134 187.025 74.2175C184.76 73.2872 182.963 71.9779 181.634 70.2896C180.342 68.6013 179.585 66.6029 179.362 64.2944C179.138 61.9859 179.535 59.4362 180.551 56.6453C181.566 53.8544 183.026 51.3047 184.93 48.9962C186.833 46.6877 189.046 44.6893 191.567 43.001C194.125 41.3126 196.868 40.0206 199.798 39.1247C202.776 38.1944 205.805 37.7293 208.885 37.7293C212.662 37.7293 215.773 38.3495 218.218 39.5899C220.7 40.8303 222.468 42.6219 223.522 44.9649L212.825 51.8388C212.177 50.495 211.289 49.4613 210.159 48.7378C209.078 47.9798 207.676 47.6007 205.953 47.6007C204.596 47.6007 203.292 47.8075 202.042 48.2209C200.791 48.6344 199.619 49.2374 198.523 50.0299C197.465 50.8223 196.509 51.7871 195.655 52.9241C194.814 54.0267 194.142 55.2671 193.641 56.6453C193.139 58.0235 192.901 59.2811 192.927 60.4182C192.966 61.5207 193.226 62.4683 193.708 63.2607C194.226 64.0532 194.96 64.6562 195.909 65.0696C196.859 65.4831 198.012 65.6898 199.369 65.6898C201.092 65.6898 202.764 65.328 204.384 64.6045C206.053 63.8465 207.7 62.7956 209.326 61.4518L215.019 68.3257C212.272 70.6342 209.2 72.4259 205.803 73.7007C202.455 74.9411 198.892 75.5613 195.116 75.5613ZM235.513 75.5613C232.396 75.5613 229.669 75.0962 227.331 74.1659C225.029 73.2356 223.214 71.9263 221.885 70.2379C220.569 68.5152 219.781 66.4995 219.521 64.191C219.298 61.8825 219.682 59.3673 220.673 56.6453C221.676 53.8889 223.123 51.3736 225.014 49.0996C226.954 46.791 229.203 44.7926 231.761 43.1043C234.332 41.3815 237.106 40.055 240.085 39.1247C243.1 38.1944 246.166 37.7293 249.283 37.7293C252.436 37.7293 255.163 38.1944 257.465 39.1247C259.766 40.055 261.575 41.3815 262.891 43.1043C264.22 44.7926 264.996 46.791 265.219 49.0996C265.491 51.3736 265.126 53.8889 264.123 56.6453C263.132 59.3673 261.666 61.8825 259.726 64.191C257.823 66.4995 255.586 68.5152 253.015 70.2379C250.458 71.9263 247.689 73.2356 244.711 74.1659C241.732 75.0962 238.666 75.5613 235.513 75.5613ZM239.106 65.6898C240.316 65.6898 241.509 65.4831 242.686 65.0696C243.9 64.6562 245.03 64.0704 246.076 63.3124C247.171 62.5199 248.139 61.5724 248.981 60.4698C249.834 59.3328 250.519 58.058 251.033 56.6453C251.547 55.2326 251.785 53.975 251.746 52.8724C251.72 51.7354 251.441 50.7879 250.91 50.0299C250.429 49.2374 249.732 48.6344 248.819 48.2209C247.943 47.8075 246.9 47.6007 245.69 47.6007C244.48 47.6007 243.268 47.8075 242.054 48.2209C240.877 48.6344 239.741 49.2374 238.645 50.0299C237.6 50.7879 236.65 51.7354 235.796 52.8724C234.955 53.975 234.277 55.2326 233.763 56.6453C233.249 58.058 233.004 59.3328 233.031 60.4698C233.069 61.5724 233.329 62.5199 233.811 63.3124C234.342 64.0704 235.045 64.6562 235.921 65.0696C236.834 65.4831 237.896 65.6898 239.106 65.6898ZM262.25 74.7344L275.418 38.5562H286.088L297.654 60.5732H292.704L300.718 38.5562H313.368L300.2 74.7344H289.53L277.963 52.7174H282.913L274.9 74.7344H262.25ZM306.454 74.7344L319.622 38.5562H330.292L341.858 60.5732H336.908L344.922 38.5562H357.572L344.404 74.7344H333.734L322.168 52.7174H327.118L319.104 74.7344H306.454ZM370.815 51.9938H387.975L384.777 60.7799H367.617L370.815 51.9938ZM366.766 65.5348H386.016L382.668 74.7344H350.658L363.826 38.5562H395.121L391.772 47.7558H373.237L366.766 65.5348ZM407.274 75.5613C404.194 75.5613 401.497 75.1134 399.183 74.2175C396.918 73.2872 395.122 71.9779 393.793 70.2896C392.501 68.6013 391.743 66.6029 391.52 64.2944C391.297 61.9859 391.693 59.4362 392.709 56.6453C393.725 53.8544 395.184 51.3047 397.088 48.9962C398.991 46.6877 401.204 44.6893 403.725 43.001C406.283 41.3126 409.026 40.0206 411.956 39.1247C414.934 38.1944 417.964 37.7293 421.044 37.7293C424.82 37.7293 427.931 38.3495 430.376 39.5899C432.858 40.8303 434.626 42.6219 435.68 44.9649L424.983 51.8388C424.336 50.495 423.447 49.4613 422.317 48.7378C421.236 47.9798 419.834 47.6007 418.111 47.6007C416.754 47.6007 415.451 47.8075 414.2 48.2209C412.95 48.6344 411.777 49.2374 410.682 50.0299C409.623 50.8223 408.667 51.7871 407.813 52.9241C406.972 54.0267 406.3 55.2671 405.799 56.6453C405.297 58.0235 405.059 59.2811 405.086 60.4182C405.124 61.5207 405.384 62.4683 405.866 63.2607C406.384 64.0532 407.118 64.6562 408.068 65.0696C409.017 65.4831 410.17 65.6898 411.527 65.6898C413.25 65.6898 414.922 65.328 416.542 64.6045C418.211 63.8465 419.859 62.7956 421.484 61.4518L427.177 68.3257C424.431 70.6342 421.358 72.4259 417.961 73.7007C414.613 74.9411 411.051 75.5613 407.274 75.5613ZM436.684 74.7344L446.409 48.0142H435.134L438.577 38.5562H474.107L470.664 48.0142H459.389L449.664 74.7344H436.684Z" fill="#F3F0E0"/>
</svg>
