<svg width="229" height="198" viewBox="0 0 229 198" fill="none" xmlns="http://www.w3.org/2000/svg">
<path d="M179.569 122.257C173.569 118.257 154.354 98.7042 133.614 79.0229C117.959 64.1672 105.996 42.9661 101.071 33.4626C105.733 44.898 109.083 66.8212 94.743 87.3851C77.917 111.514 68.0691 114.257 49.5691 118.257L58.5691 120.257C58.5691 120.257 71.7997 123.18 86.7116 127.497C101.623 131.814 115.128 137.073 127.499 142.155C151.832 152.15 161.525 156.789 167.48 160.023C173.435 163.257 195.801 164.756 198.935 150.756C202.069 136.757 185.569 126.257 179.569 122.257Z" fill="white"/>
<path d="M49.5691 118.257C68.0691 114.257 77.917 111.514 94.743 87.3851C109.083 66.8212 105.733 44.898 101.071 33.4626C99.4713 30.3756 98.614 28.5229 98.614 28.5229C78.569 1.2565 44.0399 21.0383 28.2178 47.2908C12.3956 73.5433 12.0691 117.257 49.5691 118.257Z" fill="#4760FF"/>
<path d="M98.614 28.5229C78.569 1.2565 44.0399 21.0383 28.2178 47.2908C12.3956 73.5433 12.0691 117.257 49.5691 118.257M98.614 28.5229C99.4156 29.8132 100.263 31.4804 101.071 33.4626M98.614 28.5229C98.614 28.5229 99.4713 30.3756 101.071 33.4626M179.569 122.257C173.569 118.257 154.354 98.7042 133.614 79.0229C117.959 64.1672 105.996 42.9661 101.071 33.4626M179.569 122.257C185.569 126.257 202.069 136.757 198.935 150.756C195.801 164.756 173.435 163.257 167.48 160.023M179.569 122.257C179.569 122.257 188.768 136.759 186.069 145.757C183.069 155.757 167.48 160.023 167.48 160.023M167.48 160.023C161.525 156.789 151.832 152.15 127.499 142.155C115.128 137.073 101.623 131.814 86.7116 127.497C71.7997 123.18 58.5691 120.257 58.5691 120.257L49.5691 118.257M49.5691 118.257C68.0691 114.257 77.917 111.514 94.743 87.3851C109.083 66.8212 105.733 44.898 101.071 33.4626" stroke="black"/>
<path d="M115.699 136.258C115.699 136.258 122.508 134.349 124.222 131.298L140.316 140.341C145.831 143.079 151.095 145.65 156.042 149.179C157.55 150.253 159.094 150.893 154.71 153.591C158.77 157.593 146.137 152.633 141.176 160.325C138.581 164.348 133.709 181.87 128.929 182.119C126.199 182.262 121.397 175.68 120.863 172.999C120.405 170.701 125.791 168.312 125.517 164.717C125.243 161.121 128.539 162.4 128.074 158.124C127.842 155.989 129.735 156.19 131.885 153.383C133.429 151.369 134.125 151.669 132.973 149.406L132.91 149.283C131.337 146.192 131.311 146.141 128.776 143.607C126.418 141.25 115.699 136.258 115.699 136.258Z" fill="#9F9F9F"/>
<path d="M124.222 131.298C122.508 134.349 115.699 136.258 115.699 136.258C115.699 136.258 126.418 141.25 128.776 143.607C131.344 146.174 131.337 146.193 132.973 149.406C134.125 151.669 133.429 151.369 131.885 153.383C129.735 156.19 127.842 155.989 128.074 158.124C128.539 162.4 125.243 161.121 125.517 164.717C125.791 168.312 120.405 170.701 120.863 172.999C121.397 175.68 126.199 182.262 128.929 182.119C133.709 181.87 138.581 164.348 141.176 160.325C146.137 152.633 158.77 157.593 154.71 153.591C159.094 150.893 157.55 150.253 156.042 149.179M124.222 131.298C135.704 139.105 146.465 142.349 156.042 149.179M124.222 131.298C136.649 138.281 156.042 149.179 156.042 149.179M124.222 131.298L131.226 139.248L134.933 145.919M137.469 153.653C137.469 153.653 134.063 156.562 132.732 159.021C131.492 161.312 131.87 163.023 130.855 165.422C129.867 167.76 127.671 171.089 127.671 171.089" stroke="black"/>
<path d="M131.614 147.523C131.907 145.863 130.385 140.201 131.114 142.023C133.114 147.023 136.114 151.023 136.114 151.023C136.114 151.023 127.702 154.141 129.114 152.023C130.114 150.523 131.321 149.183 131.614 147.523Z" fill="#FF87E9" stroke="black"/>
<path d="M87.1298 19.7476C95.5143 24.8009 100.104 34.4706 100.672 46.1173C101.239 57.7601 97.7765 71.3191 90.1234 84.0172C82.4703 96.7154 72.0985 106.11 61.539 111.047C50.976 115.985 40.2819 116.444 31.8974 111.39C23.513 106.337 18.9229 96.6673 18.3556 85.0207C17.7886 73.3779 21.2508 59.8189 28.9039 47.1207C36.557 34.4226 46.9288 25.0279 57.4883 20.091C68.0513 15.1525 78.7454 14.6944 87.1298 19.7476Z" fill="#D9D9D9" stroke="black"/>
<path d="M72.1141 59.023L95.114 73.0229M61.114 76.023L84.114 92.0229C84.114 92.0229 88.4169 86.7605 90.614 83.0229C92.6943 79.484 95.114 73.5229 95.114 73.5229" stroke="black"/>
<path d="M71.8901 58.6861C72.7616 59.2703 73.1561 60.6745 72.8227 62.7463C72.4968 64.7713 71.4955 67.2419 69.8757 69.6587C68.2558 72.0755 66.3512 73.9408 64.602 75.0119C62.8125 76.1077 61.3637 76.2764 60.4921 75.6924C59.6205 75.1083 59.2252 73.7037 59.5587 71.6317C59.8846 69.6067 60.8868 67.1366 62.5066 64.7198C64.1263 62.3031 66.0302 60.4373 67.7794 59.3661C69.5691 58.2702 71.0186 58.102 71.8901 58.6861Z" fill="#4760FF" stroke="black"/>
</svg>
