<svg width="911" height="92" viewBox="0 0 911 92" fill="none" xmlns="http://www.w3.org/2000/svg">
<path d="M-4.00543e-05 90.368V0.768036H33.536C41.1306 0.768036 47.6586 2.00537 53.12 4.48004C58.5813 6.86937 62.7626 10.368 65.664 14.976C68.6506 19.4987 70.144 25.0027 70.144 31.488C70.144 37.8027 68.6506 43.264 65.664 47.872C62.7626 52.3947 58.5813 55.8934 53.12 58.368C47.6586 60.7574 41.1306 61.952 33.536 61.952H5.24796L9.47196 57.6V90.368H-4.00543e-05ZM61.184 90.368L38.144 57.856H48.384L71.552 90.368H61.184ZM9.47196 58.368L5.24796 53.888H33.28C42.24 53.888 49.024 51.9254 53.632 48C58.3253 44.0747 60.672 38.5707 60.672 31.488C60.672 24.32 58.3253 18.7734 53.632 14.848C49.024 10.9227 42.24 8.96004 33.28 8.96004H5.24796L9.47196 4.48004V58.368ZM100.948 40.832H148.308V48.896H100.948V40.832ZM101.972 82.176H155.86V90.368H92.5V0.768036H153.94V8.96004H101.972V82.176ZM178.125 90.368V0.768036H211.661C219.256 0.768036 225.784 2.00537 231.245 4.48004C236.706 6.86937 240.888 10.368 243.789 14.976C246.776 19.4987 248.269 25.0027 248.269 31.488C248.269 37.8027 246.776 43.264 243.789 47.872C240.888 52.3947 236.706 55.8934 231.245 58.368C225.784 60.8427 219.256 62.08 211.661 62.08H183.373L187.597 57.6V90.368H178.125ZM187.597 58.368L183.373 53.76H211.405C220.365 53.76 227.149 51.84 231.757 48C236.45 44.0747 238.797 38.5707 238.797 31.488C238.797 24.32 236.45 18.7734 231.757 14.848C227.149 10.9227 220.365 8.96004 211.405 8.96004H183.373L187.597 4.48004V58.368ZM308.912 91.136C302.171 91.136 295.941 90.0267 290.224 87.808C284.507 85.504 279.557 82.304 275.376 78.208C271.195 74.112 267.909 69.2907 265.52 63.744C263.216 58.1974 262.064 52.1387 262.064 45.568C262.064 38.9974 263.216 32.9387 265.52 27.392C267.909 21.8454 271.195 17.024 275.376 12.928C279.643 8.83204 284.635 5.6747 290.352 3.45604C296.069 1.15204 302.299 3.8147e-05 309.04 3.8147e-05C315.525 3.8147e-05 321.627 1.10937 327.344 3.32804C333.061 5.46137 337.883 8.70404 341.808 13.056L335.792 19.072C332.123 15.3174 328.069 12.6294 323.632 11.008C319.195 9.30137 314.416 8.44804 309.296 8.44804C303.92 8.44804 298.928 9.3867 294.32 11.264C289.712 13.056 285.701 15.6587 282.288 19.072C278.875 22.4 276.187 26.3254 274.224 30.848C272.347 35.2854 271.408 40.192 271.408 45.568C271.408 50.944 272.347 55.8934 274.224 60.416C276.187 64.8534 278.875 68.7787 282.288 72.192C285.701 75.52 289.712 78.1227 294.32 80C298.928 81.792 303.92 82.688 309.296 82.688C314.416 82.688 319.195 81.8347 323.632 80.128C328.069 78.4214 332.123 75.6907 335.792 71.936L341.808 77.952C337.883 82.304 333.061 85.5894 327.344 87.808C321.627 90.0267 315.483 91.136 308.912 91.136ZM399.293 91.136C392.552 91.136 386.28 90.0267 380.477 87.808C374.76 85.504 369.768 82.304 365.501 78.208C361.32 74.0267 358.034 69.2054 355.645 63.744C353.341 58.1974 352.189 52.1387 352.189 45.568C352.189 38.9974 353.341 32.9814 355.645 27.52C358.034 21.9734 361.32 17.152 365.501 13.056C369.768 8.8747 374.76 5.6747 380.477 3.45604C386.194 1.15204 392.466 3.8147e-05 399.293 3.8147e-05C406.034 3.8147e-05 412.264 1.15204 417.981 3.45604C423.698 5.6747 428.648 8.83204 432.829 12.928C437.096 17.024 440.381 21.8454 442.685 27.392C445.074 32.9387 446.269 38.9974 446.269 45.568C446.269 52.1387 445.074 58.1974 442.685 63.744C440.381 69.2907 437.096 74.112 432.829 78.208C428.648 82.304 423.698 85.504 417.981 87.808C412.264 90.0267 406.034 91.136 399.293 91.136ZM399.293 82.688C404.669 82.688 409.618 81.792 414.141 80C418.749 78.1227 422.717 75.52 426.045 72.192C429.458 68.7787 432.104 64.8534 433.981 60.416C435.858 55.8934 436.797 50.944 436.797 45.568C436.797 40.192 435.858 35.2854 433.981 30.848C432.104 26.3254 429.458 22.4 426.045 19.072C422.717 15.6587 418.749 13.056 414.141 11.264C409.618 9.3867 404.669 8.44804 399.293 8.44804C393.917 8.44804 388.925 9.3867 384.317 11.264C379.709 13.056 375.698 15.6587 372.285 19.072C368.957 22.4 366.312 26.3254 364.349 30.848C362.472 35.2854 361.533 40.192 361.533 45.568C361.533 50.8587 362.472 55.7654 364.349 60.288C366.312 64.8107 368.957 68.7787 372.285 72.192C375.698 75.52 379.709 78.1227 384.317 80C388.925 81.792 393.917 82.688 399.293 82.688ZM467.5 90.368V0.768036H475.308L537.132 78.592H533.036V0.768036H542.38V90.368H534.572L472.876 12.544H476.972V90.368H467.5ZM571.625 90.368V0.768036H579.433L641.257 78.592H637.161V0.768036H646.505V90.368H638.697L577.001 12.544H581.097V90.368H571.625ZM684.198 40.832H731.558V48.896H684.198V40.832ZM685.222 82.176H739.11V90.368H675.75V0.768036H737.19V8.96004H685.222V82.176ZM800.037 91.136C793.296 91.136 787.066 90.0267 781.349 87.808C775.632 85.504 770.682 82.304 766.501 78.208C762.32 74.112 759.034 69.2907 756.645 63.744C754.341 58.1974 753.189 52.1387 753.189 45.568C753.189 38.9974 754.341 32.9387 756.645 27.392C759.034 21.8454 762.32 17.024 766.501 12.928C770.768 8.83204 775.76 5.6747 781.477 3.45604C787.194 1.15204 793.424 3.8147e-05 800.165 3.8147e-05C806.65 3.8147e-05 812.752 1.10937 818.469 3.32804C824.186 5.46137 829.008 8.70404 832.933 13.056L826.917 19.072C823.248 15.3174 819.194 12.6294 814.757 11.008C810.32 9.30137 805.541 8.44804 800.421 8.44804C795.045 8.44804 790.053 9.3867 785.445 11.264C780.837 13.056 776.826 15.6587 773.413 19.072C770 22.4 767.312 26.3254 765.349 30.848C763.472 35.2854 762.533 40.192 762.533 45.568C762.533 50.944 763.472 55.8934 765.349 60.416C767.312 64.8534 770 68.7787 773.413 72.192C776.826 75.52 780.837 78.1227 785.445 80C790.053 81.792 795.045 82.688 800.421 82.688C805.541 82.688 810.32 81.8347 814.757 80.128C819.194 78.4214 823.248 75.6907 826.917 71.936L832.933 77.952C829.008 82.304 824.186 85.5894 818.469 87.808C812.752 90.0267 806.608 91.136 800.037 91.136ZM869.408 90.368V8.96004H837.92V0.768036H910.368V8.96004H878.88V90.368H869.408Z" fill="#292929"/>
</svg>
