<svg width="934" height="92" viewBox="0 0 934 92" fill="none" xmlns="http://www.w3.org/2000/svg">
<path d="M96.384 86.1439V91.6479H68.736L47.36 61.5679H27.52V91.6479H0V86.1439H12.416V2.17594H45.696C59.3493 2.17594 69.12 4.47994 75.008 9.08794C80.896 13.6959 83.84 21.0773 83.84 31.2319C83.84 45.9946 77.3973 55.2959 64.512 59.1359L83.968 86.1439H96.384ZM46.336 47.8719C54.8693 47.8719 60.672 46.5493 63.744 43.9039C66.816 41.2586 68.352 37.0346 68.352 31.2319C68.352 25.3439 66.7733 21.3333 63.616 19.1999C60.4587 16.9813 54.8267 15.8719 46.72 15.8719H27.52V47.8719H46.336ZM105.541 86.1439V2.17594H168.389V16.3839H120.645V40.0639H163.525V53.5039H120.645V77.4399H169.925V86.1439H182.341V91.6479H93.125V86.1439H105.541ZM264.427 86.1439V91.6479H176.875V86.1439H189.291V2.17594H220.011C233.579 2.17594 243.478 4.77861 249.707 9.98395C255.936 15.1893 259.051 23.2106 259.051 34.0479C259.051 44.8853 255.851 52.8213 249.451 57.8559C243.136 62.8906 233.408 65.4079 220.267 65.4079H204.395V86.1439H264.427ZM221.931 51.7119C230.294 51.7119 235.968 50.1333 238.955 46.9759C242.027 43.7333 243.563 39.0399 243.563 32.8959C243.563 26.6666 241.643 22.2719 237.803 19.7119C233.963 17.1519 227.947 15.8719 219.755 15.8719H204.395V51.7119H221.931ZM358.583 86.1439V91.6479H264.375V86.1439H292.791C286.05 82.1333 280.716 76.6719 276.791 69.7599C272.951 62.8479 271.031 55.0399 271.031 46.3359C271.031 33.1946 275.554 22.1866 284.599 13.3119C293.73 4.43728 305.207 -5.34058e-05 319.031 -5.34058e-05C332.94 -5.34058e-05 344.546 5.11995 353.847 15.3599L344.247 25.8559C339.98 21.7599 335.927 18.9013 332.087 17.2799C328.332 15.6586 323.895 14.8479 318.775 14.8479C309.73 14.8479 302.135 17.7919 295.991 23.6799C289.847 29.4826 286.775 36.9493 286.775 46.0799C286.775 55.1253 289.804 62.7199 295.863 68.8639C302.007 74.9226 309.26 77.9519 317.623 77.9519C322.828 77.9519 327.308 77.0986 331.063 75.3919C334.818 73.5999 338.743 70.7839 342.839 66.9439L352.567 76.9279C348.812 81.0239 345.228 84.0959 341.815 86.1439H358.583ZM464.27 86.1439V91.6479H356.75V86.1439H386.062C379.065 82.1333 373.518 76.6293 369.422 69.6319C365.411 62.6346 363.406 54.8266 363.406 46.2079C363.406 33.0666 367.929 22.1013 376.974 13.3119C386.019 4.43728 397.198 -5.34058e-05 410.51 -5.34058e-05C423.822 -5.34058e-05 435.001 4.43728 444.046 13.3119C453.091 22.1013 457.614 33.0666 457.614 46.2079C457.614 54.7413 455.566 62.5493 451.47 69.6319C447.459 76.7146 441.955 82.2186 434.958 86.1439H464.27ZM432.91 23.2959C426.851 16.9813 419.385 13.8239 410.51 13.8239C401.635 13.8239 394.126 16.9813 387.982 23.2959C381.923 29.6106 378.894 37.2906 378.894 46.3359C378.894 55.2959 381.923 62.9333 387.982 69.2479C394.126 75.5626 401.635 78.7199 410.51 78.7199C419.385 78.7199 426.851 75.5626 432.91 69.2479C439.054 62.9333 442.126 55.2959 442.126 46.3359C442.126 37.2906 439.054 29.6106 432.91 23.2959ZM476.666 86.1439V2.17594H491.77L543.738 68.9919V2.17594H558.842V86.1439H571.258V91.6479H542.458L491.77 26.3679V91.6479H464.25V86.1439H476.666ZM583.666 86.1439V2.17594H598.77L650.738 68.9919V2.17594H665.842V86.1439H678.258V91.6479H649.458L598.77 26.3679V91.6479H571.25V86.1439H583.666ZM690.666 86.1439V2.17594H753.514V16.3839H705.77V40.0639H748.65V53.5039H705.77V77.4399H755.05V86.1439H767.466V91.6479H678.25V86.1439H690.666ZM856.208 86.1439V91.6479H762V86.1439H790.416C783.675 82.1333 778.341 76.6719 774.416 69.7599C770.576 62.8479 768.656 55.0399 768.656 46.3359C768.656 33.1946 773.179 22.1866 782.224 13.3119C791.355 4.43728 802.832 -5.34058e-05 816.656 -5.34058e-05C830.565 -5.34058e-05 842.171 5.11995 851.472 15.3599L841.872 25.8559C837.605 21.7599 833.552 18.9013 829.712 17.2799C825.957 15.6586 821.52 14.8479 816.4 14.8479C807.355 14.8479 799.76 17.7919 793.616 23.6799C787.472 29.4826 784.4 36.9493 784.4 46.0799C784.4 55.1253 787.429 62.7199 793.488 68.8639C799.632 74.9226 806.885 77.9519 815.248 77.9519C820.453 77.9519 824.933 77.0986 828.688 75.3919C832.443 73.5999 836.368 70.7839 840.464 66.9439L850.192 76.9279C846.437 81.0239 842.853 84.0959 839.44 86.1439H856.208ZM933.562 86.1439V91.6479H856.25V86.1439H887.354V15.9999H860.218V2.17594H929.594V15.9999H902.458V86.1439H933.562Z" fill="#292929"/>
</svg>
