<svg width="439" height="338" viewBox="0 0 439 338" fill="none" xmlns="http://www.w3.org/2000/svg">
<path d="M439 0L439 56.5633L328.87 56.5633L328.87 -4.94186e-06L439 0Z" fill="#FF4E4E"/>
<path d="M439 56.5632L439 112.437L328.87 112.437L328.87 56.5632L439 56.5632Z" fill="#4760FF"/>
<path d="M328.87 0L328.87 56.5633L219.5 56.5633L219.5 -4.90778e-06L328.87 0Z" fill="#001392"/>
<path d="M439 112.437L439 169L328.87 169L328.87 112.437L439 112.437Z" fill="#FF4E4E"/>
<path d="M384.315 28.2816C369.214 28.2816 356.972 40.7893 356.972 56.2183C356.972 56.2183 373.404 56.2183 384.315 56.2183C395.226 56.2183 411.657 56.2183 411.657 56.2183C411.657 40.7893 399.416 28.2816 384.315 28.2816Z" fill="#4760FF"/>
<path d="M384.315 84.155C399.416 84.155 411.657 71.6473 411.657 56.2183C411.657 56.2183 395.226 56.2183 384.315 56.2183C373.404 56.2183 356.972 56.2183 356.972 56.2183C356.972 71.6473 369.214 84.155 384.315 84.155Z" fill="#FF4E4E"/>
<path d="M439 225.563L439 281.437L328.87 281.437L328.87 225.563L439 225.563Z" fill="#FF4E4E"/>
<path d="M439 169L439 225.563L328.87 225.563L328.87 169L439 169Z" fill="#4760FF"/>
<path d="M439 281.437L439 338L328.87 338L328.87 281.437L439 281.437Z" fill="#4760FF"/>
<path d="M384.315 253.155C399.416 253.155 411.657 240.648 411.657 225.218C411.657 225.218 395.226 225.218 384.315 225.218C373.404 225.218 356.972 225.218 356.972 225.218C356.972 240.648 369.214 253.155 384.315 253.155Z" fill="#4760FF"/>
<path d="M384.315 197.282C369.214 197.282 356.972 209.789 356.972 225.218C356.972 225.218 373.404 225.218 384.315 225.218C395.226 225.218 411.657 225.218 411.657 225.218C411.657 209.789 399.416 197.282 384.315 197.282Z" fill="#FF4E4E"/>
<path d="M439 0L439 56.5633L328.87 56.5633L328.87 -4.94186e-06L439 0Z" fill="#E50000"/>
<path d="M439 56.5632L439 112.437L328.87 112.437L328.87 56.5632L439 56.5632Z" fill="#001392"/>
<path d="M439 112.437L439 169L328.87 169L328.87 112.437L439 112.437Z" fill="#E50000"/>
<path d="M384.315 28.2816C369.214 28.2816 356.972 40.7893 356.972 56.2183C356.972 56.2183 373.404 56.2183 384.315 56.2183C395.226 56.2183 411.657 56.2183 411.657 56.2183C411.657 40.7893 399.416 28.2816 384.315 28.2816Z" fill="#001392"/>
<path d="M384.315 84.155C399.416 84.155 411.657 71.6473 411.657 56.2183C411.657 56.2183 395.226 56.2183 384.315 56.2183C373.404 56.2183 356.972 56.2183 356.972 56.2183C356.972 71.6473 369.214 84.155 384.315 84.155Z" fill="#E50000"/>
<path d="M439 225.563L439 281.437L328.87 281.437L328.87 225.563L439 225.563Z" fill="#E50000"/>
<path d="M439 169L439 225.563L328.87 225.563L328.87 169L439 169Z" fill="#001392"/>
<path d="M439 281.437L439 338L328.87 338L328.87 281.437L439 281.437Z" fill="#001392"/>
<path d="M384.315 253.155C399.416 253.155 411.657 240.648 411.657 225.218C411.657 225.218 395.226 225.218 384.315 225.218C373.404 225.218 356.972 225.218 356.972 225.218C356.972 240.648 369.214 253.155 384.315 253.155Z" fill="#001392"/>
<path d="M384.315 197.282C369.214 197.282 356.972 209.789 356.972 225.218C356.972 225.218 373.404 225.218 384.315 225.218C395.226 225.218 411.657 225.218 411.657 225.218C411.657 209.789 399.416 197.282 384.315 197.282Z" fill="#E50000"/>
<path d="M328.87 56.5632L328.87 112.437L219.5 112.437L219.5 56.5632L328.87 56.5632Z" fill="#E50000"/>
<path d="M328.87 112.437L328.87 169L219.5 169L219.5 112.437L328.87 112.437Z" fill="#001392"/>
<path d="M328.87 169L328.87 225.563L219.5 225.563L219.5 169L328.87 169Z" fill="#E50000"/>
<path d="M274.185 84.155C259.084 84.155 246.842 96.8171 246.842 112.437C246.842 112.437 263.274 112.437 274.185 112.437C285.096 112.437 301.528 112.437 301.528 112.437C301.528 96.8171 289.286 84.155 274.185 84.155Z" fill="#001392"/>
<path d="M274.185 140.718C289.286 140.718 301.528 128.056 301.528 112.437C301.528 112.437 285.096 112.437 274.185 112.437C263.274 112.437 246.842 112.437 246.842 112.437C246.842 128.056 259.084 140.718 274.185 140.718Z" fill="#E50000"/>
<path d="M328.87 281.437L328.87 338L219.5 338L219.5 281.437L328.87 281.437Z" fill="#E50000"/>
<path d="M328.87 225.563L328.87 281.437L219.5 281.437L219.5 225.563L328.87 225.563Z" fill="#001392"/>
<path d="M274.185 309.719C289.286 309.719 301.528 297.056 301.528 281.437C301.528 281.437 285.096 281.437 274.185 281.437C263.274 281.437 246.843 281.437 246.843 281.437C246.843 297.056 259.084 309.719 274.185 309.719Z" fill="#001392"/>
<path d="M274.185 253.155C259.084 253.155 246.843 265.817 246.843 281.437C246.843 281.437 263.274 281.437 274.185 281.437C285.096 281.437 301.528 281.437 301.528 281.437C301.528 265.817 289.286 253.155 274.185 253.155Z" fill="#E50000"/>
<path d="M219.5 0L219.5 56.5633L109.37 56.5633L109.37 -4.94186e-06L219.5 0Z" fill="#FF4E4E"/>
<path d="M219.5 56.5632L219.5 112.437L109.37 112.437L109.37 56.5632L219.5 56.5632Z" fill="#4760FF"/>
<path d="M109.37 0L109.37 56.5633L-2.40845e-06 56.5633L0 -4.90778e-06L109.37 0Z" fill="#001392"/>
<path d="M219.5 112.437L219.5 169L109.37 169L109.37 112.437L219.5 112.437Z" fill="#FF4E4E"/>
<path d="M164.815 28.2816C149.714 28.2816 137.472 40.7893 137.472 56.2183C137.472 56.2183 153.904 56.2183 164.815 56.2183C175.726 56.2183 192.157 56.2183 192.157 56.2183C192.157 40.7893 179.916 28.2816 164.815 28.2816Z" fill="#4760FF"/>
<path d="M164.815 84.155C179.916 84.155 192.157 71.6473 192.157 56.2183C192.157 56.2183 175.726 56.2183 164.815 56.2183C153.904 56.2183 137.472 56.2183 137.472 56.2183C137.472 71.6473 149.714 84.155 164.815 84.155Z" fill="#FF4E4E"/>
<path d="M219.5 225.563L219.5 281.437L109.37 281.437L109.37 225.563L219.5 225.563Z" fill="#FF4E4E"/>
<path d="M219.5 169L219.5 225.563L109.37 225.563L109.37 169L219.5 169Z" fill="#4760FF"/>
<path d="M219.5 281.437L219.5 338L109.37 338L109.37 281.437L219.5 281.437Z" fill="#4760FF"/>
<path d="M164.815 253.155C179.916 253.155 192.157 240.648 192.157 225.218C192.157 225.218 175.726 225.218 164.815 225.218C153.904 225.218 137.472 225.218 137.472 225.218C137.472 240.648 149.714 253.155 164.815 253.155Z" fill="#4760FF"/>
<path d="M164.815 197.282C149.714 197.282 137.472 209.789 137.472 225.218C137.472 225.218 153.904 225.218 164.815 225.218C175.726 225.218 192.157 225.218 192.157 225.218C192.157 209.789 179.916 197.282 164.815 197.282Z" fill="#FF4E4E"/>
<path d="M219.5 0L219.5 56.5633L109.37 56.5633L109.37 -4.94186e-06L219.5 0Z" fill="#E50000"/>
<path d="M219.5 56.5632L219.5 112.437L109.37 112.437L109.37 56.5632L219.5 56.5632Z" fill="#001392"/>
<path d="M219.5 112.437L219.5 169L109.37 169L109.37 112.437L219.5 112.437Z" fill="#E50000"/>
<path d="M164.815 28.2816C149.714 28.2816 137.472 40.7893 137.472 56.2183C137.472 56.2183 153.904 56.2183 164.815 56.2183C175.726 56.2183 192.157 56.2183 192.157 56.2183C192.157 40.7893 179.916 28.2816 164.815 28.2816Z" fill="#001392"/>
<path d="M164.815 84.155C179.916 84.155 192.157 71.6473 192.157 56.2183C192.157 56.2183 175.726 56.2183 164.815 56.2183C153.904 56.2183 137.472 56.2183 137.472 56.2183C137.472 71.6473 149.714 84.155 164.815 84.155Z" fill="#E50000"/>
<path d="M219.5 225.563L219.5 281.437L109.37 281.437L109.37 225.563L219.5 225.563Z" fill="#E50000"/>
<path d="M219.5 169L219.5 225.563L109.37 225.563L109.37 169L219.5 169Z" fill="#001392"/>
<path d="M219.5 281.437L219.5 338L109.37 338L109.37 281.437L219.5 281.437Z" fill="#001392"/>
<path d="M164.815 253.155C179.916 253.155 192.157 240.648 192.157 225.218C192.157 225.218 175.726 225.218 164.815 225.218C153.904 225.218 137.472 225.218 137.472 225.218C137.472 240.648 149.714 253.155 164.815 253.155Z" fill="#001392"/>
<path d="M164.815 197.282C149.714 197.282 137.472 209.789 137.472 225.218C137.472 225.218 153.904 225.218 164.815 225.218C175.726 225.218 192.157 225.218 192.157 225.218C192.157 209.789 179.916 197.282 164.815 197.282Z" fill="#E50000"/>
<path d="M109.37 56.5632L109.37 112.437L-2.37908e-06 112.437L0 56.5632L109.37 56.5632Z" fill="#E50000"/>
<path d="M109.37 112.437L109.37 169L-2.40845e-06 169L0 112.437L109.37 112.437Z" fill="#001392"/>
<path d="M109.37 169L109.37 225.563L-2.40845e-06 225.563L0 169L109.37 169Z" fill="#E50000"/>
<path d="M54.6851 84.155C39.5843 84.155 27.3426 96.8171 27.3426 112.437C27.3426 112.437 43.7743 112.437 54.6851 112.437C65.596 112.437 82.0277 112.437 82.0277 112.437C82.0277 96.8171 69.786 84.155 54.6851 84.155Z" fill="#001392"/>
<path d="M54.6851 140.718C69.786 140.718 82.0277 128.056 82.0277 112.437C82.0277 112.437 65.596 112.437 54.6851 112.437C43.7743 112.437 27.3426 112.437 27.3426 112.437C27.3426 128.056 39.5843 140.718 54.6851 140.718Z" fill="#E50000"/>
<path d="M109.37 281.437L109.37 338L-2.40845e-06 338L0 281.437L109.37 281.437Z" fill="#E50000"/>
<path d="M109.37 225.563L109.37 281.437L-2.37908e-06 281.437L0 225.563L109.37 225.563Z" fill="#001392"/>
<path d="M54.6852 309.719C69.7861 309.719 82.0278 297.056 82.0278 281.437C82.0278 281.437 65.5961 281.437 54.6852 281.437C43.7744 281.437 27.3427 281.437 27.3427 281.437C27.3427 297.056 39.5843 309.719 54.6852 309.719Z" fill="#001392"/>
<path d="M54.6852 253.155C39.5843 253.155 27.3427 265.817 27.3427 281.437C27.3427 281.437 43.7744 281.437 54.6852 281.437C65.5961 281.437 82.0278 281.437 82.0278 281.437C82.0278 265.817 69.7861 253.155 54.6852 253.155Z" fill="#E50000"/>
</svg>
