<?xml version="1.0" encoding="UTF-8"?><svg id="Layer_1" xmlns="http://www.w3.org/2000/svg" viewBox="0 0 1600 2000"><rect width="1600" height="2000" style="fill:#fff4f0;"/><path d="M76.685,1442.383c-.409,1.426-3.291,3.124-5.124,2.558-.407-9.377.497-18.914.062-28.294-1.554-33.469-9.034-101.291,8.1-128.642,10.295-16.434,41.534-36.669,59.073-45.304,19.63-9.665,40.449-5.698,60.978-21.155,12.905-9.717,16.634-24.33,37.748-16.147-.321-6.431.615-13.066-.172-19.487-2.347-19.133-17.208-31.494-23.385-48.48-3.962-10.894-3.869-29.598-8.562-37.637-3.02-5.174-8.861-5.943-12.383-9.861-7.787-8.661-18.825-47.662-2.176-50.174,2.285-.345,4.983,1.437,6.343,1.117,7.058-1.665,13.426-52.948,15.523-61.341,4.224-16.905,15.167-30.849,29.947-39.372l.003-2.522c-23.774-15.08,2.525-49.372,18.943-59.787,9.036-5.732,19.417-7.729,28.969-12.082-15.127-11.921-32.03-21.302-49.672-29.039-14.956-6.559-42.991-18.963-58.558-14.177-10.285,3.162-13.126,13.589-18.978,19.524-24.675,25.024-46.343,20.753-61.836,62.213-10.881,29.119-2.886,37.137.655,64.304,3.26,25.019-2.546,42.938,17.301,63.119,8.523,8.666,29.518,18.541,32.101,31.209,1.481,7.262.17,17.435.41,25.257.271,8.805,5.763,25.16-5.882,30.085-11.096,4.692-30.227,6.085-42.799,10.246-61.113,20.224-49.215,82.358-61.197,133.865l-4.778,2.905c.193-3.696-.291-7.495-.091-11.198,1.174-21.798,6.856-75.96,15.155-94.35,17.448-38.666,53.961-43.074,90.229-53.504,1.532-2.329,1.092-20.498.773-24.859-1.203-16.451-2.337-19.407-14.579-29.909-12.234-10.495-19.824-12.104-28.468-27.998-8.83-16.237-4.762-20.083-6.577-36.199-4.897-43.486-19.267-68.084,8.237-109.859,13.705-20.816,35.786-27.027,51.736-42.374,4.972-4.784,9.283-13.78,14.452-18.059,11.269-9.329,30.686-7.843,44.018-4.609,8.049,1.952,40.05,16.675,43.326,16.584,3.33-.092,19.969-13.889,20.969-18.302,2.48-10.942-7.536-42.435-13.006-52.99-7.121-13.741-22.363-22.659-30.283-38.16-11.609-22.719-15.452-76.242-12.628-101.652,1.431-12.877,10.939-35.682,20.294-44.726,4.275-4.133,32.066-19.45,38.176-21.712,4.057-1.502,8.017-.873,11.544-2.145,14.534-5.242,22.488-20.876,40.944-8.507,4.157,2.786,6.86,9.39,9.871,10.663,6.117,2.587,16.11,1.368,22.834,2.833,11.153,2.431,32.458,15.816,32.341,28.261-14.291,4.857-20.962-9.146-33.689-13.224-9.214-2.953-18.735-2.243-27.713-6.589s-8.336-15.212-21.153-12.281c-4.157.951-8.065,5.844-12.56,8.005-7,3.365-12.689,2.696-19.015,4.94-3.709,1.316-27.379,13.568-30.384,15.816-29.847,22.33-24.621,96.924-13.335,127.948,6.909,18.992,23.483,25.362,32.174,41.402,8.3,15.319,21.979,55.436,12.55,70.782-2.677,4.356-18.986,13.604-16.853,16.486,5.236,1.543,11.989,5.29,16.252,8.579,4.836,3.73,15.962,18.711,17.969,19.766,3.531,1.856,6.934-.769,10.651-.498,24.548,1.789,52.398,9.276,41,40.079-4.21,11.377-20.215,23.271-1.305,31.472,7.694,3.337,21.622-3.221,29.531-6.668,6.264-2.73,29.258-14.284,33.161-18.172,7.148-7.119,11.927-46.925,7.617-54.023-1.177-1.938-8.949-4.439-11.995-6.827-13.117-10.281-17.998-23.333-23.138-38.461-1.675-4.929-6.309-26.621-7.629-28.303-2.685-3.42-9.305.652-13.712-11.954-5.205-14.891.248-25.387-.854-36.748-.358-3.696-7.602-8.789-8.612-17.097-4.624-38.048,24.673-63.823,54.814-80.457-14.921-3.281-41.491-7.15-44.206-26.112-2.252-15.726,19.342-12.175,28.8-9.832,14.168,3.509,27.355,10.439,38.439,19.692,8.185-9.915,16.007-22.596,27.732-28.786,16.505-8.713,37.62-8.464,20.245,13.4-8.823,11.103-23.19,20.808-35.086,28.225,8.744,3.977,21.681,30.575,20.248,38.922-.388,2.262-2.988,4.208-2.781,6.979.172,2.293,7.859,16.645,9.472,21.253,5.871,16.777,9.549,33.752,9.004,51.754,16.087-4.658,56.005-27.851,54.722-46.921-.222-3.299-8.837-22.812-11.047-26.711-8.733-15.409-33.699-32.131-50.09-38.887-3.106-1.28-13.668-3.287-14.139-3.848-.713-.848-.175-4.731,1.68-6.004,13.453-9.234,59.076,20.792,69.576,31.332,13.46-3.193,26.203-9.541,39.609-12.842,81.059-19.958,22.322,59.922-13.465,70.763,3.284,15.673,7.557,30.62,4.504,46.895-2.808,14.968-10.434,5.813-11.193,6.756-.754.936-3.52,19.577-4.665,23.583-3.064,10.717-16.889,48.372-24.311,54.418-2.273,1.852-6.982,2.315-7.083,3.38-.413,4.339,6.375,32.449,8.505,37.742,2.11,5.244,5.276-.608,9.777-2.568,33.011-14.377,70.077-16.247,103.285-30.183,28.143-11.81,29.84-35.096,23.2-62.484-3.339-13.769-12.012-17.901-15.157-29.331-1.912-6.946-1.65-14.566-3.778-21.888-4.643-15.974-14.773-24.148-12.778-43.685,1.499-14.677,10.413-11.733,11.754-15.609,1.317-3.805.871-16.338,2.437-23.228,5.988-26.346,32.715-72.262,63.366-72.566,46.762-.463,80.24,39.846,87.978,82.759.801,4.441,1.294,25.094,2.21,26.025.368.374,6.292.163,10.15,2.688,4.879,3.192,4.811,8.603,6.84,10.275,2.39,1.97,14.293-7.435,18.235-9.275,6.638-3.097,28.635-8.503,29.783-14.778-3.077-10.401-1.42-32.275-5.569-40.648-2.121-4.281-12.72-12.065-16.682-17.541-3.691-5.103-4.304-9.056-6.807-13.3-1.139-1.932-4.693-1.406-5.329-5.495-1.385-8.905,8.272-10.168,8.765-12.314.792-3.453-1.751-9.061-1.871-13.269-1.153-40.543,11.505-68.392,50.257-85.057,45.374-19.514,72.407,13.056,80.803,54.957,1.432,7.144,1.113,21.313,2.747,26.341,1.017,3.132,6.825,3.525,8.027,7.454,1.874,6.127-3.334,10.091-2.822,13.038.372,2.146,4.755,6.157,5.715,9.673,2.89,10.584-6.798,29.481-7.731,41.988-.702,9.414,4.871,31.939,2.526,36.753-7.807,16.026-14.131-15.722-14.509-21.397-1.443-21.703,8.224-36.581,8.354-57.128l-124.741,6.693c2.945,11.103,17.409,13.973,21.405,22.21,3.63,7.484,9.217,44.004,6.913,51.442-4.323,13.949-37.165,15.72-48.738,24.83-4.091,3.22-5.911,5.322-5.264,11.008-7.964-9.706-5.193-5.052-8.745,2.341-1.7,3.538-9.483,14.916-9.653,15.827-.496,2.646,1.754,8.916.888,14.789-1.305,8.85-7.827,15.385-9.691,22.797-2.754,10.946,1.103,36.902,9.247,45.201,11.829,12.054,42.224,17.774,58.209,23.925,5.526,2.126,16.563,9.32,19.239,9.988,5.961,1.488,32.724-17.409,41.515-21.049,19.155-7.933,63.438-13.146,73.597-30.781,2.479-4.303,7.591-20.886,5.983-24.824-3.457-8.465-26.681-9.529-31.293-14.127-8.399-8.372,9.154-26.441,13.573-34.382,19.317-34.716,15.698-45.362,22.454-81.921,8.613-46.61,55.015-81.43,102.612-74.524,26.074,3.783,36.088,23.424,47.486,44.074,12.552-16.518,62.745-8.091,61.62-34.983-1.443-34.511-25.443-45.244-29.058-72.213-.346-2.584,1.66-6.49.907-7.505-.717-.966-16.604-4.364-22.361-8.497-20.499-14.72-27.312-58.075,7.692-49.63-5.317-11.706-7.83-28.695-2.069-40.551,5.896-12.134,14.94-4.862,15.744-5.619.472-.444,1.11-9.941,4.584-12.116,4.846-3.034,13.371-3.525,10.844,4.07-.549,1.651-3.808,1.987-4.906,3.928-5.793,10.245-3.666,19.342-19.053,10.958-1.741,8.872-2.75,18.774-1.31,27.812.805,5.053,8.182,17.576,7.905,18.986-2.501,12.727-29.879-13.018-26.736,13.458,1.459,12.286,9.705,20.798,20.635,25.639,4.644,2.057,11.429,2.14,15.543,4.99,3.289,2.279,3.937,6.864,8.336,8.775,3.457,1.502,7.731.657,10.824,2.865,3.453,2.465,6.93,14.86,7.708,15.409,4.607,3.257,16.02-11.249,22.165-9.478,10.543,3.037,14.416,32.757,38.353,28.343,12.559-2.316,26.472-33.033,48.403-37.163,4.869-.917,9.779.182,14.618-.782,21.574-4.301,23.588-36.547,9.625-49.929-5.659-5.423-18.599-8.124-21.895-14.039-4.502-8.082-1.206-22.131-7.782-29.863-10.457-12.295-26.967,3.043-35.25-2.405-2.859-1.88-2.901-11.057-4.215-14.596-3.185-8.574-14.045-18.253-23.062-19.884-8.345-1.509-11.659,8.564-17.126,13.024-.702-42.952,50.152-15.796,51.336,11.991,18.74-6.901,35.053-5.311,41.559,15.739,1.714,5.546,1.918,16.613,3.747,20.207,1.101,2.164,16.371,9.217,20.613,13.609,12.115,12.545,15.978,42.712,3.615,55.924-9.718,10.384-26.237,8.251-37.989,12.485-23.36,8.415-14.996,35.778-14.444,54.837,24.4-11.784,46.365-24.077,70.963-5.084,12.449,9.613,19.735,21.718,22.708,37.18,1.456,7.573.209,19.932,4.034,26.765,2.867,5.122,20.278,13.324,26.307,18.181,16.203,13.052,56.57,57.276,57.31,78.055.312,8.771-22.459,14.235-29.884,14.416-4.765.116-17.066-3.149-19.466-1.593-.688.446-4.345,11.982-6.179,15.2-22.803,39.99-56.019,43.246-98.411,32.485,3.448,6.346-5.652,30.66-5.009,33.219.66,2.626,10.554,4.898,13.464,5.358,17.61,2.787,32.551-5.049,49.535-7.95,1.835-8.848-3.262-16.775-3.236-25.491,16.146-3.048,8.985,17.679,22.13,19.782,20.459,3.272,38.808-17.591,61.692,3.323,3.168,2.895,11.241,15.579,13.713,17.087,7.88,4.806,21.731-5.53,32.222,10.556,11.972,18.357,20.258,71.001,23.952,94.112,8.157,51.032,16.873,116.167,19.089,167.411.137,3.159,1.174,17.712-2.542,17.91-2.527-1.66-3.265-.975-4.576-4.052-3.935-9.235-6.295-30.667-7.979-41.534-8.326-53.719-10.85-108.334-21.32-161.762-2.274-11.603-12.781-61.333-20.766-66.499-6.49-4.198-17.974.686-24.911-2.467-6.888-3.13-14.094-26.016-28.281-26.609-10.643-.444-25.212,6.671-35.914,6.591-5.39-.041-15.584-5.318-16.228-4.769-.225.192-.569,4.262-1.58,5.712-3.196,4.586-43.175,10.286-50.455,9.495-16.619-1.805-26.769-15.488-37.743-17-14.043-1.934-44.635,1.893-59.955,3.518-4.182.444-31.611,3.2-31.637,5.97,5.305,6.193,7.255,15.194,6.803,23.113,29.598,1.433,61.814-6.167,87.128,12.971,17.98,13.594,27.91,35.044,34.827,55.86,16.012,48.185,26.09,98.455,31.682,148.927-10.127,29.563-46.101,15.571-69.089,26.826,1.278,13.89,1.457,29.242,13.113,38.465,28,22.156,111.488,15.212,122.308,50.514,3.264,10.648,8.909,33.193,10.604,44.15,5.49,35.493-3.137,82.567-4.765,119.263-1.69,38.1-1.075,76.517-3.369,114.693-1.217,20.251-3.657,40.645-5.927,60.804l-6.025,1.659c.513-20.79-.688-41.731-.09-62.527,1.502-52.271,6.146-104.974,8.655-157.316,1.642-34.253,8.64-80.763-9.995-111.524-14.994-24.751-40.165-22.831-65.296-29.653,2.152,18.936,2.572,38.209-.236,57.101-.764,5.14-1.007,15.995-8.375,12.238-5.079-2.59-3.775-23.18-3.456-29.201.698-13.16,3.911-27.554,5.35-40.769-22.237-12.354-11.22,3.824-10.449,16.907.474,8.046-4.1,54.161-7.741,58.933-2.791,3.658-14.612,5.127-19.563,6.104-33.684,6.65-76.255,8.728-110.38,5.924-14.328-1.177-34.518-9.865-46.44-10.158-5.096-.125-10.014,5.087-16.042,3.352,2.185-10.892-3.098-7.634-8.649-12.76-13.046-12.046-18.442-66.91-15.326-84.779-2.036,2.174-11.5,3.016-11.907,3.484-2.63,3.019,15.001,67.348,16.581,78.263.444,3.067,2.421,17.838.405,19.167-5.394,3.558-6.92-6.388-8.008-9.858-6.801-21.697-11.447-50.787-15.407-73.557-.618-3.554-.599-7.08-.478-10.652-12.971,5.391-41.272,6.214-50.533,15.334-1.113,1.096-8.955,11.974-9.33,12.923-1.262,3.202,1.025,2.144,2.555,2.502,27.669,6.475,38.404,11.727,48.826,40.179,23.836,65.076,28.445,127.111,41.841,194.285,5.28,26.479,18.05,60.236,17.804,86.569-.058,6.176-1.492,14.426-9.084,12.754-9.401-32.681-16.293-66.995-22.752-100.692-11.237-58.625-17.929-108.562-35.574-166.33-6.902-22.597-7.095-52.09-36.78-56.456l5.193,74.353c-1.01,42.413.963,84.511,1.57,126.758.15,10.454,4.563,21.558-1.602,32.46,12.271-3.565,26.154,5.198,31.635,16.217,6.206,12.478,13.87,38.266,17.812,52.341,7.479,26.699,24.325,89.095,24.236,114.501-.198,57.015-63.881,80.379-111.326,61.558-20.722-8.22-21.142-23.918-22.357-44.375-2.291-38.591.898-86.37,5.214-124.968,1.613-14.422,6.819-54.591,15.362-65.043,5.466-6.688,9.643-1.981,17.15-4.274l-6.845-167.662c6.132-.41,6.141,10.123,6.807,14.564,4.565,30.442,6.513,68.086,8.567,99.229,1.094,16.59.473,33.822,1.736,50.466l6.831-.02-9.671-239.673-10.847-3.275c7.256,29.712,2.216,57.482-9.979,84.986-4.004,9.03-8.569,20.63-17.325,25.453-20.936,11.532-28.778-4.229-45.14-13.206-31.162-17.096-68.668-15.017-94.451-40.727-11.723-11.69-10.394-21.142-28.955-27.511-11.261-3.865-14.377-1.158-24.033-1.472-17.394-.566-21.069-17.966-23.857-18.434-4.276-.718-26.602,6.36-32.213,8.419-18.944,6.953-38.635,17.941-57.535,25.468-2.314,3.185,7.807,34.851,8.343,41.725.186,2.386.734,12.828-2.547,12.787-6.63-.083-8.584-41.748-9.407-48.762-.282-2.404-1.064-5.033-3.41-2.537l-31.819,126.705c16.367,6.119,34.558,9.186,50.625,16.169,22.611,9.828,55.571,37.729,76.074,53.97,22.65,17.942,60.996,60.26,69.75,87.666,2.327,7.285,3.862,14.606-5.523,10.657-18.269-19.469-29.399-50.431-46.979-69.374-4.211-4.537-24.345-22.567-29.074-25.681-1.626-1.07-4.774-3.189-6.086-.759,17.249,25.564,22.668,54.077,32.464,82.177,2.082,5.971,18.965,43.243,17.166,45.27-1.917,2.16-4.607-2.68-5.456-3.937-35.446-52.483-39.028-136.764-103.434-166.916-33.657-15.757-95.285-18.716-104.526-63.162-2.137-10.277-1.09-36.105-10.083-41.251-6.519-3.729-8.808.331-13.057-.558-1.632-.341-3.137-2.808-5.52-2.97-6.603-.448-38.83,8.791-49.886,9.948-37.091,3.879-85.174-2.809-122.843-6.761-4.881-.512-9.362-4.278-14.675-3.287.668,6.115-1.038,13.78.065,19.608.927,4.9,5.497,6.452,5.179,13.726-.217,4.964-5.935,14.518-9.542,17.988-7.856,7.559-47.431,25.639-59.568,31.121-6.623,2.992-48.49,17.922-50.001,20.155-1.31,27.773-7.182,54.823-11.061,82.21-6.741,1.594-6.464-4.016-6.912-9.34l10.334-69.369c-26.133,1.886-35.215,28.904-43.574,49.663-9.495,23.582-17.888,52.797-21.213,78.029-1.625,12.331-2.352,61.495-6.963,68.068-4.482,6.388-8.201-6.064-8.664-10.128-5.148-45.167,16.342-157.028,53.021-186.519,16.538-13.297,57.402-23.462,78.703-32.519,12.412-5.278,50.811-22.062,58.942-30.036,5.826-5.714,9.261-15.771-1.49-17.086-33.499-4.096-75.263,3.314-109.683.027-34.52,1.735-69.909,6.524-104.309,6.914-4.36.049-9.584-2.934-14.545-1.71v30.799l127.326-1.737,1.019,5.152-126.643,1.71v18.838c12.359-.429,24.455-1.63,36.88-1.801,23.562-.324,46.419-2.577,70.023-3.42,2.58-.092,5.196.147,7.762.087-.218,1.386.337,4.753-.002,5.114-1.27,1.357-32.3,4.843-36.814,5.128-25.846,1.634-52.142-2.141-77.85,1.721-.161,11.692.216,23.443.082,35.152-.271,23.667,4.25,57.104,1.722,78.722-1.026,8.778-8.329,7.985-8.723,0,1.215-62.74-4.2-125.714-5.12-188.227-.298-20.26.302-41.784,10.325-59.969-5.962-3.932-12.784,10.69-14.058,15.03-2.616,8.907-1.604,24.757-1.4,34.673,1.001,48.81,4.983,99.919,1.853,148.861-.177,2.77-1.944,16.927-2.581,17.951-2.089,3.362-6.046.282-6.046-.913v-74.43c-3.877,2.214-13.902,5.133-17.967,5.133h-35.934c-.366,0-1.939-2.559-2.55-1.71.422,3.639-1.446,12.544,1.586,14.652,5.014,3.486,36.289-3.65,44.589-.955,3.135,2.703-7.798,6.835-9.403,6.835h-36.79c-1.361,7.539,1.859,21.743,0,28.232ZM836.433,611.657c14.732,1.228,113.8-2.987,119-10.173,4.267-5.896,1.675-31.769.017-39.523-7.378-34.498-27.203-69.394-67.685-52.095-1.852.791-12.285,6.883-12.809,7.724-1.751,2.808-3.991,24.958-4.284,29.937-.95,16.142.679,32.586-.034,48.739-2.496.304-3.069-4.464-3.257-6.123-2.62-23.118-2.079-46.412,3.273-69.138-1.808-1.439-10.903,8.115-11.932,9.817-5.726,9.472-11.678,36.671-11.832,47.672-.115,8.187,7.116,20.749-.242,27.144-3.027,2.631-8.681,1.725-10.216,6.018ZM1223.151,541.522c-12.93.187-12.162-20.953-15.593-23.753-.459-.374-11.69-1.631-11.796-1.048-2.671,14.672,18.405,30.982,22.794,45.65,3.024,10.105,3.018,21.728,2.901,32.192,21.931-19.636,55.961,11.857,79.278-5.404,8.829-6.536,2.236-13.596,1.145-22.844-.674-5.711.437-12.127-.025-17.941-1.165-1.357-12.472,8.663-14.872,9.998-2.155,1.199-3.688,1.284-5.653,1.971l-3.422,1.711c-1.401.17-3.769.2-5.133,0-.189-.028-1.467-1.101-3.422-1.711-5.301-1.653-9.33-3.321-13.689-6.844-.517-.418-4.489-4.408-5.133-5.133-2.641-2.973-8.405-14.763-11.335-15.272-1.083-.188-9.853,5.513-12.621,6.717-1.076.468-2.696.134-3.422,1.711ZM1399.398,642.456c-7.087-19.923-2.568-39.04-19.633-54.781-25.266-23.305-56.209,6.85-81.29,16.3,29.275,21.732,63.378,39.315,100.923,38.481ZM1192.343,772.511c-.579-17.831,13.158-19.428.753-37.532-11.628-16.97-29.487-30.894-41.012-51.387-2.444-4.345-12.059-24.962-12.422-28.693-1.144-11.747,13.243-11.967,1.776-30.812-14.06-23.106-27.959-33.275-56.095-31.296-41.695,2.933-68.146,37.387-74.174,76.401-4.881,31.588-3.362,45.634-21.066,74.754-3.026,4.978-14.218,17.228-15.053,19.178-1.27,2.966,1.156,2.244,2.343,2.709,11.629,4.549,30.55,8.253,31.454,23.364.265,4.436-1.958,6.795-.542,12.43.748,2.976,13.888,21.098,16.326,23.101,1.867,1.534,1.969,1.655,3.537-.236,3.112-3.754,5.541-9.991,9.303-14.359,28.118-32.646,88.906-55.229,130.94-45.337,3.7.871,22.902,8.849,23.932,7.716ZM477.084,594.573c-8.182-2.57-38.516,23.914-37.628,28.197.391,1.887,2.804,2.944,5.135,1.757,3.876-1.974,19.842-15.154,23.967-18.821,1.489-1.324,10.452-9.448,8.527-11.133ZM1280.796,605.375c-5.128-4.32-44.9-9.944-50.11-5.844-8.333,6.559,1.71,30.731,6.458,38.361,30.504,49.021,136.942,80.079,191.337,92.707,8.832,2.05,49.978,9.363,54.736,2.513,2.138-3.078-13.99-25.82-17.118-29.863-5.695-7.361-33.903-38.333-40.402-41.734-6.788-3.552-8.814-.224-15.108-.141-47.105.624-83.086-13.651-119.013-43.692-4.186-3.5-7.823-9.817-10.78-12.309ZM649.918,674.127c-1.067,10.57,0,24.099,0,35.076,0,4.015-13.183-3.963-13.68-3.414.006,5.501,1.641,11.137,3.343,16.316,7.188,21.871,18.125,49.575,30.847,68.396,4.186,6.193,23.735,24.873,1.753,11.098,1.369,11.913,2.056,22.09.17,34.033,26.221,7.355,58.757,8.962,85.028.701,9.359-2.943,16.826-9.421,26.012-12.519-6.439-4.488-5.851-29.54-6.855-30.778-.337-.415-8.372,3.989-6.918-4.192.105-.589,5.764-3.308,7.723-6.131,9.279-13.365,10.334-27.394,15.109-41.349,3.224-9.422,9.311-13.348,9.822-26.138.075-1.879.951-4.763-1.75-4.298-1.376,6.659-7.194,13.916-12.582,6.442-3.849-28.156-2.681-60.05-20.246-84.013-13.238-18.059-44.177-37.22-67.192-33.544-24.163,3.86-48.381,52.505-50.583,74.314ZM1413.088,654.433c-6.983-11.039-13.156-2.958-22.835-3.543-21.489-1.298-54.411-15.173-72.844-26.528-4.331-.72-27.773-22.739-29.225-21.235-2.385,2.471,12.654,13.481,14.825,15.101,29.499,22.016,72.64,42.592,110.079,36.204ZM1327.169,791.701c-1.313-1.807-32.586-10.943-40.539-18.499-10.824-10.283-7.001-28.739-9.157-42.174-1.601-9.974-6.088-30.928-9.767-39.854-8.172-19.824-31.341-36.011-41.416-54.404-5.35-9.767-9.042-20.662-8.288-31.939-8.954,15.458-55.474,15.068-61.749,22.951-3.507,4.405.332,7.792.116,12.043-.202,3.973-4.196,7.289-4.804,10.775-.847,4.855,9.757,23.671,13.024,29.046,10.481,17.241,40.041,44.856,44.381,59.98,4.48,15.609-2.085,14.729-4.265,25.561-2.029,10.082-2.321,14.969-6.373,24.4-.843,1.963-5.994,4.275-4.259,6.848.694,1.029,9.099,1.529,9.954,8.102,1.048,8.056-6.867,10.45-3.253,15.107.647.833,16.967,10.917,18.02,10.971,3.416.176,26.288-6.807,33.131-7.945,14.969-2.488,49.23-8.883,62.643-7.235,4.449.546,8.266,3.711,12.956,3.268-1.496-6.74,3.5-21.699-.353-27.002ZM425.749,632.199c3.706-3.873-13.209-14.221-15.947-15.691-5.154-2.767-31.656-13.501-35.371-9.957,3.421,21.138,35.875,16.817,51.318,25.649ZM454.831,666.427c.943-3.999-13.452-31.209-17.086-27.367,3.624,9.818,7.917,21.572,17.086,27.367ZM424.047,642.49c-30.801,5.298-78.601,54.793-56.48,86.403,5.253,7.507,27.949,21.953,36.856,23.063,2.688.335,2.866.228,2.502-2.503-.682-5.111-3.749-11.578-4.653-17.62-2.683-17.938-1.376-37.681,3.795-55.153,3.708-12.53,10.63-23.554,17.981-34.19ZM432.593,642.463c-4.135-4.057-11.663,12.819-13.437,16.507-7.681,15.969-12.569,34.98-12.311,52.851.094,6.474,3.376,33.873,5.671,38.856,1.003,2.178,1.66,3.621,4.179,4.376,7.842,2.352,54.571,3.486,57.942-1.25,3.469-4.873-3.326-34.021-5.253-41.17-2.111-7.832-7.682-26.475-11.059-33.036-.953-1.852-5.851-1.824-8.549-3.818-9.14-6.753-12.605-16.27-16.326-26.511-.799-2.2-.612-6.565-.857-6.805ZM550.688,712.625c14.662-6.911,28.628-15.868,39.384-28.187,3.684-4.22,18.363-23.284,14.636-28.363-6.491-8.846-55.203,10.859-66.014,12.086,5.433,14.305,12.308,28.685,11.994,44.465ZM1437.045,745.15c-6.397-1.054-12.951-2.1-19.192-3.923-39.327-11.491-80.273-19.87-116.542-39.169l-33.669-23.635c4.975,5.362,7.022,8.465,9.419,15.374,4.112,11.85,8.068,29.836,10.65,42.393,1.38,6.713.88,17.508,2.524,23.141,2.862,9.806,48.51,19.578,59.184,21.238,37.969,5.904,70.395,3.225,87.625-35.418ZM552.374,724.611c-1.96-2.067-30.494,20.499-34.358,22.946-19.269,12.202-37.448,20.079-60.619,21.515-31.368,1.944-65.857-4.544-87.274-29.055-3.729-1.537-2.64,3.902-2.51,5.931.511,8,3.377,16.99,5.122,24.841,3.016-.171,2.849-6.075,6.123-6.768,2.566-.543,4.413,2.764,5.436,4.615,11.499,20.798,7.48,49.593,27.697,69.831,15.619,15.636,12.309,1.386,15.671-.717,8.422-5.267,11.973,15.713,16.056,20.306,4.411-4.964,4.406-15.652,12.377-16.83,6.894-1.019,21.504,12.271,26.9,11.794,6.436-.569,6.892-12.148,23.89-10.228,7.154.808,8.544,6.446,14.707-.983,8.696-10.483,21.648-51.157,23.769-65.197,1.628-10.776-3.164-32.304,12.139-14.366,1.165-12.861-4.272-24.936-5.126-37.634ZM1194.063,805.053c-3.106-.109-9.401-5.485-10.081-8.077-1.507-5.741,9.078-7.155,2.421-12.531-6.128-4.948-34.618-12.164-42.815-12.077-86.12.92-143.349,70.059-109.486,154.107,1.779,4.415,17.892,32.721,19.989,33.897,1.9,1.065,6.652.044,10.012,1.12,10.581,3.39,18.407,19.702,19.813,19.913,2.741.411,7.512-3.19,11.721-3.638,6.296-.671,14.039,2.774,18.47,1.507,2.85-.815,6.273-6.147,8.937-8.354,1.714-1.419,5.235-1.305,5.731-1.886.565-.661,1.544-13.606,2.487-17.207,10.045-38.373,50.498-80.828,90.119-88.697,4.147-27.531-56.095-33.898-27.316-58.077ZM1005.81,813.582c-4.746-1.235-3.493,3.613-6.029,6.747-8.461,10.458-19.811,14.817-31.716,20.022,1.708,18.229,4.848,36.347,6.96,54.51,3.143,27.029-.524,33.276,12.807,59.057,7.294,14.105,30.556,58.78,39.51,68.286,5.042,5.352,5.714,3.382,11.043-.709,13.297-10.208,12.99-18.187,11.919-34.225-1.718-25.742-14.345-33.288-23.691-55.02-10.712-24.909-14.077-51.237-10.076-78.029.754-5.046,5.122-13.627,4.729-17.497-.507-4.996-16.046-15.128-15.456-23.141ZM793.644,837.499c-8.588-17.991-10.084-6.991-18.922-.934-14.749,10.11-44.684,13.695-62.329,12.927-14.17-.617-29.616-5.555-43.643-4.27,39.795,16.197,87.045,12.267,124.894-7.723ZM873.785,872.027c-25.22-9.548-51.269-16.458-74.183-31.055-26.989,22.12-64.078,22.884-97.472,20.491-8.153-.584-36.228-7.62-40.76-6.552-1.454.342-8.313,7.113-11.594,8.999-15.963,9.175-39.826,14.701-57.978,19.022-21.12,5.029-37.589,3.955-57.766,15.823-1.405.826-2.856-.502-2.167,2.915,15.012,18.343,37.726,21.067,56.519,30.757,6.902,3.559,19.16,16.319,24.757,16.507,2.874.096,2.186-1.23,3.13-2.276,10.048-11.136,10.038-27.914,29.265-33.944,20.367-6.388,33.515,10.806,46.219,8.681,4.737-.792,12.355-11.597,17.478-15.144,31.502-21.812,110.48-3.842,119.493,39.067,12.706-13.477,25.014-25.775,42.819-32.47l2.242-40.822ZM961.336,840.96c-.598-.703-11.207,2.179-10.317,5.947l8.631,60.783c1.657-.278,6.384.417,6.822.001,2.427-2.305-5.937-58.42-5.136-66.731ZM945.935,846.093c-7.341,1.989-15.104,3.175-22.209,6.007-6.457,2.574-29.606,14.682-34.301,18.744-11.518,9.965-9.445,26.611-11.916,40.254l73.332-1.946-4.907-63.058ZM432.603,866.619c2.446,18.48-2.999,33.849-6.856,51.326,6.197.723,12.661.979,18.834,1.716.19.023.392,1.484,3.422,1.711,25.99,1.95,51.529-2.732,76.996-6.856-.742-5.088-5.26-7.032-7.71-11.951-6.682-13.419-7.724-35.398-4.264-49.618-18.968-4.796-16.205,7.101-22.96,12.091-9.176,6.779-19.719-8.718-28.373-10.397-.24-2.574-4.894-2.574-5.133,0-.992.5-4.031,10.729-8.58,12.818-7.234,3.322-9.287-2.21-11.953-2.552l-6.827-13.68c-2.216,6.226,2.802,10.841,3.405,15.391ZM1238.56,873.455c-9.128-.685-18.107,1.968-26.554,5.118-5.158,1.923-13.416,3.648-14.481,9.475-1.031,61.733.413,123.224,5.137,184.707.804,6.639,10.009,8.223,13.198,11.738,1.427,1.573-1.417,7.631,7.317,3.682-4.774-26.571-3.84-53.705-5.088-80.466-1.409-30.188-4.936-60.351-3.563-90.685.559-12.355,3.201-25.922,3.501-38.428,4.012-.251,3.018-.551,3.432,2.549.833,6.248-1.628,11.35-1.799,17.057-1.255,41.859,1.556,83.492,3.475,124.994.405,8.748-.042,60.589,3.525,64.055,1.022.994,18.598-.531,22.168.1l-10.267-213.896ZM1265.761,873.637l-22.082-.172c2.733,25.251,2.388,50.791,3.446,76.122,1.036,24.795,1.741,50.383,3.422,75.286.533,7.9,5.046,61.425,7.15,63.852.917,1.058,25.681,4.432,27.727,3.868,3.831-1.057,3.064-39.279,2.821-45.53-.552-14.212-2.096-31.804-3.506-46.114-4.197-42.587-13.503-84.898-18.978-127.311ZM1292.912,877.294c-1.78-2.101-19.969-5.216-23.547-2.989,3.653,5.033,5.104,11.649,6.322,17.633,13.259,65.103,19.85,134.084,19.324,200.546l28.91-3.611c-1.342-71.589-14.233-142.265-31.01-211.579ZM305.968,945.343c-3.341.753-20.452,4.504-18.805-2.558.495-2.124,25.888-10.241,30.232-12.562,12.248-6.546,22.232-17.24,25.385-31.067,2.298-10.078,1.983-15.307-8.198-19.218-26.467-10.166-71.482,2.489-84.571,29.104-11.583,23.552,6.359,16.12,20.64,24.557,8.939,5.281,15.05,21.143,27.61,16.956,1.808-.603,7.416-2.948,7.707-5.211ZM1330.961,1087.345c12.264-3.252,40.377,2.837,39.382-16.191-2.256-43.146-22.424-141.573-49.707-174.542-2.033-2.457-18.126-18.828-20.474-16.297,6.091,27.39,15.561,53.738,20.254,81.536,6.888,40.804,9.717,84.119,10.546,125.493ZM1194.061,888.879c-15.155,3.548-14.715,16.787-15.482,29.844-2.316,39.437-1.345,99.73,3.513,138.664,1.339,10.731-.732,16.277,11.101,16.336,4.364.022,2.822-9.369,2.651-12.978-2.712-57.213-5.561-108.191-3.527-165.929.081-2.304.908-3.94,1.744-5.937ZM1176.942,902.56c-2.334-2.598-14.931,12.383-13.756,16.171,1.615,25.771-2.988,51.4-1.707,77.143,1.263,25.371,8.641,50.511,6.906,76.079h10.285c-2.951-43.083-4.437-86.143-5.213-129.263l3.484-40.13ZM821.729,948.152c-19.017-29.397-55.177-43.184-90.386-38.612-18.257,2.371-28.445,20.745-39.667,22.057-16.029,1.874-30.931-18.433-47.748-6.805-28.004,19.362-39.316,90.265-40.279,122.271-.557,18.509,9.897,31.38,11.862,48.165,1.077,9.202-1.688,24.572.148,31.98.441,1.779,3.939,2.036,5.187,3.68,6.622,8.717,7.645,22.566,8.768,33.217,39.852,10.791,72.875,22.331,114.765,13.416,13.032-2.773,24.31-10.194,37.297-11.486-21.378-21.04-3.585-29.973,4.258-49.624,13.804-34.588,9.22-73.599,16.782-109.836,4.038-19.351,10.685-39.006,21.582-55.53,1.281-2.617-2.06-2.106-2.568-2.892ZM959.616,917.943c-37.949,13.897-65.944-8.687-102.497,16.414-61.79,42.431-35.85,130.497-60.932,190.594-2.126,5.093-11.482,18.115-11.176,21.339.385,4.048,13.622,17.394,15.889,23.637,4.231,11.654.904,40.579,19.249,40.777,5.434.059,10.384-2.306,17.105-1.88,34.434,2.185,35.289,29.454,57.873,43.118,24.458,14.797,57.625,15.408,84.906,31.45,10.603,6.235,17.421,18.463,30.121,9.315,7.41-5.337,16.662-29.607,17.744-38.723,3.247-27.356-11.149-51.039-10.146-76.889,1.129-29.111,15.499-59.36,18.411-87.655,3.252-31.598-14.846-47.914-28.91-72.811-17.839-31.58-37.814-63.625-47.637-98.687ZM405.218,929.917c.949.819,21.537,3.202,24.836,3.415,25.796,1.666,56.236-1.429,81.833-5.4,3.447-.535,25.088-3.343,25.062-5.704-.029-2.538-5.276-2.618-7.462-2.452-20.72,1.57-42.263,10.598-65.289,10.255-13.589-.202-36.839-9.236-46.052-8.594-1.842.128-16.093,5.748-12.928,8.48ZM1163.261,1070.216c-3.367-7.724-1.083-16.528-1.729-24.775-1.037-13.236-4.476-27.647-5.186-41.012-1.444-27.199,2.183-54.413.934-81.337-14.273,13.599-8.064,27.47-7.637,43.553.269,10.132-.767,20.841-.054,30.853,1.696,23.81,5.805,47.909,8.532,71.667.249,2.168,3.36.787,5.14,1.052ZM610.571,959.044c-11.151-2.414-19.761-11.214-29.626-15.757-4.068-1.874-34.532-14.395-36.491-14.59-4.744-.472-31.212,6.683-39.372,7.829-21.759,3.055-46.336,6.702-68.183,5.36-12.742-.783-33.409-7.228-44.39-6.708-2.686.127-31.747,9.315-31.739,11.003,20.121,22.748,29.394,55.073,34.197,84.695,3.949.97,2.813-.749,3.91-2.16,23.053-29.648,57.635-75.274,100.933-59.052,8.032,3.009,12.729,8.958,20.068,12.443,11.24,5.338,25.412,6.383,36.837,11.075,22.25,9.137,30.297,28.626,38.47,49.66,2.822.459,1.577-2.314,1.691-4.236,1.598-27.002,3.184-54.341,13.697-79.563ZM333.325,931.649c-2.245-1.518-7.085,4.839-9.653,6.554-2.046,1.367-8.51,3.46-8.839,4.001-.973,1.602.241,5.431-1.903,9.221-1.875,3.315-9.756,9.327-13.674,10.269-21.236,5.11-30.352-19.568-40.367-19.113-2.024.092-22.278,16.334-24.815,18.966-21.477,22.279-13.191,62-30.479,87.705,5.091,12.891,10.822,25.696,15.172,38.889,2.33,7.068,2.562,17.713,5.993,23.095,5.693,8.93,31.498,15.399,40.996,22.315,8.149,5.933,21.39,31.547,24.3,32.29,6.451,1.645,15.447-12.294,22.69-14.408,9.091-2.653,17.289,3.232,22.684-8.116,2.077-4.37,1.59-10.14,4.72-14.102,4.518-5.719,21.277-12.743,25.257-16.665,5.235-5.158,9.995-39.507,12.923-49.53,6.707-22.959,13.481-19.662,4.684-46.719-7.734-23.787-17.463-49.56-34.303-68.362-5.235-5.845-13.39-8.585-15.388-16.288ZM1152.977,1065.091c-4.324-40.42-7.527-80.774-7.674-121.467-2.759,2.558-4.346,6.599-5.24,10.161-5.063,20.186,2.294,80.202,8.28,101.42.751,2.663,1.698,9.1,4.634,9.886ZM1127.349,979.561c-4.957,17.242-21.912,6.958-31.586,8.504-4.486.717-6.828,6.971-11.801,6.521-9.175-.829-15.128-25.402-26.791-25.288,6.909,23.907,6.059,45.465-15.367,60.725,1.14,1.949,2.579,1.898,4.338,2.473,17.079,5.583,67.45,14.658,81.799,4.985,7.322-4.936,3.887-11.735,4.586-19.51l-5.177-38.41ZM449.217,1231.55c1.834,1.657,3.34,6.347,5.674,8.897,7.069,7.721,14.526,15.124,21.347,23.092,10.265-12.617,22.603-18.608,39.178-16.877,6.125.64,19.347,7.027,23.337,5.943,8.063-2.19,14.543-21.503,21.35-28.36,9.005-9.071,26.824-11.638,32.422-20.622,2.689-4.316,12.132-33.178,12.712-38.604,1.233-11.532-.144-59.876-1.928-71.277-2.482-15.861-26.291-69.801-37.422-80.642-13.061-12.72-29.083-11.184-44.772-16.828-19.697-7.086-24.202-20.345-49.248-15.958-22.05,3.862-58.672,42.441-70.448,61.302-18.957,30.362-19.443,64.175-26.938,98-.325,2.662-.344,2.848,2.404,2.414,5.223-.823,9.428-4.192,12.594,2.982.726,36.113-1.468,85.93,38.73,101.566,2.986-5.471,14.027-21.338,21.01-15.029ZM1135.868,1046.276c-30.895,12.767-66.185,6.41-95.792-6.842,2.53,8.288,7.257,15.391,9.407,23.941,9.134,36.339-18.378,76.869-14.556,117.239.698,7.372,7.58,12.437,13.703,8.617,5.188-3.236,6.024-18.848,22.25-25.727,28.259-11.98,65.191-19.168,94.991-29.92,5.749-2.074,30.311-10.951,32.458-13.742,5.837-7.589,7.109-23.261,9.421-32.444-32.8-11.183-68.691,8.081-71.882-41.122ZM194.73,1046.282c-2.108-1.661-4.61,1.716-5.089,4.28-2.475,13.255,5.421,37.423,20.504,40.194.895-.927-5.652-21.923-6.765-24.872-.995-2.635-7.808-18.939-8.65-19.602ZM1308.717,1104.445c-31.164,3.575-59.913-7.889-90.629-6.762-1.587,8.588-5.985,29.282-12.861,34.189-5.349,3.817-37.413,14.089-46.209,17.102-6.638,2.273-14.426,4.494-21.432,5.109,3.351,15.397,6.842,65.745,17.035,76.217,4.931,5.066,56.409,15.551,65.899,16.235,29.619,2.135,84.109-.145,112.826-7.086,2.137-.516,4.538-.682,6.176-2.379,7.36-7.626,4.074-57.291,8.366-69.902-10.367-7.576-24.741-11.342-32.057-22.782-6.925-10.827-6.952-27.346-7.112-39.942ZM363.172,1148.365c-4.735-9.007,8.403-15.783,5.274-26.79-38.658,15.755-24.473,52.958-18.036,84.397l35.983,14.823c-2.369-5.134-3.849-13.931-6.308-18.345-1.689-3.032-6.108-5.251-8.773-10.195-9.102-16.891-5.626-25.723-5.661-42.569-.002-.973-2.148-.69-2.479-1.321ZM335.051,1159.207c-5.968,3.3-12.721.541-18.9,2.472-5.06,1.582-10.002,9.807-16.61,12.472-25.343,10.222-22.847-20.827-37.207-32.047l-41.913-18.814c5.955,18.117,20.901,29.531,26.145,48.27,3.556,12.709,2.094,24.337-.488,37.235,25.741,10,48.404,15.428,74.772,3.78,4.872-2.152,8.413-5.865,12.647-7.941,2.257-1.107,6.458-.721,6.704-.954,1.629-1.542-7.552-37.77-5.15-44.475ZM379.557,1150.651l-8.564-.008c-1.898,1.87,2.187,28.934,8.564,30.806v-30.799ZM605.407,1208.814c7.479-16.497,16.337-30.285,13.693-49.599l-12.821,37.629c.178,2.616-5.022,10.812-.872,11.97ZM793.464,1193.235c2.104-2.987-3.711-21.885-7.518-23.755-1.688,1.981-1.812,4.077-4.301,5.948-15.885,11.934-51.389,17.115-71.053,16.36-9.044-.347-28.057-5.599-35.118-4.471-10.38,1.659-13.337,14.964-19.502,21.574-12.927,13.86-43.835,22.689-60.521,32.715l3.132,42.505c31.503-.58,18.182,48.539,31.79,64.889,2.964,3.562,30.802,21.796,33.225,18.946,2.174-26.276,8.202-53.14,14.532-78.724,2.979-12.038,9.852-45.014,17.052-53.102,8.136-9.141,46.854-26.117,59.665-31.024,6.269-2.401,37.456-10.21,38.619-11.861ZM595.179,1234.491c24.055-15.773,53.399-22.7,66.677-50.487l-31.576-12.824c-4.667,11.487-5.445,22.012-13.882,32.36-7.129,8.743-9.08,5.721-16.046,9.62-5.807,3.25-5.428,15.377-5.173,21.331ZM391.042,1231.582c-8.366-6.664-39.591-11.123-50.438-19.066-25.788,12.402-44.88,19.212-73.999,12.58-8.645-1.969-37.507-14.467-43.316-12.613-1.952.623-3.938,3.349-2.859,4.867.529.743,13.771,7.863,15.929,8.903,8.592,4.138,20.142,5.984,27.799,9.845,1.342.677,6.541,3.176,4.166,5.228-3.714,3.208-47.959-14.1-52.162-21.893-8.387,6.009-15.374,13.096-24.798,17.658-6.623,3.205-27.049,7.652-29.239,10.116-3.928,4.417-11.279,40.929-8.447,43.757,15.676-.346,31.447.41,47.136.062,47.228-1.048,94.67-2.64,141.884-5.274,12.705-.709,26.978,1.331,39.406.05,10.918-1.126,16.277-8.517,26.526.021,2.164-11.325,1.564-27.708-3.783-38.121-.489-.952-12.968-15.453-13.805-16.12ZM588.316,1222.531c-22.068,2.52-24.845,18.637-35.187,32.384-15.1,20.071-32.253.14-49.05,2.155-15.484,1.857-19.977,17.72-27.955,18.48-13.226,1.259-28.365-35.664-34.092-34.211-8.494,12.241-9.405,20.997-26.525,11.975,4.31,11.083,6.972,20.611,3.413,32.5,35.692.43,71.06,9.139,107.011,6.925,10.256-.632,47.382-5.709,55.091-9.931,7.524-4.12,2.312-11.624,2.09-18.302-.481-14.443-.345-28.46,5.203-41.975ZM133.159,1330.307c-.589-19.781-7.449-46.112-.919-65.073,1.406-4.084,6.329-7.081,6.029-11.92-7.706,7.472-45.652,25.421-47.821,35.187-1.09,4.908,13.421,6.847,14.948,9.657,5.376,9.897-7.05,5.505-12.544,3.152-3.855-1.651-5.282-5.197-9.299-5.216-3.792,9.825-6.166,21.111-6.894,31.656-.244,3.535.015,2.23,2.538,2.571,18.077,2.441,35.884,1.561,53.961-.015ZM388.104,1290.964l-234.426,5.117v20.55c16.229-.475,32.609.583,48.847.062,53.536-1.72,107.272-6.995,160.776-8.627,7.069-.216,16.267,2.971,24.798-.014l.005-17.088ZM133.16,1335.436c-19.306,1.766-37.397,2.837-56.466-1.696l-.018,17.111c7.009-.18,54.203.478,56.487-1.711.562-.538-.403-11.197-.003-13.705ZM133.152,1354.265c-18.7,3.205-37.918,3.35-56.451,0-.821,12.197-2.636,23.778-.001,35.916l56.452-3.407v-32.51ZM774.832,1439.816c1.26.17,1.86-.451,1.711-1.711-.235-1.987-4.735-5.89-6.828-6.843-.44,2.494,2.476,8.198,5.117,8.555ZM1031.735,1452.026c-3.573,9.061-5.317,18.646-6.833,28.243-6.911,43.764-9.714,101.266-7.106,145.213.856,14.423-3.453,37.087,12.516,43.949,17.542,7.538,51.571,6.794,69.334.216,5.189-1.922,13.951-9.472,14.085-15.004-3.056-29.267-8.413-58.398-11.857-87.567-3.608-30.554-3.253-64.973-11.742-94.343-3.068-10.613-6.278-24.802-20.039-24.43-12.055.327-26.006,3.926-38.357,3.722ZM1123.884,1648.55c5.085-14.037,3.198-28.901,3.416-43.591l-18.777-88.138,3.421,48.74,11.94,82.989Z" style="fill:#00359e;"/><path d="M853.553,443.983c14.954-.435,30.16,2.686,43.934,8.256,5.352,2.164,36.695,18.297,29.628,25.965-2.06,2.236-25.91-17.827-31.611-17.138-8.176-3.081-36.957-10.354-44.153-8.205-4.111,1.228-24.524,24.405-27.221,29.304-6.958,12.64-4.035,22.528-7.68,35.096-5.759,19.853-11.515,6.796-19.478,1.267-6.812-4.73-15.143-8.471-21.996-13.937-2.118-1.689-15.068-12.665-15.479-13.61-.325-.746-.703-4.225.801-4.224,13.35-1.805,33.964,22.706,47.027,27.383,1.891-18.018,1.548-26.834,11.611-42.303,5.625-8.646,19.516-20.623,21.84-29.493,2.556-9.756,3.769-32.858,4.197-43.712,1.674-42.451-5.772-115.991-62.446-115.12-19.776.304-39.931,18.612-41.892,38.164-.565,5.63,1.715,23.112-1.759,25.69-1.426,1.058-4.844.542-5.112.826-1.142,1.209,10.195,21.671,11.472,27.008,2.925,12.23-1.604,18.245-1.111,28.343.988,20.246,32.475,46.775,6.639,65.145-9.977,7.093-16.066,4.388-25.939,6.573-3.94.872-25.971,7.387-26.984,6.365-4.221-4.259,10.264-10.682,13.049-11.745,10.441-3.987,35.936-3.903,39.229-13.803,5.215-15.679-14.954-32.207-15.977-51.114-.392-7.253,3.185-15.337,2.369-22.593-1.591-14.157-17.737-24.481-11.721-38.907,1.048-2.513,4.469-4.268,5.196-6.77,1.403-4.831-.269-11.235.542-16.568,8.437-55.49,79.316-65.98,107.908-17.583,19.928,33.732,21.281,77.028,18.516,114.911-.618,8.462-2.456,17.998-3.397,26.529Z" style="fill:#00359e;"/><path d="M1389.123,1249.9c-2.484,28.371-11.518,55.564-16.631,83.448-2.574,14.034-3.709,29.155-6.143,43.477-3.921,23.074-19.048,79.254-10.408,98.747,9.996,22.551,41.188,29.913,50.116,49.128,5.638,12.134,6.57,46.577,7.102,61.34,1.155,32.027,2.32,74.75.005,106.231-.456,6.196-.937,20.895-9.526,14.507-2.139-23.432-1.489-47.49-2.458-71.117-.81-19.773-2.352-40.084-3.475-59.833-.787-13.834,1.955-37.783-8.546-47.919-14.614-14.104-36.288-21.313-46.009-42.968-12.427-27.681,7.786-91.341,14.388-122.058,2.795-13.002,3.818-26.421,6.766-39.432,3.939-17.384,12.276-53.215,18.841-68.423,1.186-2.748,2.257-5.754,5.978-5.127Z" style="fill:#00359e;"/><path d="M667.164,466.102c2.154,2.266,11.948-3.617,11.984,11.255.027,11.264-8.794,21.642-10.263,32.657-1.397,10.481.686,21.104,1.62,31.454,10.817-.515,18.605,6.752,29.786,5.104,2.505-.369,14.039-7.199,12.965-.755-1.109,6.653-15.545,11.101-21.415,11.24-3.92.093-19.287-3.051-23.176-4.339-5.236-1.735-8.85-7.16-9.795-12.449-.823-4.612-2.247-17.294-2.243-21.837.009-9.788,9.151-28.977,8.786-34.083-.085-1.187-6.608-2.672-8.24-7.407-3.713-10.771-3.673-32.061-6.342-44.985-6.614-32.034-10.794-48.654-47.969-44.427-17.729,2.016-27.549,26.724-29.508,42.358-1.881,15.012.836,30.038.513,44.984-1.69,4.972-4.544,5.443-9.52,5.061-2.081,1.939,14.037,29.95,15.733,34.747,6.595,18.658,9.396,54.782-6.236,69.691-10.487,10.003-40.66,14.884-54.849,13.622-4.822-.429-12.988-4.226-5.147-5.146,17.368-2.037,52.196-4,59.166-22.995,4.432-12.078,3.825-31.635,1.207-44.182-2.481-11.893-20.538-36.819-20.111-44.753.54-10.022,9.981-10.988,10.336-12.383,1.208-4.742-2.404-23.887-1.867-32.308,1.047-16.407,9.231-42.193,23.159-52.129,9.462-6.75,37.936-8.589,48.768-4.261,20.047,8.01,26.583,47.57,30.348,67.184.598,3.114,1.644,18.385,2.306,19.082Z" style="fill:#00359e;"/><path d="M709.825,1472.318c3.065-1.254,2.476-6.727,4.399-10.121,2.293-4.048,13.093-11.674,12.754-4.386-.327,7.049-13.024,27.684-15.013,36.35-3.902,38.944-2.087,78.649-.517,117.686.435,10.805,6.446,52.416.934,58.961-8.612,10.225-10.173-9.756-10.917-14.758-3.26-21.927-4.691-52.532-5.417-75.002-1.259-38.947,5.551-78.033,1.765-116.405-1.349-13.676-10.387-26.601-10.315-41.044.025-4.99,1.769-7.101,6.049-2.599,1.168,1.229,12.23,27.659,13.317,31.171,2.049,6.617,3.599,13.145,2.961,20.147Z" style="fill:#00359e;"/><path d="M1401.102,1251.61c1.528,15.082-.44,30.108-.073,45.416,1.145,47.772,9.26,107.169,1.317,153.508-1.339,7.813-7.281,6.4-8.168-1.219-1.492-12.818.604-29.446.159-42.935-1.428-43.281-6.984-99.296.148-141.727.753-4.482.744-13.595,6.617-13.043Z" style="fill:#00359e;"/><path d="M264.903,1511.671l-1.975,120.365c-3.304,6.283-7.378.389-8.867-4.279-1.255-3.933-2.479-13.296-2.819-17.714-2.417-31.4,2.194-66.194,6.76-97.264l6.901-1.108Z" style="fill:#00359e;"/><path d="M1293.301,1487.734c1.531,10.383-20,7.545-28.015,8.758-20.53,3.106-71.392,17.954-84.998-4.403-8.444-13.875,5.832-4.52,9.867-3.023,31.114,11.545,70.108-6.424,103.146-1.332Z" style="fill:#00359e;"/><path d="M1216.314,1518.498c-.509-.798-.121-4.005.754-5.202,2.241-3.063,65.981-6.07,75.371-6.763,4.883-.361,28.846-5.99,29.949-.817,1.527,7.162-28.038,10.123-33.576,10.878-9.83,1.34-69.437,6.7-72.498,1.904Z" style="fill:#00359e;"/><path d="M971.623,707.5c-.232,1.4.367,4.639-.009,5.095-2.131,2.583-58.643,11.503-65.897,11.99-12.319.827-30.576.985-42.822.078-2.748-.204-20.599-2.704-21.336-3.494-.174-.187-.17-4.929.007-5.113,1.089-1.128,11.742,1.675,14.475,1.772,12.759.451,28.498.734,41.12-.088,24.917-1.622,49.492-9.814,74.462-10.241Z" style="fill:#00359e;"/><path d="M598.05,797.65c-7.513,8.294-40.998,15.372-33.685,5.681.845-1.12,20.697-5.741,25.568-11.237,4.7-5.304,2.378-15.59,9.23-22.425,2.87-2.862,13.247-8.471,17.175-7.296,9.226,2.759-7.489,10.489-9.979,13.636-5.096,6.441-3.668,16.519-8.308,21.642Z" style="fill:#00359e;"/><path d="M747.462,1337.163c3.75-.744,3.881,1.817,5.202,4.192,5.188,9.331,19.651,44.103,21.433,53.907,1.617,8.898-5.283,4.571-8.768-1.552-3.874-6.807-21.6-52.029-17.867-56.547Z" style="fill:#00359e;"/><path d="M895.467,745.135c1.646-.265,27.64-11.57,16.224.824-6.132,6.657-42.579,12.489-44.45,3.429-.643-1.452,2.036-4.253,2.558-4.253,7.476,0,18.915,1.088,25.667,0Z" style="fill:#00359e;"/><path d="M288.876,1448.38c2.776-.572,3.555.724,4.908,2.775,1.892,2.868,5.555,34.959,1.072,34.825-5.322-.159-6.656-32.188-5.98-37.6Z" style="fill:#00359e;"/><path d="M848.402,962.445c-2.954,26.719-4.176,54.359-9.006,80.807-.594,3.253-3.833,19.9-4.497,20.849-1.141,1.631-6.414,1.383-6.931.914-4.299-3.897,1.297-34.06,2.436-41.022,1.921-11.744,8.051-49.03,12.511-57.642,1.253-2.419,2.284-4.53,5.487-3.906Z" style="fill:#00359e;"/><path d="M872.358,1203.687c-1.93,2.002-4.15-.588-5.643-2.104-11.634-11.816-27.62-34.513-34.013-49.768-3.097-7.389-14.71-44.401-8.229-49.066,4.938-3.554,8.278,20.43,9.4,23.94,5.229,16.348,11.848,29.734,20.671,44.35,3.234,5.358,22.263,28.034,17.814,32.648Z" style="fill:#00359e;"/><path d="M506.048,1013.661c.278-.2.583-3.225,2.855-4.812,3.436-2.401,8.284-2.982,11.845-5.294,7.815,4.738-5.228,12.799-9.917,14.062-2.099.566-18.377-.004-20.867-.463-5.208-.959-15.945-14.364-14.573-20.488,4.722-4.722,26.364,20.079,30.658,16.994Z" style="fill:#00359e;"/><path d="M732.045,923.092c3.875,3.271-15.806,9.337-17.681,10.534-9.736,6.217-22.167,26.918-35.341,14.243l12.951-4.122c12.312-10.472,22.012-21.76,40.071-20.655Z" style="fill:#00359e;"/><path d="M704.782,952.042c-7.538-11.773,27.16-3.091,25.551,4.381-1.09,5.063-24.821-3.241-25.551-4.381Z" style="fill:#00359e;"/><path d="M739.775,633.929c5.879-1.632,10.125,8.978,5.083,10.253-6.339,1.602-10.626-8.714-5.083-10.253Z" style="fill:#00359e;"/><path d="M723.489,627.065c-6.947,1.211-12.107-3.056-5.955-8.538l5.955,8.538Z" style="fill:#00359e;"/><path d="M701.243,616.816c2.757,3.062-5.568,11.289-8.538,8.538-1.951-1.808,6.779-10.491,8.538-8.538Z" style="fill:#00359e;"/><path d="M1123.896,793.053l-7.708,18.778c6.944-6.874,13.556-11.68,23.84-10.254,4.359,6.183-4.934,6.24-9.171,9.548-3.943,3.078-13.562,15.283-18.039,14.434-4.351-.825-1.171-9.166.782-11.147-6.993,2.063-9.086.253-7.417-7.263,1.773-7.986,8.911-15.18,17.713-14.095Z" style="fill:#00359e;"/><path d="M1067.429,1545.898c-4.107.443-24.078,3.275-25.653,1.705-.899-.896-.045-4.623,1.739-5.946,1.214-.901,22.115-5.907,24.837-6.054,13.786-.744,7.776,4.386,7.559,12.794-.471,18.22,2.13,40.915.116,58.279-.296,2.548-1.831,8.781-4.334,9.371-7.315,1.725-3.116-15.922-3.191-18.249-.557-17.258-1.786-34.584-1.073-51.901Z" style="fill:#00359e;"/><path d="M858.678,563.765l3.504,19.595-.099,16.328c-1.588.11-3.405-8.902-3.405-9.402v-26.521Z" style="fill:#00359e;"/></svg>