<?xml version="1.0" encoding="utf-8"?>
<!-- Generator: Adobe Illustrator 16.0.3, SVG Export Plug-In . SVG Version: 6.00 Build 0)  -->
<!DOCTYPE svg PUBLIC "-//W3C//DTD SVG 1.1//EN" "http://www.w3.org/Graphics/SVG/1.1/DTD/svg11.dtd">
<svg version="1.1" id="Layer_1" xmlns="http://www.w3.org/2000/svg" xmlns:xlink="http://www.w3.org/1999/xlink" x="0px" y="0px"
	 width="512px" height="512px" viewBox="0 0 512 512" style="enable-background:new 0 0 512 512;" xml:space="preserve">
<style type="text/css">
<![CDATA[
	.st0{fill:#14B6B9;}
	.st1{fill:#4B7BB2;}
	.st2{fill:#1E4384;}
	.st3{fill:#ED488B;}
	.st4{fill:#EF4754;}
	.st5{fill:#EF4823;}
	.st6{fill:#8A4581;}
	.st7{fill:#BCBCBC;}
	.st8{fill:#F26322;}
	.st9{fill:#F6851F;}
	.st10{fill:#283D5B;}
	.st11{fill:#C56528;}
	.st12{fill:#2B8C5E;}
	.st13{fill:#FCBF95;}
	.st14{fill:#FEBF10;}
	.st15{fill:none;}
	.st16{fill:#CAD7D6;}
	.st17{fill:#CBDB2D;}
	.st18{fill:#373837;}
	.st19{fill:#D03827;}
	.st20{fill:#3AB37C;}
	.st21{fill:#D6E5E5;}
	.st22{fill:#71C598;}
]]>
</style>
<g>
	<g>
		<g>
			<path class="st21" d="M369.01,99.126c-14.253-8.559-32.749-11.502-48.601-5.73c-9.319,3.393-17.216,9.322-20.968,18.776
				c-3.923,9.884-3.695,21.113-1.241,31.33c0.266,1.106,0.197,2.123-0.101,3.021c8.86,19.863,33.155,27.878,53.628,23.014
				c15.279-3.63,29.135-13.43,33.607-29.115C390.039,123.924,383.814,108.017,369.01,99.126z"/>
		</g>
	</g>
	<g>
		<g>
			<path class="st21" d="M401.622,341.801c-1.178-16.589-1.636-32.962-1.262-49.583c0.531-23.608-0.111-50.024-15.072-69.654
				c-14.656-19.23-38.945-29.249-62.866-26.524c-15.013,1.71-30.802,7.605-43.441,17.096h-3.057
				c-2.234-1.471-4.199-3.971-5.705-6.155c0.01-0.009,0.021-0.018,0.03-0.026c-4.093-6.187-6.927-13.203-11.722-18.881
				c-7.231-8.565-19.957-10.855-30.665-10.271c-11.064,0.603-21.839,4.194-30.419,11.369c-2.163,1.81-4.116,3.796-5.903,5.912
				c-1.141,0.185-2.279,0.393-3.428,0.577c-0.329,0.053-0.593,0.17-0.819,0.318h-3.91c-1.199-1.245-2.526-2.377-3.906-3.379
				c-0.319-0.437-0.59-0.949-0.785-1.56c0.541,1.699-0.731-0.637-1.337-1.29c-1.162-1.251-2.337-2.491-3.527-3.717
				c-2.181-2.248-4.383-4.476-6.598-6.69c-7.035-7.036-20.093-9.662-29.645-9.155c-17.151,0.912-34.35,8.865-41.611,25.176
				c-6.312,14.178-6.329,30.367-6.688,45.603c-0.505,21.451-2.155,42.846-2.371,64.305c26.287,5.71,53.314,2.141,80.001,1.798
				c-0.001-0.384-0.013-0.767-0.016-1.15h10.448c-0.063,4.771-0.41,9.511-0.497,14.301c-0.097,5.32-0.269,11.887,2.754,16.553
				c5.306,8.186,16.977,7.026,25.564,6.709c11.784-0.438,23.598-0.29,35.395-0.233c0.008-0.157,0.014-0.314,0.021-0.472h9.463
				v14.223c-0.362,9.266-0.618,18.537-0.457,27.822c21.202,3.238,42.514,5.55,63.957,7.738c16.026,1.637,32.176,1.982,48.268,1.262
				c7.447-0.333,14.907-0.67,22.258-1.97c6.439-1.138,12.725-2.271,19.25-1.874C403.892,373.892,402.761,357.843,401.622,341.801z"
				/>
		</g>
	</g>
	<g>
		<g>
			<path class="st21" d="M163.124,115.231c-4.554-12.911-17.972-16.464-30.025-11.705c-6.046,2.387-11.935,6.139-14.415,12.444
				c-2.079,5.281-2.066,10.975-1.679,16.557c0.06,0.08,0.123,0.154,0.181,0.238c7.281,10.625,20.483,14.994,32.719,10.24
				C160.314,138.959,166.951,126.082,163.124,115.231z"/>
		</g>
	</g>
	<g>
		<g>
			<path class="st2" d="M474.158,161.741c-16.126-46.552-46.661-87.149-91.268-109.607c-50.95-25.651-110.954-28.073-166.417-19.262
				c-49.78,7.907-102.278,25.918-139.577,61.098c-19.579,18.466-34.739,40.917-42.662,66.767
				c-7.961,25.975-10.366,53.115-12.104,80.102c-0.074,1.145-0.426,2.039-0.955,2.711c0.031,0.247,0.052,0.502,0.052,0.772
				c0,52.927-1.063,108.335,30.075,153.938c25.321,37.082,64.48,61.467,107.198,73.711c88,25.225,194.16,9.605,264.923-50.809
				C497.532,357.891,504.342,248.877,474.158,161.741z M289.586,108.669c4.614-11.624,13.856-19.97,25.44-24.452
				c18.93-7.324,42.416-5.067,59.496,6.044c14.573,9.481,24.328,24.403,22.922,42.271c-1.346,17.115-11.501,32.912-26.725,40.954
				c-29.071,15.359-70.868,7.619-83.369-25.564c-0.611-1.62-0.416-3.049,0.247-4.176
				C285.243,132.125,285.158,119.825,289.586,108.669z M208.658,90.817c18.85-7.603,44.259-6.25,57.368,11.153
				c12.903,17.129,5.782,42.843-12.983,52.764c-19.897,10.519-42.529,3.265-57.489-12.103c-0.872-0.357-1.673-1.037-2.292-2.119
				C182.713,122.107,188.24,99.052,208.658,90.817z M111.22,107.659c4.478-7.389,12.867-12.651,21.09-14.929
				c8.274-2.292,17.929-2.952,25.721,1.379c7.217,4.012,13.362,10.693,15.36,18.901c3.845,15.798-3.832,34.474-20.02,39.892
				c-16.983,5.685-34.666,0.629-44.879-14.273c-0.1-0.145-0.186-0.29-0.268-0.435c-0.854-0.77-1.451-1.885-1.568-3.364
				C105.919,125.507,106.245,115.87,111.22,107.659z M413.642,392.892c-0.191,3.634-3.386,5.541-6.196,5.438
				c-1.056,1.326-2.699,2.214-4.8,2.018c-7.606-0.709-15.226,1.819-22.714,2.743c-7.472,0.921-15.098,1.177-22.62,1.375
				c-15.833,0.416-31.752,0.007-47.497-1.804c-21.796-2.506-43.731-4.621-65.405-8.033c-0.107-0.017-0.207-0.043-0.31-0.064
				c-2.438-0.02-4.772-1.522-4.872-4.678c-0.381-12.077,0.17-24.123,0.796-36.169c-12.145-0.01-24.286-0.011-36.427,0.296
				c-10.068,0.255-22.255,0.283-29.783-7.537c-7.379-7.666-7.736-18.809-7.267-28.934c-28.673,0.448-57.762,4.268-85.903-2.985
				c-2.137-0.551-4.232-2.336-4.229-4.742c0.045-25.002,1.812-49.972,2.589-74.955c0.536-17.208,1.536-35.69,11.125-50.601
				c11.26-17.507,33.743-26.021,54.023-24.369c10.814,0.882,23.162,4.704,30.997,12.573c2.859,2.872,5.725,5.743,8.482,8.713
				c1.037,1.116,2.342,2.315,3.389,3.639c12.193-12.045,29.039-18.397,46.774-17.386c11.02,0.628,23.262,3.495,30.979,11.992
				c5.817,6.405,9.171,14.344,13.953,21.417c1.583-1.005,3.195-1.966,4.841-2.873c20.653-11.381,45.97-16.833,69.025-9.801
				c22.136,6.751,41.337,22.633,50.248,44.233c8.932,21.653,8.06,44.892,7.65,67.818
				C409.939,331.166,415.265,361.933,413.642,392.892z"/>
		</g>
	</g>
	<g>
		<g>
			<path class="st21" d="M258.102,108.854c-9.882-13.119-28.897-14.478-43.406-9.132c-7.132,2.628-13.804,7.158-15.634,15.019
				c-1.506,6.468-0.696,13.088,2.38,18.964c0.088,0.083,0.176,0.161,0.262,0.252c11.042,11.756,28.429,20.261,44.35,12.649
				C259.531,140.164,267.846,121.788,258.102,108.854z"/>
		</g>
	</g>
	<g>
		<g>
			<path d="M487.825,168.675c-14.168-46.856-40.94-88.284-82.013-115.737C359.453,21.952,300.536,14.49,246.029,18.49
				C194.329,22.285,141.4,36.389,97.433,64.468c-21.602,13.795-40.878,31.898-54.966,53.381
				c-14.86,22.661-22.512,48.775-26.582,75.363c-2.309,15.085-3.438,30.333-4.418,45.553c-0.061,0.95,0.094,1.806,0.399,2.564
				c-0.89,0.938-1.472,2.218-1.472,3.828c0,30.126-0.646,60.399,4.645,90.183c4.822,27.145,15.228,52.928,31.629,75.148
				c29.151,39.498,73.502,63.312,120.389,74.99c88.94,22.154,194.246,3.654,264.501-57.08
				C505.537,364.445,514.716,257.611,487.825,168.675z M423.425,421.162c-70.764,60.414-176.923,76.033-264.923,50.809
				c-42.718-12.244-81.876-36.629-107.198-73.711c-31.139-45.604-30.075-101.012-30.075-153.938c0-0.271-0.021-0.525-0.052-0.772
				c0.529-0.672,0.881-1.566,0.955-2.711c1.737-26.987,4.143-54.127,12.104-80.102c7.923-25.851,23.083-48.301,42.662-66.767
				c37.299-35.18,89.797-53.191,139.577-61.098c55.463-8.811,115.467-6.389,166.417,19.262
				c44.607,22.458,75.142,63.055,91.268,109.607C504.342,248.877,497.532,357.891,423.425,421.162z"/>
		</g>
	</g>
	<g>
		<g>
			<path d="M410.493,300.217c0.409-22.927,1.281-46.165-7.65-67.818c-8.911-21.6-28.112-37.482-50.248-44.233
				c-23.056-7.032-48.372-1.581-69.025,9.801c-1.646,0.907-3.258,1.868-4.841,2.873c-4.782-7.073-8.136-15.012-13.953-21.417
				c-7.717-8.497-19.959-11.364-30.979-11.992c-17.735-1.011-34.581,5.341-46.774,17.386c-1.046-1.323-2.352-2.522-3.389-3.639
				c-2.757-2.97-5.623-5.842-8.482-8.713c-7.835-7.869-20.183-11.691-30.997-12.573c-20.28-1.652-42.763,6.861-54.023,24.369
				c-9.589,14.911-10.589,33.393-11.125,50.601c-0.778,24.983-2.544,49.953-2.589,74.955c-0.004,2.406,2.092,4.191,4.229,4.742
				c28.141,7.253,57.23,3.434,85.903,2.985c-0.469,10.125-0.113,21.268,7.267,28.934c7.528,7.82,19.715,7.792,29.783,7.537
				c12.142-0.307,24.283-0.306,36.427-0.296c-0.626,12.046-1.178,24.092-0.796,36.169c0.1,3.155,2.435,4.658,4.872,4.678
				c0.103,0.021,0.203,0.048,0.31,0.064c21.674,3.412,43.608,5.527,65.405,8.033c15.745,1.811,31.664,2.22,47.497,1.804
				c7.522-0.198,15.147-0.454,22.62-1.375c7.488-0.924,15.108-3.452,22.714-2.743c2.101,0.196,3.744-0.691,4.8-2.018
				c2.81,0.103,6.005-1.805,6.196-5.438C415.265,361.933,409.939,331.166,410.493,300.217z M403.324,389.976
				c-6.525-0.396-12.811,0.736-19.25,1.874c-7.351,1.3-14.811,1.637-22.258,1.97c-16.091,0.721-32.241,0.375-48.268-1.262
				c-21.443-2.188-42.754-4.5-63.957-7.738c-0.161-9.285,0.095-18.557,0.457-27.822v-14.223h-9.463
				c-0.007,0.157-0.013,0.314-0.021,0.472c-11.797-0.057-23.611-0.204-35.395,0.233c-8.587,0.317-20.258,1.477-25.564-6.709
				c-3.023-4.666-2.851-11.232-2.754-16.553c0.087-4.79,0.433-9.529,0.497-14.301H166.9c0.003,0.384,0.015,0.767,0.016,1.15
				c-26.687,0.343-53.714,3.912-80.001-1.798c0.216-21.459,1.866-42.854,2.371-64.305c0.359-15.236,0.376-31.425,6.688-45.603
				c7.261-16.311,24.46-24.264,41.611-25.176c9.552-0.507,22.61,2.119,29.645,9.155c2.215,2.215,4.417,4.443,6.598,6.69
				c1.19,1.226,2.365,2.465,3.527,3.717c0.605,0.653,1.877,2.989,1.337,1.29c0.195,0.611,0.466,1.123,0.785,1.56
				c1.38,1.002,2.707,2.135,3.906,3.379h3.91c0.227-0.148,0.491-0.265,0.819-0.318c1.148-0.184,2.287-0.392,3.428-0.577
				c1.787-2.116,3.741-4.102,5.903-5.912c8.58-7.175,19.355-10.766,30.419-11.369c10.708-0.584,23.433,1.706,30.665,10.271
				c4.794,5.678,7.628,12.694,11.722,18.881c-0.01,0.009-0.02,0.018-0.03,0.026c1.506,2.184,3.471,4.684,5.705,6.155h3.057
				c12.639-9.491,28.429-15.386,43.441-17.096c23.921-2.725,48.21,7.293,62.866,26.524c14.961,19.63,15.604,46.046,15.072,69.654
				c-0.374,16.621,0.084,32.994,1.262,49.583C402.761,357.843,403.892,373.892,403.324,389.976z"/>
		</g>
	</g>
	<g>
		<g>
			<path d="M374.521,90.262c-17.08-11.111-40.565-13.369-59.496-6.044c-11.583,4.481-20.826,12.828-25.44,24.452
				c-4.428,11.155-4.343,23.456-1.989,35.078c-0.663,1.127-0.858,2.556-0.247,4.176c12.501,33.183,54.298,40.923,83.369,25.564
				c15.224-8.042,25.379-23.839,26.725-40.954C398.849,114.665,389.094,99.743,374.521,90.262z M385.334,140.423
				c-4.472,15.685-18.328,25.484-33.607,29.115c-20.473,4.864-44.768-3.151-53.628-23.014c0.297-0.898,0.367-1.915,0.101-3.021
				c-2.454-10.217-2.682-21.446,1.241-31.33c3.751-9.454,11.649-15.383,20.968-18.776c15.853-5.772,34.348-2.829,48.601,5.73
				C383.814,108.017,390.039,123.924,385.334,140.423z"/>
		</g>
	</g>
	<g>
		<g>
			<path d="M266.026,101.97c-13.109-17.402-38.519-18.756-57.368-11.153c-20.417,8.235-25.944,31.291-15.396,49.695
				c0.62,1.082,1.42,1.762,2.292,2.119c14.96,15.367,37.592,22.622,57.489,12.103C271.808,144.813,278.929,119.099,266.026,101.97z
				 M246.054,146.607c-15.921,7.611-33.309-0.894-44.35-12.649c-0.086-0.091-0.174-0.17-0.262-0.252
				c-3.076-5.876-3.887-12.497-2.38-18.964c1.831-7.86,8.502-12.391,15.634-15.019c14.509-5.346,33.524-3.987,43.406,9.132
				C267.846,121.788,259.531,140.164,246.054,146.607z"/>
		</g>
	</g>
	<g>
		<g>
			<path d="M173.391,113.01c-1.998-8.208-8.143-14.889-15.36-18.901c-7.792-4.331-17.447-3.671-25.721-1.379
				c-8.223,2.278-16.612,7.54-21.09,14.929c-4.976,8.211-5.301,17.849-4.563,27.171c0.117,1.479,0.714,2.595,1.568,3.364
				c0.083,0.145,0.168,0.291,0.268,0.435c10.213,14.902,27.896,19.958,44.879,14.273C169.56,147.483,177.236,128.808,173.391,113.01
				z M149.904,143.005c-12.236,4.754-25.438,0.385-32.719-10.24c-0.058-0.084-0.121-0.159-0.181-0.238
				c-0.387-5.582-0.399-11.275,1.679-16.557c2.48-6.305,8.369-10.057,14.415-12.444c12.053-4.759,25.471-1.207,30.025,11.705
				C166.951,126.082,160.314,138.959,149.904,143.005z"/>
		</g>
	</g>
</g>
</svg>
